<?xml version="1.0" encoding="UTF-8" standalone="no"?>
<svg
   width="1512"
   height="924"
   viewBox="0 0 400.05 244.475"
   version="1.1"
   id="svg1174"
   xml:space="preserve"
   inkscape:version="1.2.2 (732a01da63, 2022-12-09)"
   sodipodi:docname="background.svg"
   xmlns:inkscape="http://www.inkscape.org/namespaces/inkscape"
   xmlns:sodipodi="http://sodipodi.sourceforge.net/DTD/sodipodi-0.dtd"
   xmlns="http://www.w3.org/2000/svg"
   xmlns:svg="http://www.w3.org/2000/svg"><sodipodi:namedview
     id="namedview1176"
     pagecolor="#ffffff"
     bordercolor="#000000"
     borderopacity="0.25"
     inkscape:showpageshadow="2"
     inkscape:pageopacity="0.0"
     inkscape:pagecheckerboard="0"
     inkscape:deskcolor="#d1d1d1"
     inkscape:document-units="mm"
     showgrid="false"
     inkscape:zoom="0.71624579"
     inkscape:cx="1019.2032"
     inkscape:cy="524.26137"
     inkscape:window-width="1920"
     inkscape:window-height="991"
     inkscape:window-x="-9"
     inkscape:window-y="-9"
     inkscape:window-maximized="1"
     inkscape:current-layer="layer1" /><defs
     id="defs1171"><linearGradient
       id="paint0_linear_37_346"
       x1="5.27953"
       y1="319.79999"
       x2="190.55901"
       y2="-245.405"
       gradientUnits="userSpaceOnUse"><stop
         stop-color="#D8E24F"
         id="stop1180" /><stop
         offset="1"
         stop-color="white"
         stop-opacity="0"
         id="stop1182" /></linearGradient><linearGradient
       id="paint0_linear_37_347"
       x1="-152.056"
       y1="321.499"
       x2="448.238"
       y2="230.923"
       gradientUnits="userSpaceOnUse"><stop
         stop-color="#D8E24F"
         id="stop1199" /><stop
         offset="1"
         stop-color="white"
         stop-opacity="0"
         id="stop1201" /></linearGradient><linearGradient
       id="paint0_linear_37_351"
       x1="131.501"
       y1="-12.7366"
       x2="-14.9458"
       y2="380.918"
       gradientUnits="userSpaceOnUse"><stop
         stop-color="#81DDF1"
         id="stop1218" /><stop
         offset="1"
         stop-color="white"
         stop-opacity="0"
         id="stop1220" /></linearGradient><linearGradient
       id="paint0_linear_170_202"
       x1="132.471"
       y1="570.991"
       x2="317.75"
       y2="5.7861"
       gradientUnits="userSpaceOnUse"><stop
         stop-color="#D8E24F"
         id="stop146" /><stop
         offset="1"
         stop-color="white"
         stop-opacity="0"
         id="stop148" /></linearGradient><linearGradient
       id="paint0_linear_170_199"
       x1="544.527"
       y1="194.72"
       x2="1.61282"
       y2="411.283"
       gradientUnits="userSpaceOnUse"><stop
         stop-color="#D8E24F"
         id="stop243" /><stop
         offset="1"
         stop-color="white"
         stop-opacity="0"
         id="stop245" /></linearGradient><linearGradient
       id="paint0_linear_170_200"
       x1="326.708"
       y1="105.416"
       x2="-12.5147"
       y2="246.186"
       gradientUnits="userSpaceOnUse"><stop
         stop-color="#81DDF1"
         id="stop291" /><stop
         offset="1"
         stop-color="white"
         stop-opacity="0"
         id="stop293" /></linearGradient><linearGradient
       id="paint0_linear_170_203"
       x1="227.168"
       y1="-67.2197"
       x2="208.642"
       y2="439.929"
       gradientUnits="userSpaceOnUse"><stop
         stop-color="#D8E24F"
         id="stop378" /><stop
         offset="1"
         stop-color="white"
         stop-opacity="0"
         id="stop380" /></linearGradient><linearGradient
       id="paint0_linear_37_354"
       x1="242.04"
       y1="177.017"
       x2="-19.1951"
       y2="28.2513"
       gradientUnits="userSpaceOnUse"><stop
         stop-color="#81DDF1"
         id="stop436" /><stop
         offset="1"
         stop-color="white"
         stop-opacity="0"
         id="stop438" /></linearGradient><clipPath
       clipPathUnits="userSpaceOnUse"
       id="clipPath635"><rect
         style="fill:#000000;stroke-width:0.264583"
         id="rect637"
         width="400.04999"
         height="244.47501"
         x="0"
         y="0" /></clipPath></defs><g
     inkscape:label="Layer 1"
     inkscape:groupmode="layer"
     id="layer1"><g
       id="g620"
       clip-path="url(#clipPath635)"><g
         style="fill:none"
         id="g1195"
         transform="matrix(0.26458333,0,0,0.26458333,1.0512929,-13.181261)"><path
           d="m -186.153,138.181 c -29.731,-10.594 -36.846,-49.3991 -12.806,-69.8503 l 345.64,-294.0487 c 24.04,-20.451 61.203,-7.21 66.895,23.834 l 81.833,446.358 c 5.692,31.045 -24.357,56.609 -54.088,46.016 z"
           stroke="url(#paint0_linear_37_346)"
           stroke-opacity="0.35"
           stroke-width="30"
           id="path1178"
           style="stroke:url(#paint0_linear_37_346)" /></g><g
         style="fill:none"
         id="g1214"
         transform="matrix(0.26458333,0,0,0.26458333,-19.011118,44.525985)"><path
           d="M -74.8986,61.6529 C -78.741,30.7918 -48.1704,7.056 -19.2238,18.4254 L 407.76,186.133 c 29.594,11.623 35.269,51.048 10.155,70.546 L 47.6088,544.196 c -25.1133,19.498 -61.902,4.231 -65.8302,-27.319 z"
           stroke="url(#paint0_linear_37_347)"
           stroke-opacity="0.35"
           stroke-width="30"
           id="path1197"
           style="stroke:url(#paint0_linear_37_347)" /></g><g
         style="fill:none"
         id="g1233"
         transform="matrix(0.26458333,0,0,0.26458333,-8.4712337,70.327693)"><path
           d="M 245.059,184.192 46.1696,348.552 C 21.661,368.806 -15.575,354.665 -20.4611,323.248 L -60.984,62.6955 C -65.8701,31.2789 -34.6876,6.49718 -5.18546,18.3507 L 234.227,114.543 c 28.857,11.594 34.805,49.838 10.832,69.649 z"
           stroke="url(#paint0_linear_37_351)"
           stroke-opacity="0.35"
           stroke-width="30"
           id="path1216"
           style="stroke:url(#paint0_linear_37_351)" /></g><g
         style="fill:none"
         id="g161"
         transform="matrix(0.26458333,0,0,0.26458333,3.3820637,142.60772)"><path
           d="m -58.9623,389.372 c -29.731,-10.593 -36.8454,-49.399 -12.806,-69.85 L 273.872,25.4732 c 24.04,-20.45115 61.203,-7.2097 66.895,23.8347 L 422.6,495.666 c 5.692,31.044 -24.357,56.608 -54.088,46.015 z"
           stroke="url(#paint0_linear_170_202)"
           stroke-opacity="0.35"
           stroke-width="30"
           id="path144"
           style="stroke:url(#paint0_linear_170_202)" /></g><g
         style="fill:none"
         id="g258"
         transform="matrix(0.26458333,0,0,0.26458333,277.50987,11.257565)"><path
           d="m 527.43,452.095 c 10.83,29.322 -13.821,59.492 -44.713,54.725 L 50.5946,440.14 C 19.2514,435.304 5.03137,398.238 25.0974,373.679 L 305.737,30.2012 c 20.066,-24.559 59.223,-18.0134 70.21,11.7367 z"
           stroke="url(#paint0_linear_170_199)"
           stroke-opacity="0.35"
           stroke-width="30"
           id="path241"
           style="stroke:url(#paint0_linear_170_199)" /></g><g
         style="fill:none"
         id="g306"
         transform="matrix(0.26458333,0,0,0.26458333,311.23711,45.819416)"><path
           d="m 299.927,235.315 c 11.402,29.575 -13.634,60.349 -44.91,55.205 L 50.3884,256.862 C 19.3114,251.75 5.36276,214.963 25.238,190.532 L 155.27,30.6926 c 19.875,-24.43117 58.732,-18.2608 70.061,11.1256 z"
           stroke="url(#paint0_linear_170_200)"
           stroke-opacity="0.35"
           stroke-width="30"
           id="path289"
           style="stroke:url(#paint0_linear_170_200)" /></g><g
         style="fill:none"
         id="g393"
         transform="matrix(0.26458333,0,0,0.26458333,333.45568,159.87501)"><path
           d="m 412.926,37.8638 c 31.198,1.9453 48.831,36.6863 31.985,63.0162 L 254.037,399.22 c -17.091,26.714 -56.743,24.74 -71.096,-3.54 L 20.3269,75.2996 C 5.97302,47.0196 27.786,13.8487 59.4387,15.8224 Z"
           stroke="url(#paint0_linear_170_203)"
           stroke-opacity="0.35"
           stroke-width="30"
           id="path376"
           style="stroke:url(#paint0_linear_170_203)" /></g><g
         style="fill:none"
         id="g451"
         transform="matrix(0.26458333,0,0,0.26458333,365.17544,176.0466)"><path
           d="m 152.768,206.056 c -16.826,27.926 -57.9366,25.992 -72.0672,-3.389 L 19.1813,74.7521 C 5.72455,46.7721 27.0425,14.5687 58.056,16.0271 l 134.771,6.3377 c 31.014,1.4584 49.216,35.5202 33.193,62.1139 z"
           stroke="url(#paint0_linear_37_354)"
           stroke-opacity="0.35"
           stroke-width="30"
           id="path434"
           style="stroke:url(#paint0_linear_37_354)" /></g></g></g></svg>
