<svg width="27" height="27" viewBox="0 0 27 27" fill="none" xmlns="http://www.w3.org/2000/svg">
  <path d="M6.75 11.7112V19.125C6.75 20.0201 7.10558 20.8786 7.73851 21.5115C8.37145 22.1444 9.22989 22.5 10.125 22.5H16.875C17.7701 22.5 18.6286 22.1444 19.2615 21.5115C19.8944 20.8786 20.25 20.0201 20.25 19.125V7.875C20.25 6.97989 19.8944 6.12145 19.2615 5.48851C18.6286 4.85558 17.7701 4.5 16.875 4.5H13.9612C13.6661 4.50124 13.3833 4.61841 13.1738 4.82625L7.07625 10.9238C6.86841 11.1333 6.75124 11.4161 6.75 11.7112Z" stroke="#080C25" stroke-width="1.5" stroke-miterlimit="10" stroke-linecap="round"/>
  <path d="M13.5 5.03996V10.125C13.5 10.4233 13.3815 10.7095 13.1705 10.9205C12.9595 11.1314 12.6734 11.25 12.375 11.25H7.29C7.24596 11.2493 7.20307 11.2358 7.16665 11.211C7.13023 11.1863 7.10188 11.1514 7.08511 11.1106C7.06834 11.0699 7.06389 11.0252 7.07232 10.9819C7.08074 10.9387 7.10167 10.8989 7.1325 10.8675L13.1175 4.88246C13.1489 4.85162 13.1888 4.83069 13.232 4.82227C13.2752 4.81385 13.32 4.81829 13.3607 4.83506C13.4014 4.85183 13.4363 4.88019 13.4611 4.91661C13.4859 4.95303 13.4994 4.99592 13.5 5.03996Z" stroke="#080C25" stroke-width="1.5" stroke-linecap="round" stroke-linejoin="round"/>
  <path d="M10.125 19.125H16.875" stroke="#080C25" stroke-width="1.5" stroke-linecap="round" stroke-linejoin="round"/>
  <path d="M10.125 15.75H13.5" stroke="#080C25" stroke-width="1.5" stroke-linecap="round" stroke-linejoin="round"/>
  <circle cx="5.5" cy="5.5" r="5.5" fill="#CD4E5C"/>
</svg>
