<svg width="41" height="41" viewBox="0 0 41 41" fill="none" xmlns="http://www.w3.org/2000/svg">
  <path d="M10.25 17.7837V29.0416C10.25 30.4008 10.79 31.7044 11.7511 32.6655C12.7122 33.6266 14.0158 34.1666 15.375 34.1666H25.625C26.9842 34.1666 28.2878 33.6266 29.2489 32.6655C30.21 31.7044 30.75 30.4008 30.75 29.0416V11.9583C30.75 10.599 30.21 9.29545 29.2489 8.33433C28.2878 7.37321 26.9842 6.83325 25.625 6.83325H21.2004C20.7523 6.83514 20.3228 7.01306 20.0046 7.32867L10.7454 16.5878C10.4298 16.906 10.2519 17.3355 10.25 17.7837Z" stroke="#3D3D3F" stroke-width="1.5" stroke-miterlimit="10" stroke-linecap="round"/>
  <path d="M20.5 7.65327V15.3749C20.5 15.828 20.32 16.2625 19.9996 16.5829C19.6793 16.9033 19.2447 17.0833 18.7917 17.0833H11.07C11.0031 17.0823 10.938 17.0618 10.8827 17.0242C10.8274 16.9866 10.7843 16.9336 10.7589 16.8717C10.7334 16.8099 10.7266 16.7419 10.7394 16.6763C10.7522 16.6106 10.784 16.5502 10.8308 16.5024L19.9192 7.41411C19.9669 7.36729 20.0274 7.33551 20.093 7.32271C20.1587 7.30992 20.2266 7.31668 20.2885 7.34214C20.3503 7.36761 20.4033 7.41066 20.4409 7.46597C20.4785 7.52127 20.4991 7.5864 20.5 7.65327Z" stroke="#3D3D3F" stroke-width="1.5" stroke-linecap="round" stroke-linejoin="round"/>
  <path d="M15.375 29.0417H25.625" stroke="#3D3D3F" stroke-width="1.5" stroke-linecap="round" stroke-linejoin="round"/>
  <path d="M15.375 23.9167H20.5" stroke="#3D3D3F" stroke-width="1.5" stroke-linecap="round" stroke-linejoin="round"/>
</svg>
