<svg width="1512" height="924" viewBox="0 100 1512 924" fill="none" xmlns="http://www.w3.org/2000/svg">
<path d="M645.061 429.061C645.646 428.475 645.646 427.525 645.061 426.939L635.515 417.393C634.929 416.808 633.979 416.808 633.393 417.393C632.808 417.979 632.808 418.929 633.393 419.515L641.879 428L633.393 436.485C632.808 437.071 632.808 438.021 633.393 438.607C633.979 439.192 634.929 439.192 635.515 438.607L645.061 429.061ZM368 429.5L644 429.5V426.5L368 426.5V429.5Z" fill="#00153F"/>
<path d="M1152.06 429.061C1152.65 428.475 1152.65 427.525 1152.06 426.939L1142.51 417.393C1141.93 416.808 1140.98 416.808 1140.39 417.393C1139.81 417.979 1139.81 418.929 1140.39 419.515L1148.88 428L1140.39 436.485C1139.81 437.071 1139.81 438.021 1140.39 438.607C1140.98 439.192 1141.93 439.192 1142.51 438.607L1152.06 429.061ZM864.939 426.939C864.354 427.525 864.354 428.475 864.939 429.061L874.485 438.607C875.071 439.192 876.021 439.192 876.607 438.607C877.192 438.021 877.192 437.071 876.607 436.485L868.121 428L876.607 419.515C877.192 418.929 877.192 417.979 876.607 417.393C876.021 416.808 875.071 416.808 874.485 417.393L864.939 426.939ZM1151 426.5L866 426.5V429.5L1151 429.5V426.5Z" fill="#00153F"/>
<path d="M754.939 360.061C755.525 360.646 756.475 360.646 757.061 360.061L766.607 350.515C767.192 349.929 767.192 348.979 766.607 348.393C766.021 347.808 765.071 347.808 764.485 348.393L756 356.879L747.515 348.393C746.929 347.808 745.979 347.808 745.393 348.393C744.808 348.979 744.808 349.929 745.393 350.515L754.939 360.061ZM754.5 331L754.5 359L757.5 359L757.5 331L754.5 331Z" fill="#00153F"/>
<path d="M717.939 706.939C717.354 707.525 717.354 708.475 717.939 709.061L727.485 718.607C728.071 719.192 729.021 719.192 729.607 718.607C730.192 718.021 730.192 717.071 729.607 716.485L721.121 708L729.607 699.515C730.192 698.929 730.192 697.979 729.607 697.393C729.021 696.808 728.071 696.808 727.485 697.393L717.939 706.939ZM745 706.5H719V709.5H745V706.5Z" fill="#00153F"/>
<line x1="743.5" y1="708" x2="743.5" y2="533" stroke="#00153F" stroke-width="3"/>
<path d="M300.061 551.939C299.475 551.354 298.525 551.354 297.939 551.939L288.393 561.485C287.808 562.071 287.808 563.021 288.393 563.607C288.979 564.192 289.929 564.192 290.515 563.607L299 555.121L307.485 563.607C308.071 564.192 309.021 564.192 309.607 563.607C310.192 563.021 310.192 562.071 309.607 561.485L300.061 551.939ZM300.5 708L300.5 553L297.5 553L297.5 708L300.5 708Z" fill="#00153F"/>
<line x1="299" y1="706.5" x2="324" y2="706.5" stroke="#00153F" stroke-width="3"/>
<path d="M779.061 531.939C778.475 531.354 777.525 531.354 776.939 531.939L767.393 541.485C766.808 542.071 766.808 543.021 767.393 543.607C767.979 544.192 768.929 544.192 769.515 543.607L778 535.121L786.485 543.607C787.071 544.192 788.021 544.192 788.607 543.607C789.192 543.021 789.192 542.071 788.607 541.485L779.061 531.939ZM779.5 708L779.5 533L776.5 533L776.5 708L779.5 708Z" fill="#00153F"/>
<path d="M1152.06 707.561C1152.65 706.975 1152.65 706.025 1152.06 705.439L1142.51 695.893C1141.93 695.308 1140.98 695.308 1140.39 695.893C1139.81 696.479 1139.81 697.429 1140.39 698.015L1148.88 706.5L1140.39 714.985C1139.81 715.571 1139.81 716.521 1140.39 717.107C1140.98 717.692 1141.93 717.692 1142.51 717.107L1152.06 707.561ZM777 708L1151 708L1151 705L777 705L777 708Z" fill="#00153F"/>
<path d="M294.5 416.181C303.82 416.181 311.375 408.626 311.375 399.306C311.375 389.986 303.82 382.431 294.5 382.431C285.18 382.431 277.625 389.986 277.625 399.306C277.625 408.626 285.18 416.181 294.5 416.181Z" stroke="#3071E7" stroke-width="4" stroke-linecap="round" stroke-linejoin="round"/>
<path d="M252.312 474.569C252.312 463.38 256.757 452.649 264.669 444.738C272.581 436.826 283.311 432.381 294.5 432.381C305.689 432.381 316.419 436.826 324.331 444.738C332.243 452.649 336.688 463.38 336.688 474.569" stroke="#3071E7" stroke-width="4" stroke-linecap="round" stroke-linejoin="round"/>
<path d="M227.631 486.635H237.973V501H235.209V489.193H230.404V501H227.631V486.635ZM245.951 490.102C246.954 490.102 247.895 490.352 248.773 490.854C249.659 491.355 250.349 492.035 250.844 492.895C251.339 493.754 251.586 494.682 251.586 495.678C251.586 496.68 251.335 497.618 250.834 498.49C250.339 499.363 249.662 500.046 248.803 500.541C247.943 501.029 246.996 501.273 245.961 501.273C244.438 501.273 243.135 500.733 242.055 499.652C240.98 498.565 240.443 497.247 240.443 495.697C240.443 494.037 241.052 492.654 242.27 491.547C243.337 490.583 244.564 490.102 245.951 490.102ZM245.99 492.611C245.163 492.611 244.473 492.901 243.92 493.48C243.373 494.053 243.1 494.789 243.1 495.688C243.1 496.612 243.37 497.361 243.91 497.934C244.457 498.507 245.147 498.793 245.98 498.793C246.814 498.793 247.507 498.503 248.061 497.924C248.614 497.344 248.891 496.599 248.891 495.688C248.891 494.776 248.617 494.037 248.07 493.471C247.53 492.898 246.837 492.611 245.99 492.611ZM263.266 501H260.551L257.895 494.291L255.189 501H252.484L257.016 490.375H258.734L263.266 501ZM267.338 494.203H268.129C269.242 494.203 270.095 494.291 270.688 494.467C271.286 494.636 271.791 494.994 272.201 495.541C272.611 496.088 272.816 496.775 272.816 497.602C272.816 498.422 272.631 499.105 272.26 499.652C271.889 500.193 271.413 500.554 270.834 500.736C270.261 500.912 269.454 501 268.412 501H264.662V490.375H267.338V494.203ZM267.338 498.949H268.148C268.63 498.949 268.979 498.917 269.193 498.852C269.408 498.78 269.597 498.646 269.76 498.451C269.923 498.256 270.004 498.018 270.004 497.738C270.004 496.827 269.483 496.371 268.441 496.371H267.338V498.949ZM276.645 496.498V494.594H277.172C277.53 494.594 277.842 494.509 278.109 494.34C278.376 494.171 278.51 493.897 278.51 493.52C278.51 493.194 278.389 492.927 278.148 492.719C277.914 492.504 277.624 492.396 277.279 492.396C276.843 492.396 276.296 492.608 275.639 493.031L274.584 491.195C275.502 490.466 276.524 490.102 277.65 490.102C278.686 490.102 279.542 490.372 280.219 490.912C280.902 491.446 281.244 492.169 281.244 493.08C281.244 494.005 280.749 494.753 279.76 495.326C281.081 495.814 281.742 496.697 281.742 497.973C281.742 498.923 281.371 499.711 280.629 500.336C279.887 500.961 278.861 501.273 277.553 501.273C276.114 501.273 274.926 500.87 273.988 500.062L275.463 498.207C276.094 498.676 276.693 498.91 277.26 498.91C277.715 498.91 278.077 498.803 278.344 498.588C278.611 498.367 278.744 498.083 278.744 497.738C278.744 497.406 278.617 497.117 278.363 496.869C278.116 496.622 277.774 496.498 277.338 496.498H276.645ZM288.861 490.102C289.864 490.102 290.805 490.352 291.684 490.854C292.569 491.355 293.259 492.035 293.754 492.895C294.249 493.754 294.496 494.682 294.496 495.678C294.496 496.68 294.245 497.618 293.744 498.49C293.249 499.363 292.572 500.046 291.713 500.541C290.854 501.029 289.906 501.273 288.871 501.273C287.348 501.273 286.046 500.733 284.965 499.652C283.891 498.565 283.354 497.247 283.354 495.697C283.354 494.037 283.962 492.654 285.18 491.547C286.247 490.583 287.475 490.102 288.861 490.102ZM288.9 492.611C288.074 492.611 287.383 492.901 286.83 493.48C286.283 494.053 286.01 494.789 286.01 495.688C286.01 496.612 286.28 497.361 286.82 497.934C287.367 498.507 288.057 498.793 288.891 498.793C289.724 498.793 290.417 498.503 290.971 497.924C291.524 497.344 291.801 496.599 291.801 495.688C291.801 494.776 291.527 494.037 290.98 493.471C290.44 492.898 289.747 492.611 288.9 492.611ZM296.684 501V490.375H300.951C302.351 490.375 303.301 490.652 303.803 491.205C304.304 491.752 304.555 492.374 304.555 493.07C304.555 494.105 304.04 494.851 303.012 495.307C304.418 495.788 305.121 496.697 305.121 498.031C305.121 498.754 304.936 499.353 304.564 499.828C304.193 500.297 303.721 500.609 303.148 500.766C302.582 500.922 301.788 501 300.766 501H296.684ZM299.359 494.555H300.385C300.821 494.555 301.156 494.447 301.391 494.232C301.632 494.011 301.752 493.767 301.752 493.5C301.752 493.103 301.638 492.794 301.41 492.572C301.182 492.351 300.912 492.24 300.6 492.24L300.258 492.25H299.359V494.555ZM299.359 498.949H300.697C301.218 498.949 301.583 498.829 301.791 498.588C302.006 498.34 302.113 498.1 302.113 497.865C302.113 497.52 301.993 497.204 301.752 496.918C301.518 496.632 301.091 496.488 300.473 496.488H299.359V498.949ZM315.238 490.375H317.895V501H315.238V499.877C314.717 500.372 314.193 500.73 313.666 500.951C313.145 501.166 312.579 501.273 311.967 501.273C310.593 501.273 309.405 500.743 308.402 499.682C307.4 498.614 306.898 497.289 306.898 495.707C306.898 494.066 307.383 492.722 308.354 491.674C309.324 490.626 310.502 490.102 311.889 490.102C312.527 490.102 313.126 490.222 313.686 490.463C314.245 490.704 314.763 491.065 315.238 491.547V490.375ZM312.436 492.562C311.609 492.562 310.922 492.855 310.375 493.441C309.828 494.021 309.555 494.766 309.555 495.678C309.555 496.596 309.831 497.351 310.385 497.943C310.945 498.536 311.632 498.832 312.445 498.832C313.285 498.832 313.982 498.542 314.535 497.963C315.089 497.377 315.365 496.612 315.365 495.668C315.365 494.743 315.089 493.995 314.535 493.422C313.982 492.849 313.282 492.562 312.436 492.562ZM319.643 490.375H329.545V492.914H326.02V501H323.344V492.914H319.643V490.375ZM341.938 496.459H333.373C333.497 497.214 333.826 497.816 334.359 498.266C334.9 498.708 335.587 498.93 336.42 498.93C337.416 498.93 338.272 498.581 338.988 497.885L341.234 498.939C340.674 499.734 340.004 500.323 339.223 500.707C338.441 501.085 337.514 501.273 336.439 501.273C334.773 501.273 333.415 500.749 332.367 499.701C331.319 498.646 330.795 497.328 330.795 495.746C330.795 494.125 331.316 492.781 332.357 491.713C333.406 490.639 334.717 490.102 336.293 490.102C337.966 490.102 339.327 490.639 340.375 491.713C341.423 492.781 341.947 494.193 341.947 495.951L341.938 496.459ZM339.262 494.359C339.086 493.767 338.738 493.285 338.217 492.914C337.702 492.543 337.104 492.357 336.42 492.357C335.678 492.357 335.027 492.566 334.467 492.982C334.115 493.243 333.79 493.702 333.49 494.359H339.262ZM353.598 501H350.883L348.227 494.291L345.521 501H342.816L347.348 490.375H349.066L353.598 501ZM357.67 494.203H358.461C359.574 494.203 360.427 494.291 361.02 494.467C361.618 494.636 362.123 494.994 362.533 495.541C362.943 496.088 363.148 496.775 363.148 497.602C363.148 498.422 362.963 499.105 362.592 499.652C362.221 500.193 361.745 500.554 361.166 500.736C360.593 500.912 359.786 501 358.744 501H354.994V490.375H357.67V494.203ZM357.67 498.949H358.48C358.962 498.949 359.311 498.917 359.525 498.852C359.74 498.78 359.929 498.646 360.092 498.451C360.255 498.256 360.336 498.018 360.336 497.738C360.336 496.827 359.815 496.371 358.773 496.371H357.67V498.949Z" fill="#080C25"/>
<path d="M230.291 375.635H234.383V390H231.668V378.203H228.709L230.291 375.635Z" fill="#CD4E5C"/>
<circle cx="233" cy="382" r="17.5" stroke="#CD4E5C" stroke-width="3"/>
<rect x="709.913" y="383.993" width="99.0604" height="64.3164" rx="3.5" stroke="#3071E7" stroke-width="3"/>
<path d="M718.93 456.564C719.69 455.669 720.806 455.152 721.98 455.152H797.102C798.36 455.152 799.546 455.745 800.301 456.751L812.354 472.809C814.333 475.446 812.452 479.21 809.155 479.21H708.355C704.947 479.21 703.1 475.221 705.305 472.622L718.93 456.564Z" fill="#3071E7" stroke="#3071E7" stroke-width="2"/>
<path d="M711.245 451.016C711.898 450.067 712.977 449.5 714.128 449.5H802.255C803.452 449.5 804.566 450.111 805.208 451.121L823.344 479.621C824.827 481.951 823.153 485 820.392 485H694.512C691.693 485 690.03 481.838 691.628 479.516L711.245 451.016Z" stroke="#3071E7" stroke-width="3"/>
<path d="M741.433 434.971C741.433 436.617 740.098 437.952 738.452 437.952C736.806 437.952 735.471 436.617 735.471 434.971C735.471 433.324 736.806 431.99 738.452 431.99C740.098 431.99 741.433 433.324 741.433 434.971Z" stroke="#3071E7" stroke-width="2"/>
<circle cx="757.03" cy="434.971" r="2.98108" stroke="#3071E7" stroke-width="2"/>
<circle cx="778.263" cy="434.971" r="2.98108" stroke="#3071E7" stroke-width="2"/>
<path d="M744.087 395.16C744.087 396.806 742.752 398.141 741.106 398.141C739.46 398.141 738.125 396.806 738.125 395.16C738.125 393.513 739.46 392.179 741.106 392.179C742.752 392.179 744.087 393.513 744.087 395.16Z" stroke="#3071E7" stroke-width="2"/>
<path d="M781.244 400.468C781.244 402.114 779.909 403.449 778.263 403.449C776.616 403.449 775.282 402.114 775.282 400.468C775.282 398.821 776.616 397.487 778.263 397.487C779.909 397.487 781.244 398.821 781.244 400.468Z" stroke="#3071E7" stroke-width="2"/>
<path d="M746.741 417.719C746.741 420.099 744.812 422.027 742.433 422.027C740.054 422.027 738.125 420.099 738.125 417.719C738.125 415.34 740.054 413.411 742.433 413.411C744.812 413.411 746.741 415.34 746.741 417.719Z" stroke="#3071E7" stroke-width="2"/>
<path d="M775.936 423.027C775.936 425.407 774.007 427.335 771.628 427.335C769.248 427.335 767.32 425.407 767.32 423.027C767.32 420.648 769.248 418.719 771.628 418.719C774.007 418.719 775.936 420.648 775.936 423.027Z" stroke="#3071E7" stroke-width="2"/>
<path d="M765.32 407.103C765.32 410.948 762.203 414.065 758.357 414.065C754.512 414.065 751.395 410.948 751.395 407.103C751.395 403.258 754.512 400.141 758.357 400.141C762.203 400.141 765.32 403.258 765.32 407.103Z" stroke="#3071E7" stroke-width="2"/>
<path d="M775.609 400.468L763.666 403.122M762.338 412.411L768.974 419.046M774.282 427.008L776.936 432.317M759.684 433.644L767.647 425.681M738.452 432.317L741.106 421.7M745.087 421.7L754.376 432.317M741.106 397.814L742.433 413.738M746.414 415.065L751.722 411.084M743.76 396.487L753.049 401.795" stroke="#3071E7" stroke-width="2" stroke-linecap="round"/>
<path d="M680.631 499.635H683.404V505.055H688.209V499.635H690.973V514H688.209V507.701H683.404V514H680.631V499.635ZM701.812 503.375H704.469V514H701.812V512.877C701.292 513.372 700.768 513.73 700.24 513.951C699.719 514.166 699.153 514.273 698.541 514.273C697.167 514.273 695.979 513.743 694.977 512.682C693.974 511.614 693.473 510.289 693.473 508.707C693.473 507.066 693.958 505.722 694.928 504.674C695.898 503.626 697.076 503.102 698.463 503.102C699.101 503.102 699.7 503.222 700.26 503.463C700.82 503.704 701.337 504.065 701.812 504.547V503.375ZM699.01 505.562C698.183 505.562 697.496 505.855 696.949 506.441C696.402 507.021 696.129 507.766 696.129 508.678C696.129 509.596 696.406 510.351 696.959 510.943C697.519 511.536 698.206 511.832 699.02 511.832C699.859 511.832 700.556 511.542 701.109 510.963C701.663 510.377 701.939 509.612 701.939 508.668C701.939 507.743 701.663 506.995 701.109 506.422C700.556 505.849 699.856 505.562 699.01 505.562ZM722.486 514H707.154V503.375H709.83V511.441H713.482V503.375H716.158V511.441H719.82V503.375H722.486V514ZM733.043 503.375H735.699V514H733.043V512.877C732.522 513.372 731.998 513.73 731.471 513.951C730.95 514.166 730.383 514.273 729.771 514.273C728.398 514.273 727.21 513.743 726.207 512.682C725.204 511.614 724.703 510.289 724.703 508.707C724.703 507.066 725.188 505.722 726.158 504.674C727.128 503.626 728.307 503.102 729.693 503.102C730.331 503.102 730.93 503.222 731.49 503.463C732.05 503.704 732.568 504.065 733.043 504.547V503.375ZM730.24 505.562C729.413 505.562 728.727 505.855 728.18 506.441C727.633 507.021 727.359 507.766 727.359 508.678C727.359 509.596 727.636 510.351 728.189 510.943C728.749 511.536 729.436 511.832 730.25 511.832C731.09 511.832 731.786 511.542 732.34 510.963C732.893 510.377 733.17 509.612 733.17 508.668C733.17 507.743 732.893 506.995 732.34 506.422C731.786 505.849 731.087 505.562 730.24 505.562ZM754.4 505.523L752.184 506.744C751.767 506.308 751.354 506.005 750.943 505.836C750.54 505.667 750.064 505.582 749.518 505.582C748.521 505.582 747.714 505.882 747.096 506.48C746.484 507.073 746.178 507.835 746.178 508.766C746.178 509.671 746.474 510.41 747.066 510.982C747.659 511.555 748.437 511.842 749.4 511.842C750.592 511.842 751.52 511.435 752.184 510.621L754.283 512.057C753.144 513.535 751.536 514.273 749.459 514.273C747.59 514.273 746.126 513.72 745.064 512.613C744.01 511.507 743.482 510.211 743.482 508.727C743.482 507.698 743.74 506.751 744.254 505.885C744.768 505.019 745.484 504.339 746.402 503.844C747.327 503.349 748.359 503.102 749.498 503.102C750.553 503.102 751.5 503.313 752.34 503.736C753.18 504.153 753.867 504.749 754.4 505.523ZM758.219 514H756.803V503.375H759.4V509.615L764.84 503.375H766.119V514H763.521V507.887L758.219 514ZM779.225 505.523L777.008 506.744C776.591 506.308 776.178 506.005 775.768 505.836C775.364 505.667 774.889 505.582 774.342 505.582C773.346 505.582 772.538 505.882 771.92 506.48C771.308 507.073 771.002 507.835 771.002 508.766C771.002 509.671 771.298 510.41 771.891 510.982C772.483 511.555 773.261 511.842 774.225 511.842C775.416 511.842 776.344 511.435 777.008 510.621L779.107 512.057C777.968 513.535 776.36 514.273 774.283 514.273C772.415 514.273 770.95 513.72 769.889 512.613C768.834 511.507 768.307 510.211 768.307 508.727C768.307 507.698 768.564 506.751 769.078 505.885C769.592 505.019 770.309 504.339 771.227 503.844C772.151 503.349 773.183 503.102 774.322 503.102C775.377 503.102 776.324 503.313 777.164 503.736C778.004 504.153 778.691 504.749 779.225 505.523ZM780.689 503.375H790.592V505.914H787.066V514H784.391V505.914H780.689V503.375ZM802.984 509.459H794.42C794.544 510.214 794.872 510.816 795.406 511.266C795.947 511.708 796.633 511.93 797.467 511.93C798.463 511.93 799.319 511.581 800.035 510.885L802.281 511.939C801.721 512.734 801.051 513.323 800.27 513.707C799.488 514.085 798.561 514.273 797.486 514.273C795.82 514.273 794.462 513.749 793.414 512.701C792.366 511.646 791.842 510.328 791.842 508.746C791.842 507.125 792.363 505.781 793.404 504.713C794.452 503.639 795.764 503.102 797.34 503.102C799.013 503.102 800.374 503.639 801.422 504.713C802.47 505.781 802.994 507.193 802.994 508.951L802.984 509.459ZM800.309 507.359C800.133 506.767 799.785 506.285 799.264 505.914C798.749 505.543 798.15 505.357 797.467 505.357C796.725 505.357 796.074 505.566 795.514 505.982C795.162 506.243 794.837 506.702 794.537 507.359H800.309ZM811.656 510.074L814.918 503.375H816.676L819.332 514H816.725L815.309 507.77L812.145 514H811.051L807.955 507.77L806.529 514H803.932L806.588 503.375H808.346L811.656 510.074ZM828.668 503.375H831.324V514H828.668V512.877C828.147 513.372 827.623 513.73 827.096 513.951C826.575 514.166 826.008 514.273 825.396 514.273C824.023 514.273 822.835 513.743 821.832 512.682C820.829 511.614 820.328 510.289 820.328 508.707C820.328 507.066 820.813 505.722 821.783 504.674C822.753 503.626 823.932 503.102 825.318 503.102C825.956 503.102 826.555 503.222 827.115 503.463C827.675 503.704 828.193 504.065 828.668 504.547V503.375ZM825.865 505.562C825.038 505.562 824.352 505.855 823.805 506.441C823.258 507.021 822.984 507.766 822.984 508.678C822.984 509.596 823.261 510.351 823.814 510.943C824.374 511.536 825.061 511.832 825.875 511.832C826.715 511.832 827.411 511.542 827.965 510.963C828.518 510.377 828.795 509.612 828.795 508.668C828.795 507.743 828.518 506.995 827.965 506.422C827.411 505.849 826.712 505.562 825.865 505.562Z" fill="#080C25"/>
<path d="M677.486 380.264H674.82C674.892 378.714 675.377 377.497 676.275 376.611C677.18 375.719 678.339 375.273 679.752 375.273C680.624 375.273 681.393 375.459 682.057 375.83C682.727 376.195 683.261 376.725 683.658 377.422C684.062 378.112 684.264 378.815 684.264 379.531C684.264 380.384 684.02 381.302 683.531 382.285C683.049 383.268 682.164 384.43 680.875 385.771L679.264 387.471H684.381V390H674.43V388.691L678.873 384.16C679.947 383.073 680.66 382.201 681.012 381.543C681.37 380.879 681.549 380.28 681.549 379.746C681.549 379.193 681.363 378.737 680.992 378.379C680.628 378.014 680.156 377.832 679.576 377.832C678.99 377.832 678.502 378.05 678.111 378.486C677.721 378.923 677.512 379.515 677.486 380.264Z" fill="#CD4E5C"/>
<circle cx="680" cy="382" r="17.5" stroke="#CD4E5C" stroke-width="3"/>
<ellipse cx="1213.94" cy="396.802" rx="5.94305" ry="5.95611" fill="#3071E7"/>
<ellipse cx="1213.94" cy="414.671" rx="5.94305" ry="5.95611" fill="#3071E7"/>
<ellipse cx="1213.94" cy="432.539" rx="5.94305" ry="5.95611" fill="#3071E7"/>
<ellipse cx="1213.94" cy="450.407" rx="5.94305" ry="5.95611" fill="#3071E7"/>
<ellipse cx="1213.94" cy="468.276" rx="5.94305" ry="5.9561" fill="#3071E7"/>
<ellipse cx="1243.66" cy="414.671" rx="5.94305" ry="5.95611" fill="#3071E7"/>
<ellipse cx="1243.66" cy="450.407" rx="5.94305" ry="5.95611" fill="#3071E7"/>
<ellipse cx="1261.49" cy="414.671" rx="5.94305" ry="5.95611" fill="#3071E7"/>
<ellipse cx="1261.49" cy="450.407" rx="5.94305" ry="5.95611" fill="#3071E7"/>
<ellipse cx="1279.32" cy="450.407" rx="5.94305" ry="5.95611" fill="#3071E7"/>
<ellipse cx="1279.32" cy="414.671" rx="5.94305" ry="5.95611" fill="#3071E7"/>
<ellipse cx="1243.66" cy="432.539" rx="5.94305" ry="5.95611" fill="#3071E7"/>
<ellipse cx="1243.66" cy="468.276" rx="5.94305" ry="5.9561" fill="#3071E7"/>
<ellipse cx="1261.49" cy="432.539" rx="5.94305" ry="5.95611" fill="#3071E7"/>
<ellipse cx="1261.49" cy="468.276" rx="5.94305" ry="5.9561" fill="#3071E7"/>
<ellipse cx="1297.15" cy="468.276" rx="5.94305" ry="5.9561" fill="#3071E7"/>
<ellipse cx="1279.32" cy="432.539" rx="5.94305" ry="5.95611" fill="#3071E7"/>
<ellipse cx="1279.32" cy="468.276" rx="5.94305" ry="5.9561" fill="#3071E7"/>
<ellipse cx="1297.15" cy="432.539" rx="5.94305" ry="5.95611" fill="#3071E7"/>
<ellipse cx="1314.97" cy="432.539" rx="5.94305" ry="5.95611" fill="#3071E7"/>
<ellipse cx="1243.66" cy="396.802" rx="5.94305" ry="5.95611" fill="#3071E7"/>
<ellipse cx="1261.49" cy="396.802" rx="5.94305" ry="5.95611" fill="#3071E7"/>
<path d="M1210.97 381.912H1317.95" stroke="#3071E7" stroke-width="2" stroke-linecap="round"/>
<path d="M1228.8 370V471.254" stroke="#3071E7" stroke-width="2" stroke-linecap="round"/>
<path d="M1179.24 480.635V495H1176.51V486.006L1171.14 495H1168.76V480.635H1171.5V489.922L1176.94 480.635H1179.24ZM1192.63 486.523L1190.41 487.744C1190 487.308 1189.58 487.005 1189.17 486.836C1188.77 486.667 1188.29 486.582 1187.75 486.582C1186.75 486.582 1185.94 486.882 1185.32 487.48C1184.71 488.073 1184.41 488.835 1184.41 489.766C1184.41 490.671 1184.7 491.41 1185.29 491.982C1185.89 492.555 1186.67 492.842 1187.63 492.842C1188.82 492.842 1189.75 492.435 1190.41 491.621L1192.51 493.057C1191.37 494.535 1189.76 495.273 1187.69 495.273C1185.82 495.273 1184.35 494.72 1183.29 493.613C1182.24 492.507 1181.71 491.211 1181.71 489.727C1181.71 488.698 1181.97 487.751 1182.48 486.885C1183 486.019 1183.71 485.339 1184.63 484.844C1185.56 484.349 1186.59 484.102 1187.73 484.102C1188.78 484.102 1189.73 484.313 1190.57 484.736C1191.41 485.153 1192.1 485.749 1192.63 486.523ZM1194.09 484.375H1204V486.914H1200.47V495H1197.79V486.914H1194.09V484.375ZM1210.73 484.102C1211.74 484.102 1212.68 484.352 1213.56 484.854C1214.44 485.355 1215.13 486.035 1215.63 486.895C1216.12 487.754 1216.37 488.682 1216.37 489.678C1216.37 490.68 1216.12 491.618 1215.62 492.49C1215.12 493.363 1214.45 494.046 1213.59 494.541C1212.73 495.029 1211.78 495.273 1210.74 495.273C1209.22 495.273 1207.92 494.733 1206.84 493.652C1205.76 492.565 1205.23 491.247 1205.23 489.697C1205.23 488.037 1205.84 486.654 1207.05 485.547C1208.12 484.583 1209.35 484.102 1210.73 484.102ZM1210.77 486.611C1209.95 486.611 1209.26 486.901 1208.7 487.48C1208.16 488.053 1207.88 488.789 1207.88 489.688C1207.88 490.612 1208.15 491.361 1208.69 491.934C1209.24 492.507 1209.93 492.793 1210.76 492.793C1211.6 492.793 1212.29 492.503 1212.84 491.924C1213.4 491.344 1213.67 490.599 1213.67 489.688C1213.67 488.776 1213.4 488.037 1212.85 487.471C1212.31 486.898 1211.62 486.611 1210.77 486.611ZM1221.2 484.375V485.547C1221.68 485.065 1222.21 484.704 1222.77 484.463C1223.33 484.222 1223.92 484.102 1224.56 484.102C1225.95 484.102 1227.13 484.626 1228.1 485.674C1229.07 486.722 1229.55 488.066 1229.55 489.707C1229.55 491.289 1229.05 492.614 1228.05 493.682C1227.05 494.743 1225.86 495.273 1224.48 495.273C1223.87 495.273 1223.3 495.166 1222.78 494.951C1222.25 494.73 1221.72 494.372 1221.2 493.877V498.887H1218.56V484.375H1221.2ZM1224.01 486.562C1223.17 486.562 1222.47 486.849 1221.92 487.422C1221.36 487.995 1221.09 488.743 1221.09 489.668C1221.09 490.612 1221.36 491.377 1221.92 491.963C1222.47 492.542 1223.17 492.832 1224.01 492.832C1224.82 492.832 1225.5 492.536 1226.06 491.943C1226.62 491.351 1226.9 490.596 1226.9 489.678C1226.9 488.766 1226.62 488.021 1226.08 487.441C1225.53 486.855 1224.84 486.562 1224.01 486.562ZM1233.17 495H1231.75V484.375H1234.35V490.615L1239.79 484.375H1241.07V495H1238.47V488.887L1233.17 495ZM1245.58 490.645C1245.01 490.456 1244.53 490.101 1244.16 489.58C1243.8 489.053 1243.62 488.46 1243.62 487.803C1243.62 487.015 1243.84 486.325 1244.29 485.732C1244.74 485.14 1245.27 484.766 1245.89 484.609C1246.52 484.453 1247.49 484.375 1248.81 484.375H1251.51V495H1248.83V491.152H1248.31L1245.78 495H1242.63L1245.58 490.645ZM1248.83 489.15V486.602H1247.9C1246.89 486.602 1246.39 487.025 1246.39 487.871C1246.39 488.724 1246.95 489.15 1248.08 489.15H1248.83ZM1269.96 480.049V482.568C1269.2 482.653 1268.46 482.699 1267.75 482.705C1266.44 482.718 1265.46 482.777 1264.81 482.881C1264.15 482.979 1263.57 483.213 1263.07 483.584C1262.57 483.949 1262.21 484.372 1262 484.854C1261.8 485.329 1261.67 486.016 1261.62 486.914C1262.39 485.072 1263.71 484.15 1265.58 484.15C1266.95 484.15 1268.14 484.655 1269.14 485.664C1270.15 486.667 1270.66 487.962 1270.66 489.551C1270.66 491.191 1270.12 492.555 1269.04 493.643C1267.95 494.73 1266.62 495.273 1265.03 495.273C1263.74 495.273 1262.59 494.876 1261.6 494.082C1260.62 493.288 1259.99 492.344 1259.71 491.25C1259.43 490.15 1259.29 488.978 1259.29 487.734C1259.29 486.139 1259.49 484.844 1259.88 483.848C1260.28 482.845 1260.8 482.093 1261.45 481.592C1262.1 481.09 1262.85 480.755 1263.7 480.586C1264.56 480.417 1265.81 480.296 1267.46 480.225C1268.58 480.173 1269.42 480.114 1269.96 480.049ZM1267.96 489.688C1267.96 488.802 1267.69 488.07 1267.16 487.49C1266.63 486.904 1265.93 486.611 1265.06 486.611C1264.23 486.611 1263.54 486.904 1262.99 487.49C1262.44 488.076 1262.17 488.809 1262.17 489.688C1262.17 490.612 1262.44 491.361 1262.98 491.934C1263.53 492.5 1264.22 492.783 1265.05 492.783C1265.87 492.783 1266.56 492.5 1267.12 491.934C1267.68 491.361 1267.96 490.612 1267.96 489.688ZM1277.84 484.102C1278.85 484.102 1279.79 484.352 1280.67 484.854C1281.55 485.355 1282.24 486.035 1282.74 486.895C1283.23 487.754 1283.48 488.682 1283.48 489.678C1283.48 490.68 1283.23 491.618 1282.73 492.49C1282.23 493.363 1281.55 494.046 1280.7 494.541C1279.84 495.029 1278.89 495.273 1277.85 495.273C1276.33 495.273 1275.03 494.733 1273.95 493.652C1272.87 492.565 1272.34 491.247 1272.34 489.697C1272.34 488.037 1272.94 486.654 1274.16 485.547C1275.23 484.583 1276.46 484.102 1277.84 484.102ZM1277.88 486.611C1277.06 486.611 1276.37 486.901 1275.81 487.48C1275.27 488.053 1274.99 488.789 1274.99 489.688C1274.99 490.612 1275.26 491.361 1275.8 491.934C1276.35 492.507 1277.04 492.793 1277.87 492.793C1278.71 492.793 1279.4 492.503 1279.95 491.924C1280.51 491.344 1280.78 490.599 1280.78 489.688C1280.78 488.776 1280.51 488.037 1279.96 487.471C1279.42 486.898 1278.73 486.611 1277.88 486.611ZM1295.16 495H1292.44L1289.79 488.291L1287.08 495H1284.38L1288.91 484.375H1290.63L1295.16 495ZM1307.21 490.459H1298.64C1298.77 491.214 1299.1 491.816 1299.63 492.266C1300.17 492.708 1300.86 492.93 1301.69 492.93C1302.69 492.93 1303.54 492.581 1304.26 491.885L1306.51 492.939C1305.95 493.734 1305.28 494.323 1304.49 494.707C1303.71 495.085 1302.79 495.273 1301.71 495.273C1300.04 495.273 1298.69 494.749 1297.64 493.701C1296.59 492.646 1296.07 491.328 1296.07 489.746C1296.07 488.125 1296.59 486.781 1297.63 485.713C1298.68 484.639 1299.99 484.102 1301.56 484.102C1303.24 484.102 1304.6 484.639 1305.65 485.713C1306.69 486.781 1307.22 488.193 1307.22 489.951L1307.21 490.459ZM1304.53 488.359C1304.36 487.767 1304.01 487.285 1303.49 486.914C1302.97 486.543 1302.38 486.357 1301.69 486.357C1300.95 486.357 1300.3 486.566 1299.74 486.982C1299.39 487.243 1299.06 487.702 1298.76 488.359H1304.53ZM1311.15 490.498V488.594H1311.68C1312.04 488.594 1312.35 488.509 1312.62 488.34C1312.89 488.171 1313.02 487.897 1313.02 487.52C1313.02 487.194 1312.9 486.927 1312.66 486.719C1312.42 486.504 1312.13 486.396 1311.79 486.396C1311.35 486.396 1310.81 486.608 1310.15 487.031L1309.09 485.195C1310.01 484.466 1311.03 484.102 1312.16 484.102C1313.2 484.102 1314.05 484.372 1314.73 484.912C1315.41 485.446 1315.75 486.169 1315.75 487.08C1315.75 488.005 1315.26 488.753 1314.27 489.326C1315.59 489.814 1316.25 490.697 1316.25 491.973C1316.25 492.923 1315.88 493.711 1315.14 494.336C1314.4 494.961 1313.37 495.273 1312.06 495.273C1310.62 495.273 1309.44 494.87 1308.5 494.062L1309.97 492.207C1310.6 492.676 1311.2 492.91 1311.77 492.91C1312.23 492.91 1312.59 492.803 1312.85 492.588C1313.12 492.367 1313.25 492.083 1313.25 491.738C1313.25 491.406 1313.13 491.117 1312.87 490.869C1312.63 490.622 1312.28 490.498 1311.85 490.498H1311.15ZM1321.05 488.203H1325.01V484.375H1327.69V495H1325.01V490.596H1321.05V495H1318.37V484.375H1321.05V488.203ZM1341.04 490.459H1332.47C1332.6 491.214 1332.93 491.816 1333.46 492.266C1334 492.708 1334.69 492.93 1335.52 492.93C1336.52 492.93 1337.37 492.581 1338.09 491.885L1340.33 492.939C1339.77 493.734 1339.1 494.323 1338.32 494.707C1337.54 495.085 1336.61 495.273 1335.54 495.273C1333.87 495.273 1332.51 494.749 1331.47 493.701C1330.42 492.646 1329.89 491.328 1329.89 489.746C1329.89 488.125 1330.42 486.781 1331.46 485.713C1332.51 484.639 1333.82 484.102 1335.39 484.102C1337.07 484.102 1338.43 484.639 1339.47 485.713C1340.52 486.781 1341.05 488.193 1341.05 489.951L1341.04 490.459ZM1338.36 488.359C1338.19 487.767 1337.84 487.285 1337.32 486.914C1336.8 486.543 1336.2 486.357 1335.52 486.357C1334.78 486.357 1334.13 486.566 1333.57 486.982C1333.21 487.243 1332.89 487.702 1332.59 488.359H1338.36ZM1344.61 495H1343.2V484.375H1345.79V490.615L1351.23 484.375H1352.51V495H1349.91V488.887L1344.61 495ZM1343.98 479.688H1346.13C1346.3 479.954 1346.54 480.156 1346.84 480.293C1347.14 480.423 1347.51 480.488 1347.95 480.488C1348.39 480.488 1348.79 480.41 1349.15 480.254C1349.39 480.15 1349.59 479.961 1349.77 479.688H1351.93C1351.8 480.514 1351.4 481.178 1350.73 481.68C1350.07 482.181 1349.14 482.432 1347.94 482.432C1347.13 482.432 1346.46 482.321 1345.91 482.1C1345.37 481.872 1344.93 481.549 1344.6 481.133C1344.27 480.716 1344.06 480.234 1343.98 479.688ZM1196.27 517H1193.6V506.375H1202.91V517H1200.24V508.943H1196.27V517ZM1210.61 506.102C1211.61 506.102 1212.55 506.352 1213.43 506.854C1214.32 507.355 1215.01 508.035 1215.5 508.895C1215.99 509.754 1216.24 510.682 1216.24 511.678C1216.24 512.68 1215.99 513.618 1215.49 514.49C1215 515.363 1214.32 516.046 1213.46 516.541C1212.6 517.029 1211.65 517.273 1210.62 517.273C1209.09 517.273 1207.79 516.733 1206.71 515.652C1205.64 514.565 1205.1 513.247 1205.1 511.697C1205.1 510.037 1205.71 508.654 1206.93 507.547C1207.99 506.583 1209.22 506.102 1210.61 506.102ZM1210.65 508.611C1209.82 508.611 1209.13 508.901 1208.58 509.48C1208.03 510.053 1207.76 510.789 1207.76 511.688C1207.76 512.612 1208.03 513.361 1208.57 513.934C1209.11 514.507 1209.8 514.793 1210.64 514.793C1211.47 514.793 1212.16 514.503 1212.72 513.924C1213.27 513.344 1213.55 512.599 1213.55 511.688C1213.55 510.776 1213.27 510.037 1212.73 509.471C1212.19 508.898 1211.49 508.611 1210.65 508.611ZM1227.92 517H1225.21L1222.55 510.291L1219.85 517H1217.14L1221.67 506.375H1223.39L1227.92 517ZM1231.99 510.203H1232.79C1233.9 510.203 1234.75 510.291 1235.34 510.467C1235.94 510.636 1236.45 510.994 1236.86 511.541C1237.27 512.088 1237.47 512.775 1237.47 513.602C1237.47 514.422 1237.29 515.105 1236.92 515.652C1236.54 516.193 1236.07 516.554 1235.49 516.736C1234.92 516.912 1234.11 517 1233.07 517H1229.32V506.375H1231.99V510.203ZM1231.99 514.949H1232.8C1233.29 514.949 1233.63 514.917 1233.85 514.852C1234.06 514.78 1234.25 514.646 1234.42 514.451C1234.58 514.256 1234.66 514.018 1234.66 513.738C1234.66 512.827 1234.14 512.371 1233.1 512.371H1231.99V514.949ZM1241.3 512.498V510.594H1241.83C1242.19 510.594 1242.5 510.509 1242.77 510.34C1243.03 510.171 1243.17 509.897 1243.17 509.52C1243.17 509.194 1243.05 508.927 1242.8 508.719C1242.57 508.504 1242.28 508.396 1241.94 508.396C1241.5 508.396 1240.95 508.608 1240.29 509.031L1239.24 507.195C1240.16 506.466 1241.18 506.102 1242.31 506.102C1243.34 506.102 1244.2 506.372 1244.88 506.912C1245.56 507.446 1245.9 508.169 1245.9 509.08C1245.9 510.005 1245.41 510.753 1244.42 511.326C1245.74 511.814 1246.4 512.697 1246.4 513.973C1246.4 514.923 1246.03 515.711 1245.29 516.336C1244.54 516.961 1243.52 517.273 1242.21 517.273C1240.77 517.273 1239.58 516.87 1238.64 516.062L1240.12 514.207C1240.75 514.676 1241.35 514.91 1241.92 514.91C1242.37 514.91 1242.73 514.803 1243 514.588C1243.27 514.367 1243.4 514.083 1243.4 513.738C1243.4 513.406 1243.27 513.117 1243.02 512.869C1242.77 512.622 1242.43 512.498 1241.99 512.498H1241.3ZM1253.52 506.102C1254.52 506.102 1255.46 506.352 1256.34 506.854C1257.23 507.355 1257.92 508.035 1258.41 508.895C1258.9 509.754 1259.15 510.682 1259.15 511.678C1259.15 512.68 1258.9 513.618 1258.4 514.49C1257.91 515.363 1257.23 516.046 1256.37 516.541C1255.51 517.029 1254.56 517.273 1253.53 517.273C1252 517.273 1250.7 516.733 1249.62 515.652C1248.55 514.565 1248.01 513.247 1248.01 511.697C1248.01 510.037 1248.62 508.654 1249.84 507.547C1250.9 506.583 1252.13 506.102 1253.52 506.102ZM1253.56 508.611C1252.73 508.611 1252.04 508.901 1251.49 509.48C1250.94 510.053 1250.67 510.789 1250.67 511.688C1250.67 512.612 1250.94 513.361 1251.48 513.934C1252.02 514.507 1252.71 514.793 1253.55 514.793C1254.38 514.793 1255.07 514.503 1255.63 513.924C1256.18 513.344 1256.46 512.599 1256.46 511.688C1256.46 510.776 1256.18 510.037 1255.64 509.471C1255.1 508.898 1254.4 508.611 1253.56 508.611ZM1261.34 517V506.375H1265.61C1267.01 506.375 1267.96 506.652 1268.46 507.205C1268.96 507.752 1269.21 508.374 1269.21 509.07C1269.21 510.105 1268.7 510.851 1267.67 511.307C1269.07 511.788 1269.78 512.697 1269.78 514.031C1269.78 514.754 1269.59 515.353 1269.22 515.828C1268.85 516.297 1268.38 516.609 1267.8 516.766C1267.24 516.922 1266.44 517 1265.42 517H1261.34ZM1264.02 510.555H1265.04C1265.48 510.555 1265.81 510.447 1266.05 510.232C1266.29 510.011 1266.41 509.767 1266.41 509.5C1266.41 509.103 1266.29 508.794 1266.07 508.572C1265.84 508.351 1265.57 508.24 1265.26 508.24L1264.91 508.25H1264.02V510.555ZM1264.02 514.949H1265.35C1265.87 514.949 1266.24 514.829 1266.45 514.588C1266.66 514.34 1266.77 514.1 1266.77 513.865C1266.77 513.52 1266.65 513.204 1266.41 512.918C1266.17 512.632 1265.75 512.488 1265.13 512.488H1264.02V514.949ZM1279.89 506.375H1282.55V517H1279.89V515.877C1279.37 516.372 1278.85 516.73 1278.32 516.951C1277.8 517.166 1277.24 517.273 1276.62 517.273C1275.25 517.273 1274.06 516.743 1273.06 515.682C1272.06 514.614 1271.55 513.289 1271.55 511.707C1271.55 510.066 1272.04 508.722 1273.01 507.674C1273.98 506.626 1275.16 506.102 1276.54 506.102C1277.18 506.102 1277.78 506.222 1278.34 506.463C1278.9 506.704 1279.42 507.065 1279.89 507.547V506.375ZM1277.09 508.562C1276.26 508.562 1275.58 508.855 1275.03 509.441C1274.48 510.021 1274.21 510.766 1274.21 511.678C1274.21 512.596 1274.49 513.351 1275.04 513.943C1275.6 514.536 1276.29 514.832 1277.1 514.832C1277.94 514.832 1278.64 514.542 1279.19 513.963C1279.74 513.377 1280.02 512.612 1280.02 511.668C1280.02 510.743 1279.74 509.995 1279.19 509.422C1278.64 508.849 1277.94 508.562 1277.09 508.562ZM1284.3 506.375H1294.2V508.914H1290.68V517H1288V508.914H1284.3V506.375ZM1306.59 512.459H1298.03C1298.15 513.214 1298.48 513.816 1299.02 514.266C1299.56 514.708 1300.24 514.93 1301.08 514.93C1302.07 514.93 1302.93 514.581 1303.64 513.885L1305.89 514.939C1305.33 515.734 1304.66 516.323 1303.88 516.707C1303.1 517.085 1302.17 517.273 1301.1 517.273C1299.43 517.273 1298.07 516.749 1297.02 515.701C1295.98 514.646 1295.45 513.328 1295.45 511.746C1295.45 510.125 1295.97 508.781 1297.01 507.713C1298.06 506.639 1299.37 506.102 1300.95 506.102C1302.62 506.102 1303.98 506.639 1305.03 507.713C1306.08 508.781 1306.6 510.193 1306.6 511.951L1306.59 512.459ZM1303.92 510.359C1303.74 509.767 1303.39 509.285 1302.87 508.914C1302.36 508.543 1301.76 508.357 1301.08 508.357C1300.33 508.357 1299.68 508.566 1299.12 508.982C1298.77 509.243 1298.45 509.702 1298.15 510.359H1303.92ZM1318.25 517H1315.54L1312.88 510.291L1310.18 517H1307.47L1312 506.375H1313.72L1318.25 517ZM1321.47 512.645C1320.89 512.456 1320.42 512.101 1320.05 511.58C1319.69 511.053 1319.5 510.46 1319.5 509.803C1319.5 509.015 1319.73 508.325 1320.18 507.732C1320.63 507.14 1321.16 506.766 1321.78 506.609C1322.4 506.453 1323.38 506.375 1324.7 506.375H1327.39V517H1324.72V513.152H1324.2L1321.67 517H1318.52L1321.47 512.645ZM1324.72 511.15V508.602H1323.79C1322.78 508.602 1322.28 509.025 1322.28 509.871C1322.28 510.724 1322.84 511.15 1323.97 511.15H1324.72Z" fill="#080C25"/>
<path d="M1178.8 379.18H1176.17C1176.31 378.118 1176.69 377.266 1177.31 376.621C1178.19 375.723 1179.28 375.273 1180.61 375.273C1181.78 375.273 1182.77 375.648 1183.56 376.396C1184.37 377.145 1184.77 378.034 1184.77 379.062C1184.77 379.701 1184.59 380.283 1184.24 380.811C1183.89 381.338 1183.39 381.764 1182.72 382.09C1183.6 382.35 1184.28 382.806 1184.77 383.457C1185.26 384.102 1185.51 384.863 1185.51 385.742C1185.51 387.031 1185.03 388.125 1184.08 389.023C1183.13 389.915 1181.92 390.361 1180.45 390.361C1179.06 390.361 1177.92 389.941 1177.04 389.102C1176.16 388.255 1175.68 387.106 1175.6 385.654H1178.3C1178.42 386.396 1178.68 386.95 1179.07 387.314C1179.48 387.673 1179.98 387.852 1180.6 387.852C1181.23 387.852 1181.76 387.646 1182.18 387.236C1182.6 386.826 1182.81 386.325 1182.81 385.732C1182.81 385.081 1182.53 384.531 1181.96 384.082C1181.4 383.633 1180.58 383.402 1179.51 383.389V381.045C1180.17 380.993 1180.66 380.892 1180.98 380.742C1181.3 380.586 1181.55 380.374 1181.73 380.107C1181.91 379.84 1182 379.557 1182 379.258C1182 378.867 1181.87 378.545 1181.59 378.291C1181.32 378.031 1180.96 377.9 1180.52 377.9C1180.13 377.9 1179.77 378.021 1179.45 378.262C1179.13 378.496 1178.92 378.802 1178.8 379.18Z" fill="#CD4E5C"/>
<circle cx="1181" cy="382" r="17.5" stroke="#CD4E5C" stroke-width="3"/>
<path d="M1198.39 760.635H1205.52V763.311H1201.1V775H1198.39V760.635ZM1218.01 770.459H1209.45C1209.57 771.214 1209.9 771.816 1210.43 772.266C1210.97 772.708 1211.66 772.93 1212.49 772.93C1213.49 772.93 1214.35 772.581 1215.06 771.885L1217.31 772.939C1216.75 773.734 1216.08 774.323 1215.3 774.707C1214.52 775.085 1213.59 775.273 1212.51 775.273C1210.85 775.273 1209.49 774.749 1208.44 773.701C1207.39 772.646 1206.87 771.328 1206.87 769.746C1206.87 768.125 1207.39 766.781 1208.43 765.713C1209.48 764.639 1210.79 764.102 1212.37 764.102C1214.04 764.102 1215.4 764.639 1216.45 765.713C1217.5 766.781 1218.02 768.193 1218.02 769.951L1218.01 770.459ZM1215.34 768.359C1215.16 767.767 1214.81 767.285 1214.29 766.914C1213.78 766.543 1213.18 766.357 1212.49 766.357C1211.75 766.357 1211.1 766.566 1210.54 766.982C1210.19 767.243 1209.86 767.702 1209.56 768.359H1215.34ZM1222.85 768.203H1226.81V764.375H1229.49V775H1226.81V770.596H1222.85V775H1220.17V764.375H1222.85V768.203ZM1234.86 768.203H1238.82V764.375H1241.5V775H1238.82V770.596H1234.86V775H1232.18V764.375H1234.86V768.203ZM1246.87 768.203H1247.66C1248.77 768.203 1249.63 768.291 1250.22 768.467C1250.82 768.636 1251.32 768.994 1251.73 769.541C1252.14 770.088 1252.35 770.775 1252.35 771.602C1252.35 772.422 1252.16 773.105 1251.79 773.652C1251.42 774.193 1250.94 774.554 1250.37 774.736C1249.79 774.912 1248.99 775 1247.94 775H1244.19V764.375H1246.87V768.203ZM1246.87 772.949H1247.68C1248.16 772.949 1248.51 772.917 1248.72 772.852C1248.94 772.78 1249.13 772.646 1249.29 772.451C1249.45 772.256 1249.54 772.018 1249.54 771.738C1249.54 770.827 1249.01 770.371 1247.97 770.371H1246.87V772.949ZM1254.2 764.375H1256.87V775H1254.2V764.375ZM1260.98 775H1259.56V764.375H1262.16V770.615L1267.6 764.375H1268.88V775H1266.28V768.887L1260.98 775ZM1260.35 759.688H1262.5C1262.67 759.954 1262.91 760.156 1263.21 760.293C1263.51 760.423 1263.88 760.488 1264.32 760.488C1264.76 760.488 1265.16 760.41 1265.52 760.254C1265.76 760.15 1265.96 759.961 1266.14 759.688H1268.29C1268.17 760.514 1267.77 761.178 1267.1 761.68C1266.44 762.181 1265.51 762.432 1264.31 762.432C1263.5 762.432 1262.83 762.321 1262.28 762.1C1261.74 761.872 1261.3 761.549 1260.97 761.133C1260.64 760.716 1260.43 760.234 1260.35 759.688ZM1194.13 797H1191.46V786.375H1200.78V797H1198.1V788.943H1194.13V797ZM1211.33 786.375H1213.99V797H1211.33V795.877C1210.81 796.372 1210.29 796.73 1209.76 796.951C1209.24 797.166 1208.67 797.273 1208.06 797.273C1206.69 797.273 1205.5 796.743 1204.5 795.682C1203.49 794.614 1202.99 793.289 1202.99 791.707C1202.99 790.066 1203.48 788.722 1204.45 787.674C1205.42 786.626 1206.6 786.102 1207.98 786.102C1208.62 786.102 1209.22 786.222 1209.78 786.463C1210.34 786.704 1210.86 787.065 1211.33 787.547V786.375ZM1208.53 788.562C1207.7 788.562 1207.02 788.855 1206.47 789.441C1205.92 790.021 1205.65 790.766 1205.65 791.678C1205.65 792.596 1205.93 793.351 1206.48 793.943C1207.04 794.536 1207.73 794.832 1208.54 794.832C1209.38 794.832 1210.08 794.542 1210.63 793.963C1211.18 793.377 1211.46 792.612 1211.46 791.668C1211.46 790.743 1211.18 789.995 1210.63 789.422C1210.08 788.849 1209.38 788.562 1208.53 788.562ZM1227.08 788.523L1224.87 789.744C1224.45 789.308 1224.04 789.005 1223.63 788.836C1223.22 788.667 1222.75 788.582 1222.2 788.582C1221.21 788.582 1220.4 788.882 1219.78 789.48C1219.17 790.073 1218.86 790.835 1218.86 791.766C1218.86 792.671 1219.16 793.41 1219.75 793.982C1220.34 794.555 1221.12 794.842 1222.08 794.842C1223.28 794.842 1224.2 794.435 1224.87 793.621L1226.97 795.057C1225.83 796.535 1224.22 797.273 1222.14 797.273C1220.27 797.273 1218.81 796.72 1217.75 795.613C1216.69 794.507 1216.17 793.211 1216.17 791.727C1216.17 790.698 1216.42 789.751 1216.94 788.885C1217.45 788.019 1218.17 787.339 1219.09 786.844C1220.01 786.349 1221.04 786.102 1222.18 786.102C1223.24 786.102 1224.18 786.313 1225.02 786.736C1225.86 787.153 1226.55 787.749 1227.08 788.523ZM1232.16 797H1229.49V786.375H1238.8V797H1236.13V788.943H1232.16V797ZM1246.5 786.102C1247.5 786.102 1248.44 786.352 1249.32 786.854C1250.21 787.355 1250.9 788.035 1251.39 788.895C1251.89 789.754 1252.13 790.682 1252.13 791.678C1252.13 792.68 1251.88 793.618 1251.38 794.49C1250.89 795.363 1250.21 796.046 1249.35 796.541C1248.49 797.029 1247.54 797.273 1246.51 797.273C1244.98 797.273 1243.68 796.733 1242.6 795.652C1241.53 794.565 1240.99 793.247 1240.99 791.697C1240.99 790.037 1241.6 788.654 1242.82 787.547C1243.88 786.583 1245.11 786.102 1246.5 786.102ZM1246.54 788.611C1245.71 788.611 1245.02 788.901 1244.47 789.48C1243.92 790.053 1243.65 790.789 1243.65 791.688C1243.65 792.612 1243.92 793.361 1244.46 793.934C1245 794.507 1245.69 794.793 1246.53 794.793C1247.36 794.793 1248.05 794.503 1248.61 793.924C1249.16 793.344 1249.44 792.599 1249.44 791.688C1249.44 790.776 1249.16 790.037 1248.62 789.471C1248.08 788.898 1247.38 788.611 1246.54 788.611ZM1256.97 786.375V787.547C1257.45 787.065 1257.97 786.704 1258.53 786.463C1259.09 786.222 1259.69 786.102 1260.33 786.102C1261.71 786.102 1262.89 786.626 1263.86 787.674C1264.83 788.722 1265.32 790.066 1265.32 791.707C1265.32 793.289 1264.82 794.614 1263.81 795.682C1262.81 796.743 1261.62 797.273 1260.25 797.273C1259.64 797.273 1259.07 797.166 1258.54 796.951C1258.01 796.73 1257.49 796.372 1256.97 795.877V800.887H1254.32V786.375H1256.97ZM1259.77 788.562C1258.93 788.562 1258.23 788.849 1257.68 789.422C1257.13 789.995 1256.85 790.743 1256.85 791.668C1256.85 792.612 1257.13 793.377 1257.68 793.963C1258.23 794.542 1258.93 794.832 1259.77 794.832C1260.58 794.832 1261.27 794.536 1261.82 793.943C1262.38 793.351 1262.66 792.596 1262.66 791.678C1262.66 790.766 1262.39 790.021 1261.84 789.441C1261.29 788.855 1260.6 788.562 1259.77 788.562ZM1266.58 786.375H1276.48V788.914H1272.95V797H1270.28V788.914H1266.58V786.375Z" fill="#080C25"/>
<path d="M1181.62 641.273H1184.36V650.521H1185.63V653.051H1184.36V656H1181.68V653.051H1175.41V650.521L1181.62 641.273ZM1181.68 650.521V645.707L1178.4 650.521H1181.68Z" fill="#CD4E5C"/>
<circle cx="1181" cy="648" r="17.5" stroke="#CD4E5C" stroke-width="3"/>
<path d="M1211.33 747V746.263C1211.33 738.558 1213.33 730.984 1217.13 724.278C1220.92 717.573 1226.39 711.965 1233 708C1239.59 704.016 1245.04 698.404 1248.84 691.703C1252.63 685.002 1254.64 677.437 1254.67 669.737V669" stroke="#3071E7" stroke-width="3.5" stroke-linecap="round" stroke-linejoin="round"/>
<path d="M1254.67 747V746.263C1254.67 738.558 1252.67 730.984 1248.87 724.278C1245.08 717.573 1239.61 711.965 1233 708C1226.39 704.035 1220.92 698.427 1217.13 691.722C1213.33 685.016 1211.33 677.442 1211.33 669.737V669" stroke="#3071E7" stroke-width="3.5" stroke-linecap="round" stroke-linejoin="round"/>
<path d="M1218.79 690.667H1247.71M1211.72 673.333H1254.28M1247.71 725.333H1216.5M1254.28 742.667H1211.72" stroke="#3071E7" stroke-width="3.5" stroke-linecap="round" stroke-linejoin="round"/>
<path d="M717.271 179H722.292V274.41H717.271V179ZM727.314 274.41V179H797.616V274.41H727.314ZM737.357 191.554V199.086H787.573V191.554H737.357ZM737.357 211.64V219.173H744.889V211.64H737.357ZM752.422 211.64V219.173H785.062V211.64H752.422ZM737.357 231.727V239.259H744.889V231.727H737.357ZM752.422 231.727V239.259H782.551V231.727H752.422ZM737.357 251.813V259.346H744.889V251.813H737.357ZM752.422 251.813V259.346H787.573V251.813H752.422Z" fill="#3071E7"/>
<path d="M692.83 282.635H695.594V287.576L699.49 282.635H702.781L697.762 289.041L703.27 297H700.027L695.594 290.623V297H692.83V282.635ZM714.412 297H711.697L709.041 290.291L706.336 297H703.631L708.162 286.375H709.881L714.412 297ZM717.225 297H715.809V286.375H718.406V292.615L723.846 286.375H725.125V297H722.527V290.887L717.225 297ZM730.496 290.203H734.461V286.375H737.137V297H734.461V292.596H730.496V297H727.82V286.375H730.496V290.203ZM741.248 297H739.832V286.375H742.43V292.615L747.869 286.375H749.148V297H746.551V290.887L741.248 297ZM757.615 292.781H755.477C754.031 292.781 752.918 292.505 752.137 291.951C751.362 291.391 750.975 290.473 750.975 289.197V286.375H753.65V288.992C753.65 289.923 754.272 290.389 755.516 290.389L756.551 290.379H757.615V286.375H760.291V297H757.615V292.781ZM773.631 292.459H765.066C765.19 293.214 765.519 293.816 766.053 294.266C766.593 294.708 767.28 294.93 768.113 294.93C769.109 294.93 769.965 294.581 770.682 293.885L772.928 294.939C772.368 295.734 771.697 296.323 770.916 296.707C770.135 297.085 769.207 297.273 768.133 297.273C766.466 297.273 765.109 296.749 764.061 295.701C763.012 294.646 762.488 293.328 762.488 291.746C762.488 290.125 763.009 288.781 764.051 287.713C765.099 286.639 766.411 286.102 767.986 286.102C769.66 286.102 771.02 286.639 772.068 287.713C773.117 288.781 773.641 290.193 773.641 291.951L773.631 292.459ZM770.955 290.359C770.779 289.767 770.431 289.285 769.91 288.914C769.396 288.543 768.797 288.357 768.113 288.357C767.371 288.357 766.72 288.566 766.16 288.982C765.809 289.243 765.483 289.702 765.184 290.359H770.955ZM786.199 288.523L783.982 289.744C783.566 289.308 783.152 289.005 782.742 288.836C782.339 288.667 781.863 288.582 781.316 288.582C780.32 288.582 779.513 288.882 778.895 289.48C778.283 290.073 777.977 290.835 777.977 291.766C777.977 292.671 778.273 293.41 778.865 293.982C779.458 294.555 780.236 294.842 781.199 294.842C782.391 294.842 783.318 294.435 783.982 293.621L786.082 295.057C784.943 296.535 783.335 297.273 781.258 297.273C779.389 297.273 777.924 296.72 776.863 295.613C775.809 294.507 775.281 293.211 775.281 291.727C775.281 290.698 775.538 289.751 776.053 288.885C776.567 288.019 777.283 287.339 778.201 286.844C779.126 286.349 780.158 286.102 781.297 286.102C782.352 286.102 783.299 286.313 784.139 286.736C784.979 287.153 785.665 287.749 786.199 288.523ZM788.611 286.375H791.277V290.35L794.949 286.375H798.201L793.465 291.551L798.26 297H794.725L791.561 293.25L791.277 293.582V297H788.611V286.375ZM800.76 297H799.344V286.375H801.941V292.615L807.381 286.375H808.66V297H806.062V290.887L800.76 297ZM822.01 292.459H813.445C813.569 293.214 813.898 293.816 814.432 294.266C814.972 294.708 815.659 294.93 816.492 294.93C817.488 294.93 818.344 294.581 819.061 293.885L821.307 294.939C820.747 295.734 820.076 296.323 819.295 296.707C818.514 297.085 817.586 297.273 816.512 297.273C814.845 297.273 813.488 296.749 812.439 295.701C811.391 294.646 810.867 293.328 810.867 291.746C810.867 290.125 811.388 288.781 812.43 287.713C813.478 286.639 814.79 286.102 816.365 286.102C818.038 286.102 819.399 286.639 820.447 287.713C821.495 288.781 822.02 290.193 822.02 291.951L822.01 292.459ZM819.334 290.359C819.158 289.767 818.81 289.285 818.289 288.914C817.775 288.543 817.176 288.357 816.492 288.357C815.75 288.357 815.099 288.566 814.539 288.982C814.188 289.243 813.862 289.702 813.562 290.359H819.334ZM684.1 308.375V309.547C684.581 309.065 685.102 308.704 685.662 308.463C686.222 308.222 686.821 308.102 687.459 308.102C688.846 308.102 690.024 308.626 690.994 309.674C691.964 310.722 692.449 312.066 692.449 313.707C692.449 315.289 691.948 316.614 690.945 317.682C689.943 318.743 688.755 319.273 687.381 319.273C686.769 319.273 686.199 319.166 685.672 318.951C685.145 318.73 684.62 318.372 684.1 317.877V322.887H681.453V308.375H684.1ZM686.902 310.562C686.062 310.562 685.366 310.849 684.812 311.422C684.259 311.995 683.982 312.743 683.982 313.668C683.982 314.612 684.259 315.377 684.812 315.963C685.366 316.542 686.062 316.832 686.902 316.832C687.716 316.832 688.4 316.536 688.953 315.943C689.513 315.351 689.793 314.596 689.793 313.678C689.793 312.766 689.52 312.021 688.973 311.441C688.426 310.855 687.736 310.562 686.902 310.562ZM705.301 314.459H696.736C696.86 315.214 697.189 315.816 697.723 316.266C698.263 316.708 698.95 316.93 699.783 316.93C700.779 316.93 701.635 316.581 702.352 315.885L704.598 316.939C704.038 317.734 703.367 318.323 702.586 318.707C701.805 319.085 700.877 319.273 699.803 319.273C698.136 319.273 696.779 318.749 695.73 317.701C694.682 316.646 694.158 315.328 694.158 313.746C694.158 312.125 694.679 310.781 695.721 309.713C696.769 308.639 698.081 308.102 699.656 308.102C701.329 308.102 702.69 308.639 703.738 309.713C704.786 310.781 705.311 312.193 705.311 313.951L705.301 314.459ZM702.625 312.359C702.449 311.767 702.101 311.285 701.58 310.914C701.066 310.543 700.467 310.357 699.783 310.357C699.041 310.357 698.39 310.566 697.83 310.982C697.479 311.243 697.153 311.702 696.854 312.359H702.625ZM707.469 308.375H710.135V312.35L713.807 308.375H717.059L712.322 313.551L717.117 319H713.582L710.418 315.25L710.135 315.582V319H707.469V308.375ZM723.201 308.102C724.204 308.102 725.145 308.352 726.023 308.854C726.909 309.355 727.599 310.035 728.094 310.895C728.589 311.754 728.836 312.682 728.836 313.678C728.836 314.68 728.585 315.618 728.084 316.49C727.589 317.363 726.912 318.046 726.053 318.541C725.193 319.029 724.246 319.273 723.211 319.273C721.688 319.273 720.385 318.733 719.305 317.652C718.23 316.565 717.693 315.247 717.693 313.697C717.693 312.037 718.302 310.654 719.52 309.547C720.587 308.583 721.814 308.102 723.201 308.102ZM723.24 310.611C722.413 310.611 721.723 310.901 721.17 311.48C720.623 312.053 720.35 312.789 720.35 313.688C720.35 314.612 720.62 315.361 721.16 315.934C721.707 316.507 722.397 316.793 723.23 316.793C724.064 316.793 724.757 316.503 725.311 315.924C725.864 315.344 726.141 314.599 726.141 313.688C726.141 312.776 725.867 312.037 725.32 311.471C724.78 310.898 724.087 310.611 723.24 310.611ZM737.527 315.074L740.789 308.375H742.547L745.203 319H742.596L741.18 312.77L738.016 319H736.922L733.826 312.77L732.4 319H729.803L732.459 308.375H734.217L737.527 315.074ZM757.332 314.459H748.768C748.891 315.214 749.22 315.816 749.754 316.266C750.294 316.708 750.981 316.93 751.814 316.93C752.811 316.93 753.667 316.581 754.383 315.885L756.629 316.939C756.069 317.734 755.398 318.323 754.617 318.707C753.836 319.085 752.908 319.273 751.834 319.273C750.167 319.273 748.81 318.749 747.762 317.701C746.714 316.646 746.189 315.328 746.189 313.746C746.189 312.125 746.71 310.781 747.752 309.713C748.8 308.639 750.112 308.102 751.688 308.102C753.361 308.102 754.721 308.639 755.77 309.713C756.818 310.781 757.342 312.193 757.342 313.951L757.332 314.459ZM754.656 312.359C754.48 311.767 754.132 311.285 753.611 310.914C753.097 310.543 752.498 310.357 751.814 310.357C751.072 310.357 750.421 310.566 749.861 310.982C749.51 311.243 749.184 311.702 748.885 312.359H754.656ZM762.166 312.203H766.131V308.375H768.807V319H766.131V314.596H762.166V319H759.49V308.375H762.166V312.203ZM772.889 319V320.846H770.516V316.744H772.117L775.779 308.375H777.498L781.209 316.744H782.84V320.846H780.301V319H772.889ZM778.377 316.744L776.639 312.271L774.842 316.744H778.377ZM792.391 308.375H795.047V319H792.391V317.877C791.87 318.372 791.346 318.73 790.818 318.951C790.298 319.166 789.731 319.273 789.119 319.273C787.745 319.273 786.557 318.743 785.555 317.682C784.552 316.614 784.051 315.289 784.051 313.707C784.051 312.066 784.536 310.722 785.506 309.674C786.476 308.626 787.654 308.102 789.041 308.102C789.679 308.102 790.278 308.222 790.838 308.463C791.398 308.704 791.915 309.065 792.391 309.547V308.375ZM789.588 310.562C788.761 310.562 788.074 310.855 787.527 311.441C786.98 312.021 786.707 312.766 786.707 313.678C786.707 314.596 786.984 315.351 787.537 315.943C788.097 316.536 788.784 316.832 789.598 316.832C790.438 316.832 791.134 316.542 791.688 315.963C792.241 315.377 792.518 314.612 792.518 313.668C792.518 312.743 792.241 311.995 791.688 311.422C791.134 310.849 790.434 310.562 789.588 310.562ZM797.732 319V308.375H800.408V316.441H804.373V308.375H807.049V316.441H809.754V320.865H807.215V319H797.732ZM812.625 319H811.209V308.375H813.807V314.615L819.246 308.375H820.525V319H817.928V312.887L812.625 319ZM824.637 319H823.221V308.375H825.818V314.615L831.258 308.375H832.537V319H829.939V312.887L824.637 319Z" fill="#080C25"/>
<path d="M684.34 167.635H691.068V170.154H686.381L685.795 172.771C685.958 172.726 686.117 172.693 686.273 172.674C686.43 172.648 686.579 172.635 686.723 172.635C688.025 172.635 689.105 173.081 689.965 173.973C690.831 174.858 691.264 175.994 691.264 177.381C691.264 178.781 690.785 179.962 689.828 180.926C688.878 181.883 687.719 182.361 686.352 182.361C685.128 182.361 684.076 182.013 683.197 181.316C682.318 180.62 681.742 179.666 681.469 178.455H684.34C684.561 178.904 684.851 179.246 685.209 179.48C685.574 179.708 685.974 179.822 686.41 179.822C687.016 179.822 687.53 179.604 687.953 179.168C688.376 178.732 688.588 178.172 688.588 177.488C688.588 176.824 688.389 176.281 687.992 175.857C687.602 175.428 687.126 175.213 686.566 175.213C686.267 175.213 685.971 175.288 685.678 175.438C685.391 175.587 685.108 175.812 684.828 176.111L682.602 175.613L684.34 167.635Z" fill="#CD4E5C"/>
<circle cx="687" cy="174" r="17.5" stroke="#CD4E5C" stroke-width="3"/>
<path d="M416.128 675.131H468.421C471.047 675.131 473.175 676.467 473.175 679.093C473.175 681.718 471.047 683.054 468.421 683.054H416.128C413.503 683.054 411.374 681.718 411.374 679.093C411.374 676.467 413.503 675.131 416.128 675.131ZM416.128 694.147L477.136 694.147C479.762 694.147 481.89 695.483 481.89 698.108C481.89 700.734 478.987 701.905 476.361 701.905L415.353 701.905C412.728 701.905 411.374 700.734 411.374 698.108C411.374 695.483 413.503 694.147 416.128 694.147ZM416.128 713.162L461.29 713.162C463.916 713.162 466.044 714.499 466.044 717.124C466.044 719.75 463.916 721.086 461.29 721.086H416.128C413.503 721.086 411.374 719.75 411.374 717.124C411.374 714.498 413.503 713.162 416.128 713.162ZM388.371 713.239L393.79 718.018L403.451 706.031L407.77 710.811L395.707 725.047H392.359L384.691 717.514V713.239H388.371ZM388.806 694.223L394.224 699.003L403.885 687.016L408.205 691.795L396.141 706.031H392.793L385.125 698.498V694.223H388.806ZM388.806 675.208L394.224 679.987L403.885 668L408.205 672.78L396.141 687.016H392.793L385.125 679.483V675.208H388.806Z" fill="#3071E7"/>
<path d="M332.896 735.635H335.797C337.366 735.635 338.495 735.781 339.186 736.074C339.882 736.361 340.429 736.829 340.826 737.48C341.23 738.125 341.432 738.9 341.432 739.805C341.432 740.807 341.168 741.641 340.641 742.305C340.12 742.969 339.41 743.431 338.512 743.691C337.984 743.841 337.024 743.916 335.631 743.916V750H332.896V735.635ZM335.631 741.25H336.5C337.184 741.25 337.659 741.201 337.926 741.104C338.193 741.006 338.401 740.846 338.551 740.625C338.707 740.397 338.785 740.124 338.785 739.805C338.785 739.251 338.57 738.848 338.141 738.594C337.828 738.405 337.249 738.311 336.402 738.311H335.631V741.25ZM354.469 745.459H345.904C346.028 746.214 346.357 746.816 346.891 747.266C347.431 747.708 348.118 747.93 348.951 747.93C349.947 747.93 350.803 747.581 351.52 746.885L353.766 747.939C353.206 748.734 352.535 749.323 351.754 749.707C350.973 750.085 350.045 750.273 348.971 750.273C347.304 750.273 345.947 749.749 344.898 748.701C343.85 747.646 343.326 746.328 343.326 744.746C343.326 743.125 343.847 741.781 344.889 740.713C345.937 739.639 347.249 739.102 348.824 739.102C350.497 739.102 351.858 739.639 352.906 740.713C353.954 741.781 354.479 743.193 354.479 744.951L354.469 745.459ZM351.793 743.359C351.617 742.767 351.269 742.285 350.748 741.914C350.234 741.543 349.635 741.357 348.951 741.357C348.209 741.357 347.558 741.566 346.998 741.982C346.646 742.243 346.321 742.702 346.021 743.359H351.793ZM356.637 739.375H359.303V743.35L362.975 739.375H366.227L361.49 744.551L366.285 750H362.75L359.586 746.25L359.303 746.582V750H356.637V739.375ZM372.369 739.102C373.372 739.102 374.312 739.352 375.191 739.854C376.077 740.355 376.767 741.035 377.262 741.895C377.757 742.754 378.004 743.682 378.004 744.678C378.004 745.68 377.753 746.618 377.252 747.49C376.757 748.363 376.08 749.046 375.221 749.541C374.361 750.029 373.414 750.273 372.379 750.273C370.855 750.273 369.553 749.733 368.473 748.652C367.398 747.565 366.861 746.247 366.861 744.697C366.861 743.037 367.47 741.654 368.688 740.547C369.755 739.583 370.982 739.102 372.369 739.102ZM372.408 741.611C371.581 741.611 370.891 741.901 370.338 742.48C369.791 743.053 369.518 743.789 369.518 744.688C369.518 745.612 369.788 746.361 370.328 746.934C370.875 747.507 371.565 747.793 372.398 747.793C373.232 747.793 373.925 747.503 374.479 746.924C375.032 746.344 375.309 745.599 375.309 744.688C375.309 743.776 375.035 743.037 374.488 742.471C373.948 741.898 373.255 741.611 372.408 741.611ZM386.695 746.074L389.957 739.375H391.715L394.371 750H391.764L390.348 743.77L387.184 750H386.09L382.994 743.77L381.568 750H378.971L381.627 739.375H383.385L386.695 746.074ZM406.5 745.459H397.936C398.059 746.214 398.388 746.816 398.922 747.266C399.462 747.708 400.149 747.93 400.982 747.93C401.979 747.93 402.835 747.581 403.551 746.885L405.797 747.939C405.237 748.734 404.566 749.323 403.785 749.707C403.004 750.085 402.076 750.273 401.002 750.273C399.335 750.273 397.978 749.749 396.93 748.701C395.882 747.646 395.357 746.328 395.357 744.746C395.357 743.125 395.878 741.781 396.92 740.713C397.968 739.639 399.28 739.102 400.855 739.102C402.529 739.102 403.889 739.639 404.938 740.713C405.986 741.781 406.51 743.193 406.51 744.951L406.5 745.459ZM403.824 743.359C403.648 742.767 403.3 742.285 402.779 741.914C402.265 741.543 401.666 741.357 400.982 741.357C400.24 741.357 399.589 741.566 399.029 741.982C398.678 742.243 398.352 742.702 398.053 743.359H403.824ZM411.334 743.203H415.299V739.375H417.975V750H415.299V745.596H411.334V750H408.658V739.375H411.334V743.203ZM422.057 750V751.846H419.684V747.744H421.285L424.947 739.375H426.666L430.377 747.744H432.008V751.846H429.469V750H422.057ZM427.545 747.744L425.807 743.271L424.01 747.744H427.545ZM438.697 739.102C439.7 739.102 440.641 739.352 441.52 739.854C442.405 740.355 443.095 741.035 443.59 741.895C444.085 742.754 444.332 743.682 444.332 744.678C444.332 745.68 444.081 746.618 443.58 747.49C443.085 748.363 442.408 749.046 441.549 749.541C440.689 750.029 439.742 750.273 438.707 750.273C437.184 750.273 435.882 749.733 434.801 748.652C433.727 747.565 433.189 746.247 433.189 744.697C433.189 743.037 433.798 741.654 435.016 740.547C436.083 739.583 437.311 739.102 438.697 739.102ZM438.736 741.611C437.91 741.611 437.219 741.901 436.666 742.48C436.119 743.053 435.846 743.789 435.846 744.688C435.846 745.612 436.116 746.361 436.656 746.934C437.203 747.507 437.893 747.793 438.727 747.793C439.56 747.793 440.253 747.503 440.807 746.924C441.36 746.344 441.637 745.599 441.637 744.688C441.637 743.776 441.363 743.037 440.816 742.471C440.276 741.898 439.583 741.611 438.736 741.611ZM446.52 750V739.375H450.787C452.187 739.375 453.137 739.652 453.639 740.205C454.14 740.752 454.391 741.374 454.391 742.07C454.391 743.105 453.876 743.851 452.848 744.307C454.254 744.788 454.957 745.697 454.957 747.031C454.957 747.754 454.771 748.353 454.4 748.828C454.029 749.297 453.557 749.609 452.984 749.766C452.418 749.922 451.624 750 450.602 750H446.52ZM449.195 743.555H450.221C450.657 743.555 450.992 743.447 451.227 743.232C451.467 743.011 451.588 742.767 451.588 742.5C451.588 742.103 451.474 741.794 451.246 741.572C451.018 741.351 450.748 741.24 450.436 741.24L450.094 741.25H449.195V743.555ZM449.195 747.949H450.533C451.054 747.949 451.419 747.829 451.627 747.588C451.842 747.34 451.949 747.1 451.949 746.865C451.949 746.52 451.829 746.204 451.588 745.918C451.354 745.632 450.927 745.488 450.309 745.488H449.195V747.949ZM465.074 739.375H467.73V750H465.074V748.877C464.553 749.372 464.029 749.73 463.502 749.951C462.981 750.166 462.415 750.273 461.803 750.273C460.429 750.273 459.241 749.743 458.238 748.682C457.236 747.614 456.734 746.289 456.734 744.707C456.734 743.066 457.219 741.722 458.189 740.674C459.16 739.626 460.338 739.102 461.725 739.102C462.363 739.102 462.962 739.222 463.521 739.463C464.081 739.704 464.599 740.065 465.074 740.547V739.375ZM462.271 741.562C461.445 741.562 460.758 741.855 460.211 742.441C459.664 743.021 459.391 743.766 459.391 744.678C459.391 745.596 459.667 746.351 460.221 746.943C460.781 747.536 461.467 747.832 462.281 747.832C463.121 747.832 463.818 747.542 464.371 746.963C464.924 746.377 465.201 745.612 465.201 744.668C465.201 743.743 464.924 742.995 464.371 742.422C463.818 741.849 463.118 741.562 462.271 741.562ZM473.092 743.203H477.057V739.375H479.732V750H477.057V745.596H473.092V750H470.416V739.375H473.092V743.203ZM485.104 743.203H489.068V739.375H491.744V750H489.068V745.596H485.104V750H482.428V739.375H485.104V743.203ZM502.301 739.375H504.957V750H502.301V748.877C501.78 749.372 501.256 749.73 500.729 749.951C500.208 750.166 499.641 750.273 499.029 750.273C497.656 750.273 496.467 749.743 495.465 748.682C494.462 747.614 493.961 746.289 493.961 744.707C493.961 743.066 494.446 741.722 495.416 740.674C496.386 739.626 497.564 739.102 498.951 739.102C499.589 739.102 500.188 739.222 500.748 739.463C501.308 739.704 501.826 740.065 502.301 740.547V739.375ZM499.498 741.562C498.671 741.562 497.984 741.855 497.438 742.441C496.891 743.021 496.617 743.766 496.617 744.678C496.617 745.596 496.894 746.351 497.447 746.943C498.007 747.536 498.694 747.832 499.508 747.832C500.348 747.832 501.044 747.542 501.598 746.963C502.151 746.377 502.428 745.612 502.428 744.668C502.428 743.743 502.151 742.995 501.598 742.422C501.044 741.849 500.344 741.562 499.498 741.562ZM509.459 745.645C508.886 745.456 508.414 745.101 508.043 744.58C507.678 744.053 507.496 743.46 507.496 742.803C507.496 742.015 507.721 741.325 508.17 740.732C508.619 740.14 509.153 739.766 509.771 739.609C510.396 739.453 511.37 739.375 512.691 739.375H515.387V750H512.711V746.152H512.193L509.664 750H506.51L509.459 745.645ZM512.711 744.15V741.602H511.783C510.774 741.602 510.27 742.025 510.27 742.871C510.27 743.724 510.833 744.15 511.959 744.15H512.711ZM382.213 761.375H392.115V763.914H388.59V772H385.914V763.914H382.213V761.375ZM404.508 767.459H395.943C396.067 768.214 396.396 768.816 396.93 769.266C397.47 769.708 398.157 769.93 398.99 769.93C399.986 769.93 400.842 769.581 401.559 768.885L403.805 769.939C403.245 770.734 402.574 771.323 401.793 771.707C401.012 772.085 400.084 772.273 399.01 772.273C397.343 772.273 395.986 771.749 394.938 770.701C393.889 769.646 393.365 768.328 393.365 766.746C393.365 765.125 393.886 763.781 394.928 762.713C395.976 761.639 397.288 761.102 398.863 761.102C400.536 761.102 401.897 761.639 402.945 762.713C403.993 763.781 404.518 765.193 404.518 766.951L404.508 767.459ZM401.832 765.359C401.656 764.767 401.308 764.285 400.787 763.914C400.273 763.543 399.674 763.357 398.99 763.357C398.248 763.357 397.597 763.566 397.037 763.982C396.686 764.243 396.36 764.702 396.061 765.359H401.832ZM409.322 761.375V762.547C409.804 762.065 410.325 761.704 410.885 761.463C411.445 761.222 412.044 761.102 412.682 761.102C414.068 761.102 415.247 761.626 416.217 762.674C417.187 763.722 417.672 765.066 417.672 766.707C417.672 768.289 417.171 769.614 416.168 770.682C415.165 771.743 413.977 772.273 412.604 772.273C411.992 772.273 411.422 772.166 410.895 771.951C410.367 771.73 409.843 771.372 409.322 770.877V775.887H406.676V761.375H409.322ZM412.125 763.562C411.285 763.562 410.589 763.849 410.035 764.422C409.482 764.995 409.205 765.743 409.205 766.668C409.205 767.612 409.482 768.377 410.035 768.963C410.589 769.542 411.285 769.832 412.125 769.832C412.939 769.832 413.622 769.536 414.176 768.943C414.736 768.351 415.016 767.596 415.016 766.678C415.016 765.766 414.742 765.021 414.195 764.441C413.648 763.855 412.958 763.562 412.125 763.562ZM427.73 761.375H430.387V772H427.73V770.877C427.21 771.372 426.686 771.73 426.158 771.951C425.637 772.166 425.071 772.273 424.459 772.273C423.085 772.273 421.897 771.743 420.895 770.682C419.892 769.614 419.391 768.289 419.391 766.707C419.391 765.066 419.876 763.722 420.846 762.674C421.816 761.626 422.994 761.102 424.381 761.102C425.019 761.102 425.618 761.222 426.178 761.463C426.738 761.704 427.255 762.065 427.73 762.547V761.375ZM424.928 763.562C424.101 763.562 423.414 763.855 422.867 764.441C422.32 765.021 422.047 765.766 422.047 766.678C422.047 767.596 422.324 768.351 422.877 768.943C423.437 769.536 424.124 769.832 424.938 769.832C425.777 769.832 426.474 769.542 427.027 768.963C427.581 768.377 427.857 767.612 427.857 766.668C427.857 765.743 427.581 764.995 427.027 764.422C426.474 763.849 425.774 763.562 424.928 763.562ZM435.748 772H433.072V761.375H442.389V772H439.713V763.943H435.748V772ZM446.5 772H445.084V761.375H447.682V767.615L453.121 761.375H454.4V772H451.803V765.887L446.5 772ZM458.912 767.645C458.339 767.456 457.867 767.101 457.496 766.58C457.132 766.053 456.949 765.46 456.949 764.803C456.949 764.015 457.174 763.325 457.623 762.732C458.072 762.14 458.606 761.766 459.225 761.609C459.85 761.453 460.823 761.375 462.145 761.375H464.84V772H462.164V768.152H461.646L459.117 772H455.963L458.912 767.645ZM462.164 766.15V763.602H461.236C460.227 763.602 459.723 764.025 459.723 764.871C459.723 765.724 460.286 766.15 461.412 766.15H462.164Z" fill="#080C25"/>
<path d="M358.801 653.273L361.125 654.436L358.615 659.318C359.833 659.318 360.868 659.755 361.721 660.627C362.574 661.499 363 662.583 363 663.879C363 665.129 362.561 666.19 361.682 667.062C360.809 667.928 359.755 668.361 358.518 668.361C357.222 668.361 356.141 667.912 355.275 667.014C354.416 666.109 353.986 665.074 353.986 663.908C353.986 663.465 354.051 663.02 354.182 662.57C354.318 662.121 354.628 661.431 355.109 660.5L358.801 653.273ZM358.459 661.906C357.951 661.906 357.525 662.092 357.18 662.463C356.835 662.827 356.662 663.286 356.662 663.84C356.662 664.393 356.841 664.859 357.199 665.236C357.564 665.614 357.987 665.803 358.469 665.803C358.977 665.803 359.413 665.617 359.777 665.246C360.142 664.875 360.324 664.406 360.324 663.84C360.324 663.286 360.145 662.827 359.787 662.463C359.436 662.092 358.993 661.906 358.459 661.906Z" fill="#CD4E5C"/>
<circle cx="359" cy="660" r="17.5" stroke="#CD4E5C" stroke-width="3"/>
<path d="M599.406 732.273C601.438 732.273 603.182 733.009 604.641 734.48C606.105 735.952 606.838 737.745 606.838 739.861C606.838 741.958 606.115 743.732 604.67 745.184C603.231 746.635 601.483 747.361 599.426 747.361C597.271 747.361 595.48 746.616 594.055 745.125C592.629 743.634 591.916 741.863 591.916 739.812C591.916 738.439 592.248 737.176 592.912 736.023C593.576 734.871 594.488 733.96 595.646 733.289C596.812 732.612 598.065 732.273 599.406 732.273ZM599.377 734.949C598.049 734.949 596.932 735.411 596.027 736.336C595.122 737.26 594.67 738.436 594.67 739.861C594.67 741.45 595.24 742.706 596.379 743.631C597.264 744.354 598.28 744.715 599.426 744.715C600.721 744.715 601.825 744.246 602.736 743.309C603.648 742.371 604.104 741.215 604.104 739.842C604.104 738.475 603.645 737.319 602.727 736.375C601.809 735.424 600.692 734.949 599.377 734.949ZM609.113 747V736.375H611.789V744.441H615.754V736.375H618.43V744.441H621.135V748.865H618.596V747H609.113ZM633.244 742.459H624.68C624.803 743.214 625.132 743.816 625.666 744.266C626.206 744.708 626.893 744.93 627.727 744.93C628.723 744.93 629.579 744.581 630.295 743.885L632.541 744.939C631.981 745.734 631.311 746.323 630.529 746.707C629.748 747.085 628.82 747.273 627.746 747.273C626.079 747.273 624.722 746.749 623.674 745.701C622.626 744.646 622.102 743.328 622.102 741.746C622.102 740.125 622.622 738.781 623.664 737.713C624.712 736.639 626.024 736.102 627.6 736.102C629.273 736.102 630.633 736.639 631.682 737.713C632.73 738.781 633.254 740.193 633.254 741.951L633.244 742.459ZM630.568 740.359C630.393 739.767 630.044 739.285 629.523 738.914C629.009 738.543 628.41 738.357 627.727 738.357C626.984 738.357 626.333 738.566 625.773 738.982C625.422 739.243 625.096 739.702 624.797 740.359H630.568ZM638.078 740.203H642.043V736.375H644.719V747H642.043V742.596H638.078V747H635.402V736.375H638.078V740.203ZM647.424 736.375H650.09V740.35L653.762 736.375H657.014L652.277 741.551L657.072 747H653.537L650.373 743.25L650.09 743.582V747H647.424V736.375ZM666.018 736.375H668.674V747H666.018V745.877C665.497 746.372 664.973 746.73 664.445 746.951C663.924 747.166 663.358 747.273 662.746 747.273C661.372 747.273 660.184 746.743 659.182 745.682C658.179 744.614 657.678 743.289 657.678 741.707C657.678 740.066 658.163 738.722 659.133 737.674C660.103 736.626 661.281 736.102 662.668 736.102C663.306 736.102 663.905 736.222 664.465 736.463C665.025 736.704 665.542 737.065 666.018 737.547V736.375ZM663.215 738.562C662.388 738.562 661.701 738.855 661.154 739.441C660.607 740.021 660.334 740.766 660.334 741.678C660.334 742.596 660.611 743.351 661.164 743.943C661.724 744.536 662.411 744.832 663.225 744.832C664.064 744.832 664.761 744.542 665.314 743.963C665.868 743.377 666.145 742.612 666.145 741.668C666.145 740.743 665.868 739.995 665.314 739.422C664.761 738.849 664.061 738.562 663.215 738.562ZM554.377 769V758.375H558.645C560.044 758.375 560.995 758.652 561.496 759.205C561.997 759.752 562.248 760.374 562.248 761.07C562.248 762.105 561.734 762.851 560.705 763.307C562.111 763.788 562.814 764.697 562.814 766.031C562.814 766.754 562.629 767.353 562.258 767.828C561.887 768.297 561.415 768.609 560.842 768.766C560.275 768.922 559.481 769 558.459 769H554.377ZM557.053 762.555H558.078C558.514 762.555 558.85 762.447 559.084 762.232C559.325 762.011 559.445 761.767 559.445 761.5C559.445 761.103 559.331 760.794 559.104 760.572C558.876 760.351 558.605 760.24 558.293 760.24L557.951 760.25H557.053V762.555ZM557.053 766.949H558.391C558.911 766.949 559.276 766.829 559.484 766.588C559.699 766.34 559.807 766.1 559.807 765.865C559.807 765.52 559.686 765.204 559.445 764.918C559.211 764.632 558.785 764.488 558.166 764.488H557.053V766.949ZM567.746 762.203H568.537C569.65 762.203 570.503 762.291 571.096 762.467C571.695 762.636 572.199 762.994 572.609 763.541C573.02 764.088 573.225 764.775 573.225 765.602C573.225 766.422 573.039 767.105 572.668 767.652C572.297 768.193 571.822 768.554 571.242 768.736C570.669 768.912 569.862 769 568.82 769H565.07V758.375H567.746V762.203ZM567.746 766.949H568.557C569.038 766.949 569.387 766.917 569.602 766.852C569.816 766.78 570.005 766.646 570.168 766.451C570.331 766.256 570.412 766.018 570.412 765.738C570.412 764.827 569.891 764.371 568.85 764.371H567.746V766.949ZM575.08 758.375H577.746V769H575.08V758.375ZM585.832 765.582L585.549 765.25L582.385 769H578.85L583.645 763.551L578.908 758.375H582.16L585.832 762.35V758.375H588.498V762.35L592.16 758.375H595.422L590.686 763.551L595.48 769H591.945L588.781 765.25L588.498 765.582V769H585.832V765.582ZM597.99 769H596.574V758.375H599.172V764.615L604.611 758.375H605.891V769H603.293V762.887L597.99 769ZM608.596 769V758.375H612.863C614.263 758.375 615.214 758.652 615.715 759.205C616.216 759.752 616.467 760.374 616.467 761.07C616.467 762.105 615.952 762.851 614.924 763.307C616.33 763.788 617.033 764.697 617.033 766.031C617.033 766.754 616.848 767.353 616.477 767.828C616.105 768.297 615.633 768.609 615.061 768.766C614.494 768.922 613.7 769 612.678 769H608.596ZM611.271 762.555H612.297C612.733 762.555 613.068 762.447 613.303 762.232C613.544 762.011 613.664 761.767 613.664 761.5C613.664 761.103 613.55 760.794 613.322 760.572C613.094 760.351 612.824 760.24 612.512 760.24L612.17 760.25H611.271V762.555ZM611.271 766.949H612.609C613.13 766.949 613.495 766.829 613.703 766.588C613.918 766.34 614.025 766.1 614.025 765.865C614.025 765.52 613.905 765.204 613.664 764.918C613.43 764.632 613.003 764.488 612.385 764.488H611.271V766.949ZM627.15 758.375H629.807V769H627.15V767.877C626.63 768.372 626.105 768.73 625.578 768.951C625.057 769.166 624.491 769.273 623.879 769.273C622.505 769.273 621.317 768.743 620.314 767.682C619.312 766.614 618.811 765.289 618.811 763.707C618.811 762.066 619.296 760.722 620.266 759.674C621.236 758.626 622.414 758.102 623.801 758.102C624.439 758.102 625.038 758.222 625.598 758.463C626.158 758.704 626.675 759.065 627.15 759.547V758.375ZM624.348 760.562C623.521 760.562 622.834 760.855 622.287 761.441C621.74 762.021 621.467 762.766 621.467 763.678C621.467 764.596 621.743 765.351 622.297 765.943C622.857 766.536 623.544 766.832 624.357 766.832C625.197 766.832 625.894 766.542 626.447 765.963C627.001 765.377 627.277 764.612 627.277 763.668C627.277 762.743 627.001 761.995 626.447 761.422C625.894 760.849 625.194 760.562 624.348 760.562ZM643.146 764.459H634.582C634.706 765.214 635.035 765.816 635.568 766.266C636.109 766.708 636.796 766.93 637.629 766.93C638.625 766.93 639.481 766.581 640.197 765.885L642.443 766.939C641.883 767.734 641.213 768.323 640.432 768.707C639.65 769.085 638.723 769.273 637.648 769.273C635.982 769.273 634.624 768.749 633.576 767.701C632.528 766.646 632.004 765.328 632.004 763.746C632.004 762.125 632.525 760.781 633.566 759.713C634.615 758.639 635.926 758.102 637.502 758.102C639.175 758.102 640.536 758.639 641.584 759.713C642.632 760.781 643.156 762.193 643.156 763.951L643.146 764.459ZM640.471 762.359C640.295 761.767 639.947 761.285 639.426 760.914C638.911 760.543 638.312 760.357 637.629 760.357C636.887 760.357 636.236 760.566 635.676 760.982C635.324 761.243 634.999 761.702 634.699 762.359H640.471ZM651.818 765.074L655.08 758.375H656.838L659.494 769H656.887L655.471 762.77L652.307 769H651.213L648.117 762.77L646.691 769H644.094L646.75 758.375H648.508L651.818 765.074ZM665.969 758.102C666.971 758.102 667.912 758.352 668.791 758.854C669.676 759.355 670.367 760.035 670.861 760.895C671.356 761.754 671.604 762.682 671.604 763.678C671.604 764.68 671.353 765.618 670.852 766.49C670.357 767.363 669.68 768.046 668.82 768.541C667.961 769.029 667.014 769.273 665.979 769.273C664.455 769.273 663.153 768.733 662.072 767.652C660.998 766.565 660.461 765.247 660.461 763.697C660.461 762.037 661.07 760.654 662.287 759.547C663.355 758.583 664.582 758.102 665.969 758.102ZM666.008 760.611C665.181 760.611 664.491 760.901 663.938 761.48C663.391 762.053 663.117 762.789 663.117 763.688C663.117 764.612 663.387 765.361 663.928 765.934C664.475 766.507 665.165 766.793 665.998 766.793C666.831 766.793 667.525 766.503 668.078 765.924C668.632 765.344 668.908 764.599 668.908 763.688C668.908 762.776 668.635 762.037 668.088 761.471C667.548 760.898 666.854 760.611 666.008 760.611ZM684.191 760.523L681.975 761.744C681.558 761.308 681.145 761.005 680.734 760.836C680.331 760.667 679.855 760.582 679.309 760.582C678.312 760.582 677.505 760.882 676.887 761.48C676.275 762.073 675.969 762.835 675.969 763.766C675.969 764.671 676.265 765.41 676.857 765.982C677.45 766.555 678.228 766.842 679.191 766.842C680.383 766.842 681.311 766.435 681.975 765.621L684.074 767.057C682.935 768.535 681.327 769.273 679.25 769.273C677.382 769.273 675.917 768.72 674.855 767.613C673.801 766.507 673.273 765.211 673.273 763.727C673.273 762.698 673.531 761.751 674.045 760.885C674.559 760.019 675.275 759.339 676.193 758.844C677.118 758.349 678.15 758.102 679.289 758.102C680.344 758.102 681.291 758.313 682.131 758.736C682.971 759.153 683.658 759.749 684.191 760.523ZM685.656 758.375H695.559V760.914H692.033V769H689.357V760.914H685.656V758.375ZM698.713 769H697.297V758.375H699.895V764.615L705.334 758.375H706.613V769H704.016V762.887L698.713 769Z" fill="#080C25"/>
<path d="M628 665V671.667M628 671.667C628.659 671.667 629.304 671.862 629.852 672.228C630.4 672.595 630.827 673.115 631.08 673.724C631.332 674.333 631.398 675.004 631.269 675.65C631.141 676.297 630.823 676.891 630.357 677.357C629.891 677.823 629.297 678.141 628.65 678.269C628.004 678.398 627.333 678.332 626.724 678.08C626.115 677.827 625.595 677.4 625.228 676.852C624.862 676.304 624.667 675.659 624.667 675C624.667 674.116 625.018 673.268 625.643 672.643C626.268 672.018 627.116 671.667 628 671.667ZM624.667 674.433L598.467 669.8M657.533 680.2L631.333 675.567M618 708.333V711.667C618 714.319 616.946 716.862 615.071 718.738C613.196 720.613 610.652 721.667 608 721.667C605.348 721.667 602.804 720.613 600.929 718.738C599.054 716.862 598 714.319 598 711.667V708.333M618 708.333H598M618 708.333L608 671.667L598 708.333M658 711.667V715C658 717.652 656.946 720.196 655.071 722.071C653.196 723.946 650.652 725 648 725C645.348 725 642.804 723.946 640.929 722.071C639.054 720.196 638 717.652 638 715V711.667M658 711.667H638M658 711.667L648 678.533L638 711.667" stroke="#3071E7" stroke-width="4" stroke-linecap="round" stroke-linejoin="round"/>
<path d="M522 696.5H559" stroke="#CD4E5C" stroke-width="4" stroke-linecap="round"/>
<path d="M540.5 678L540.5 715" stroke="#CD4E5C" stroke-width="4" stroke-linecap="round"/>
</svg>
