<svg width="134" height="729" viewBox="0 0 134 729" fill="none" xmlns="http://www.w3.org/2000/svg">
<rect x="36.6218" y="336.5" width="69.748" height="44.9828" rx="3.5" stroke="#3071E7" stroke-width="3"/>
<path d="M42.4071 388.491C43.1671 387.595 44.2825 387.078 45.4572 387.078H97.621C98.8795 387.078 100.065 387.671 100.82 388.677L107.256 397.251C109.235 399.888 107.353 403.652 104.056 403.652H38.1823C34.7743 403.652 32.9274 399.663 35.1323 397.064L42.4071 388.491Z" fill="#3071E7" stroke="#3071E7" stroke-width="2"/>
<path d="M37.0675 384.709C37.7206 383.76 38.7987 383.193 39.9505 383.193H101.224C102.42 383.193 103.534 383.805 104.177 384.814L115.276 402.257C116.759 404.587 115.085 407.636 112.324 407.636H27.9446C25.1256 407.636 23.4632 404.473 25.0616 402.151L37.0675 384.709Z" stroke="#3071E7" stroke-width="3"/>
<path d="M58.3712 372.406C58.3712 373.421 57.5484 374.244 56.5335 374.244C55.5186 374.244 54.6958 373.421 54.6958 372.406C54.6958 371.391 55.5186 370.568 56.5335 370.568C57.5484 370.568 58.3712 371.391 58.3712 372.406Z" stroke="#3071E7" stroke-width="2"/>
<circle cx="69.7762" cy="372.406" r="1.83769" stroke="#3071E7" stroke-width="2"/>
<circle cx="84.9104" cy="372.406" r="1.83769" stroke="#3071E7" stroke-width="2"/>
<path d="M60.263 344.029C60.263 345.044 59.4403 345.867 58.4253 345.867C57.4104 345.867 56.5876 345.044 56.5876 344.029C56.5876 343.014 57.4104 342.191 58.4253 342.191C59.4403 342.191 60.263 343.014 60.263 344.029Z" stroke="#3071E7" stroke-width="2"/>
<path d="M86.7481 347.813C86.7481 348.828 85.9254 349.65 84.9104 349.65C83.8955 349.65 83.0728 348.828 83.0728 347.813C83.0728 346.798 83.8955 345.975 84.9104 345.975C85.9254 345.975 86.7481 346.798 86.7481 347.813Z" stroke="#3071E7" stroke-width="2"/>
<path d="M62.1548 360.109C62.1548 361.647 60.9086 362.893 59.3712 362.893C57.8339 362.893 56.5876 361.647 56.5876 360.109C56.5876 358.572 57.8339 357.326 59.3712 357.326C60.9086 357.326 62.1548 358.572 62.1548 360.109Z" stroke="#3071E7" stroke-width="2"/>
<circle cx="80.1808" cy="363.893" r="2.78359" stroke="#3071E7" stroke-width="2"/>
<path d="M75.3974 352.542C75.3974 355.124 73.3042 357.217 70.722 357.217C68.1399 357.217 66.0466 355.124 66.0466 352.542C66.0466 349.96 68.1399 347.867 70.722 347.867C73.3042 347.867 75.3974 349.96 75.3974 352.542Z" stroke="#3071E7" stroke-width="2"/>
<path d="M83.0186 347.813L74.5055 349.704M73.5596 356.326L78.2891 361.055M82.0727 366.731L83.9645 370.514M71.6678 371.46L77.3432 365.785M56.5334 370.514L58.4252 362.947M61.2629 362.947L67.8842 370.514M58.4252 345.921L59.3711 357.272M62.2088 358.217L65.9924 355.38M60.317 344.975L66.9383 348.759" stroke="#3071E7" stroke-width="2" stroke-linecap="round"/>
<path d="M25.7988 317.18H23.1719C23.3086 316.118 23.6895 315.266 24.3145 314.621C25.1868 313.723 26.2839 313.273 27.6055 313.273C28.7839 313.273 29.7702 313.648 30.5645 314.396C31.3652 315.145 31.7656 316.034 31.7656 317.062C31.7656 317.701 31.5898 318.283 31.2383 318.811C30.8932 319.338 30.3887 319.764 29.7246 320.09C30.597 320.35 31.2773 320.806 31.7656 321.457C32.2604 322.102 32.5078 322.863 32.5078 323.742C32.5078 325.031 32.0326 326.125 31.082 327.023C30.1315 327.915 28.9206 328.361 27.4492 328.361C26.056 328.361 24.9199 327.941 24.041 327.102C23.1621 326.255 22.6803 325.106 22.5957 323.654H25.3008C25.418 324.396 25.6751 324.95 26.0723 325.314C26.4759 325.673 26.9837 325.852 27.5957 325.852C28.2337 325.852 28.7611 325.646 29.1777 325.236C29.6009 324.826 29.8125 324.325 29.8125 323.732C29.8125 323.081 29.5293 322.531 28.9629 322.082C28.3965 321.633 27.5794 321.402 26.5117 321.389V319.045C27.1693 318.993 27.6576 318.892 27.9766 318.742C28.3021 318.586 28.5527 318.374 28.7285 318.107C28.9108 317.84 29.002 317.557 29.002 317.258C29.002 316.867 28.8652 316.545 28.5918 316.291C28.3184 316.031 27.9603 315.9 27.5176 315.9C27.127 315.9 26.7721 316.021 26.4531 316.262C26.1341 316.496 25.916 316.802 25.7988 317.18Z" fill="#CD4E5C"/>
<circle cx="27.5" cy="321.5" r="12" stroke="#CD4E5C" stroke-width="3"/>
<path d="M14.3564 415.944H16.2979V419.738H19.6611V415.944H21.5957V426H19.6611V421.591H16.2979V426H14.3564V415.944ZM29.1836 418.562H31.043V426H29.1836V425.214C28.819 425.56 28.4521 425.811 28.083 425.966C27.7184 426.116 27.3219 426.191 26.8936 426.191C25.932 426.191 25.1003 425.82 24.3984 425.077C23.6966 424.33 23.3457 423.402 23.3457 422.295C23.3457 421.146 23.6852 420.205 24.3643 419.472C25.0433 418.738 25.8682 418.371 26.8389 418.371C27.2855 418.371 27.7048 418.455 28.0967 418.624C28.4886 418.793 28.8509 419.046 29.1836 419.383V418.562ZM27.2217 420.094C26.6429 420.094 26.1621 420.299 25.7793 420.709C25.3965 421.115 25.2051 421.636 25.2051 422.274C25.2051 422.917 25.3988 423.446 25.7861 423.86C26.1781 424.275 26.6589 424.482 27.2285 424.482C27.8164 424.482 28.304 424.28 28.6914 423.874C29.0788 423.464 29.2725 422.928 29.2725 422.268C29.2725 421.62 29.0788 421.096 28.6914 420.695C28.304 420.294 27.8141 420.094 27.2217 420.094ZM43.6553 426H32.9229V418.562H34.7959V424.209H37.3525V418.562H39.2256V424.209H41.7891V418.562H43.6553V426ZM51.0449 418.562H52.9043V426H51.0449V425.214C50.6803 425.56 50.3135 425.811 49.9443 425.966C49.5798 426.116 49.1833 426.191 48.7549 426.191C47.7933 426.191 46.9616 425.82 46.2598 425.077C45.5579 424.33 45.207 423.402 45.207 422.295C45.207 421.146 45.5465 420.205 46.2256 419.472C46.9046 418.738 47.7295 418.371 48.7002 418.371C49.1468 418.371 49.5661 418.455 49.958 418.624C50.3499 418.793 50.7122 419.046 51.0449 419.383V418.562ZM49.083 420.094C48.5042 420.094 48.0234 420.299 47.6406 420.709C47.2578 421.115 47.0664 421.636 47.0664 422.274C47.0664 422.917 47.2601 423.446 47.6475 423.86C48.0394 424.275 48.5202 424.482 49.0898 424.482C49.6777 424.482 50.1654 424.28 50.5527 423.874C50.9401 423.464 51.1338 422.928 51.1338 422.268C51.1338 421.62 50.9401 421.096 50.5527 420.695C50.1654 420.294 49.6755 420.094 49.083 420.094ZM65.9951 420.066L64.4434 420.921C64.1517 420.616 63.8623 420.404 63.5752 420.285C63.2926 420.167 62.96 420.107 62.5771 420.107C61.8799 420.107 61.3148 420.317 60.8818 420.736C60.4535 421.151 60.2393 421.684 60.2393 422.336C60.2393 422.969 60.4466 423.487 60.8613 423.888C61.276 424.289 61.8206 424.489 62.4951 424.489C63.3291 424.489 63.9785 424.204 64.4434 423.635L65.9131 424.64C65.1156 425.674 63.9899 426.191 62.5361 426.191C61.2282 426.191 60.2028 425.804 59.46 425.029C58.7217 424.255 58.3525 423.348 58.3525 422.309C58.3525 421.589 58.5326 420.925 58.8926 420.319C59.2526 419.713 59.7539 419.237 60.3965 418.891C61.0436 418.544 61.766 418.371 62.5635 418.371C63.3018 418.371 63.9648 418.519 64.5527 418.815C65.1406 419.107 65.6214 419.524 65.9951 420.066ZM68.668 426H67.6768V418.562H69.4951V422.931L73.3027 418.562H74.1982V426H72.3799V421.721L68.668 426ZM83.3721 420.066L81.8203 420.921C81.5286 420.616 81.2393 420.404 80.9521 420.285C80.6696 420.167 80.3369 420.107 79.9541 420.107C79.2568 420.107 78.6917 420.317 78.2588 420.736C77.8304 421.151 77.6162 421.684 77.6162 422.336C77.6162 422.969 77.8236 423.487 78.2383 423.888C78.653 424.289 79.1976 424.489 79.8721 424.489C80.7061 424.489 81.3555 424.204 81.8203 423.635L83.29 424.64C82.4925 425.674 81.3669 426.191 79.9131 426.191C78.6051 426.191 77.5798 425.804 76.8369 425.029C76.0986 424.255 75.7295 423.348 75.7295 422.309C75.7295 421.589 75.9095 420.925 76.2695 420.319C76.6296 419.713 77.1309 419.237 77.7734 418.891C78.4206 418.544 79.1429 418.371 79.9404 418.371C80.6787 418.371 81.3418 418.519 81.9297 418.815C82.5176 419.107 82.9984 419.524 83.3721 420.066ZM84.3975 418.562H91.3291V420.34H88.8613V426H86.9883V420.34H84.3975V418.562ZM100.004 422.821H94.0088C94.0954 423.35 94.3255 423.771 94.6992 424.086C95.0775 424.396 95.5583 424.551 96.1416 424.551C96.8389 424.551 97.4382 424.307 97.9395 423.819L99.5117 424.558C99.1198 425.114 98.6504 425.526 98.1035 425.795C97.5566 426.059 96.9072 426.191 96.1553 426.191C94.9886 426.191 94.0384 425.825 93.3047 425.091C92.571 424.353 92.2041 423.43 92.2041 422.322C92.2041 421.188 92.5687 420.246 93.2979 419.499C94.0316 418.747 94.9499 418.371 96.0527 418.371C97.224 418.371 98.1764 418.747 98.9102 419.499C99.6439 420.246 100.011 421.235 100.011 422.466L100.004 422.821ZM98.1309 421.352C98.0078 420.937 97.764 420.6 97.3994 420.34C97.0394 420.08 96.6201 419.95 96.1416 419.95C95.6221 419.95 95.1663 420.096 94.7744 420.388C94.5283 420.57 94.3005 420.891 94.0908 421.352H98.1309ZM106.074 423.252L108.357 418.562H109.588L111.447 426H109.622L108.631 421.639L106.416 426H105.65L103.483 421.639L102.485 426H100.667L102.526 418.562H103.757L106.074 423.252ZM117.982 418.562H119.842V426H117.982V425.214C117.618 425.56 117.251 425.811 116.882 425.966C116.517 426.116 116.121 426.191 115.692 426.191C114.731 426.191 113.899 425.82 113.197 425.077C112.495 424.33 112.145 423.402 112.145 422.295C112.145 421.146 112.484 420.205 113.163 419.472C113.842 418.738 114.667 418.371 115.638 418.371C116.084 418.371 116.504 418.455 116.896 418.624C117.287 418.793 117.65 419.046 117.982 419.383V418.562ZM116.021 420.094C115.442 420.094 114.961 420.299 114.578 420.709C114.195 421.115 114.004 421.636 114.004 422.274C114.004 422.917 114.198 423.446 114.585 423.86C114.977 424.275 115.458 424.482 116.027 424.482C116.615 424.482 117.103 424.28 117.49 423.874C117.878 423.464 118.071 422.928 118.071 422.268C118.071 421.62 117.878 421.096 117.49 420.695C117.103 420.294 116.613 420.094 116.021 420.094Z" fill="#080C25"/>
<path d="M43 171H46.2159V232.189H43V171ZM49.4318 232.189V171H94.4545V232.189H49.4318ZM55.8637 179.051V183.882H88.0229V179.051H55.8637ZM55.8637 191.933V196.764H60.6876V191.933H55.8637ZM65.5114 191.933V196.764H86.4149V191.933H65.5114ZM55.8637 204.815V209.646H60.6876V204.815H55.8637ZM65.5114 204.815V209.646H84.8069V204.815H65.5114ZM55.8637 217.697V222.528H60.6876V217.697H55.8637ZM65.5114 217.697V222.528H88.0229V217.697H65.5114Z" fill="#3071E7"/>
<path d="M22.4863 167.264H19.8203C19.8919 165.714 20.377 164.497 21.2754 163.611C22.1803 162.719 23.3392 162.273 24.752 162.273C25.6243 162.273 26.3926 162.459 27.0566 162.83C27.7272 163.195 28.2611 163.725 28.6582 164.422C29.0618 165.112 29.2637 165.815 29.2637 166.531C29.2637 167.384 29.0195 168.302 28.5312 169.285C28.0495 170.268 27.1641 171.43 25.875 172.771L24.2637 174.471H29.3809V177H19.4297V175.691L23.873 171.16C24.9473 170.073 25.6602 169.201 26.0117 168.543C26.3698 167.879 26.5488 167.28 26.5488 166.746C26.5488 166.193 26.3633 165.737 25.9922 165.379C25.6276 165.014 25.1556 164.832 24.5762 164.832C23.9902 164.832 23.502 165.05 23.1113 165.486C22.7207 165.923 22.5124 166.515 22.4863 167.264Z" fill="#CD4E5C"/>
<circle cx="24.5" cy="170.5" r="12" stroke="#CD4E5C" stroke-width="3"/>
<path d="M10.1182 235.944V246H8.2041V239.704L4.45117 246H2.7832V235.944H4.69727V242.445L8.50488 235.944H10.1182ZM19.4902 240.066L17.9385 240.921C17.6468 240.616 17.3574 240.404 17.0703 240.285C16.7878 240.167 16.4551 240.107 16.0723 240.107C15.375 240.107 14.8099 240.317 14.377 240.736C13.9486 241.151 13.7344 241.684 13.7344 242.336C13.7344 242.969 13.9417 243.487 14.3564 243.888C14.7712 244.289 15.3158 244.489 15.9902 244.489C16.8242 244.489 17.4736 244.204 17.9385 243.635L19.4082 244.64C18.6107 245.674 17.485 246.191 16.0312 246.191C14.7233 246.191 13.6979 245.804 12.9551 245.029C12.2168 244.255 11.8477 243.348 11.8477 242.309C11.8477 241.589 12.0277 240.925 12.3877 240.319C12.7477 239.713 13.249 239.237 13.8916 238.891C14.5387 238.544 15.2611 238.371 16.0586 238.371C16.7969 238.371 17.46 238.519 18.0479 238.815C18.6357 239.107 19.1165 239.524 19.4902 240.066ZM20.5156 238.562H27.4473V240.34H24.9795V246H23.1064V240.34H20.5156V238.562ZM32.1641 238.371C32.8659 238.371 33.5244 238.547 34.1396 238.897C34.7594 239.248 35.2425 239.725 35.5889 240.326C35.9352 240.928 36.1084 241.577 36.1084 242.274C36.1084 242.976 35.9329 243.632 35.582 244.243C35.2357 244.854 34.7617 245.332 34.1602 245.679C33.5586 246.021 32.8955 246.191 32.1709 246.191C31.1045 246.191 30.193 245.813 29.4365 245.057C28.6846 244.296 28.3086 243.373 28.3086 242.288C28.3086 241.126 28.7347 240.158 29.5869 239.383C30.3343 238.708 31.1934 238.371 32.1641 238.371ZM32.1914 240.128C31.6126 240.128 31.1296 240.331 30.7422 240.736C30.3594 241.137 30.168 241.652 30.168 242.281C30.168 242.928 30.3571 243.452 30.7354 243.854C31.1182 244.255 31.6012 244.455 32.1846 244.455C32.7679 244.455 33.2533 244.252 33.6406 243.847C34.028 243.441 34.2217 242.919 34.2217 242.281C34.2217 241.643 34.0303 241.126 33.6475 240.729C33.2692 240.328 32.7839 240.128 32.1914 240.128ZM39.4922 238.562V239.383C39.8294 239.046 40.194 238.793 40.5859 238.624C40.9779 238.455 41.3971 238.371 41.8438 238.371C42.8145 238.371 43.6393 238.738 44.3184 239.472C44.9974 240.205 45.3369 241.146 45.3369 242.295C45.3369 243.402 44.986 244.33 44.2842 245.077C43.5824 245.82 42.7507 246.191 41.7891 246.191C41.3607 246.191 40.9619 246.116 40.5928 245.966C40.2236 245.811 39.8568 245.56 39.4922 245.214V248.721H37.6396V238.562H39.4922ZM41.4541 240.094C40.8662 240.094 40.3786 240.294 39.9912 240.695C39.6038 241.096 39.4102 241.62 39.4102 242.268C39.4102 242.928 39.6038 243.464 39.9912 243.874C40.3786 244.28 40.8662 244.482 41.4541 244.482C42.0238 244.482 42.5023 244.275 42.8896 243.86C43.2816 243.446 43.4775 242.917 43.4775 242.274C43.4775 241.636 43.2861 241.115 42.9033 240.709C42.5205 240.299 42.0374 240.094 41.4541 240.094ZM47.8662 246H46.875V238.562H48.6934V242.931L52.501 238.562H53.3965V246H51.5781V241.721L47.8662 246ZM56.5547 242.951C56.1536 242.819 55.8232 242.571 55.5635 242.206C55.3083 241.837 55.1807 241.422 55.1807 240.962C55.1807 240.41 55.3379 239.927 55.6523 239.513C55.9668 239.098 56.3405 238.836 56.7734 238.727C57.2109 238.617 57.8923 238.562 58.8174 238.562H60.7041V246H58.8311V243.307H58.4688L56.6982 246H54.4902L56.5547 242.951ZM58.8311 241.905V240.121H58.1816C57.4753 240.121 57.1221 240.417 57.1221 241.01C57.1221 241.607 57.5163 241.905 58.3047 241.905H58.8311ZM73.624 235.534V237.298C73.0908 237.357 72.5736 237.389 72.0723 237.394C71.1608 237.403 70.4749 237.444 70.0146 237.517C69.5544 237.585 69.1488 237.749 68.7979 238.009C68.4469 238.264 68.1986 238.56 68.0527 238.897C67.9069 239.23 67.818 239.711 67.7861 240.34C68.3239 239.05 69.2467 238.405 70.5547 238.405C71.5163 238.405 72.348 238.758 73.0498 239.465C73.7562 240.167 74.1094 241.074 74.1094 242.186C74.1094 243.334 73.7311 244.289 72.9746 245.05C72.2181 245.811 71.2839 246.191 70.1719 246.191C69.265 246.191 68.4652 245.913 67.7725 245.357C67.0843 244.801 66.6423 244.141 66.4463 243.375C66.2503 242.605 66.1523 241.785 66.1523 240.914C66.1523 239.798 66.2913 238.891 66.5693 238.193C66.8473 237.492 67.2119 236.965 67.6631 236.614C68.1188 236.263 68.6452 236.029 69.2422 235.91C69.8392 235.792 70.7165 235.707 71.874 235.657C72.6579 235.621 73.2412 235.58 73.624 235.534ZM72.2227 242.281C72.2227 241.661 72.0358 241.149 71.6621 240.743C71.293 240.333 70.8031 240.128 70.1924 240.128C69.609 240.128 69.126 240.333 68.7432 240.743C68.3604 241.153 68.1689 241.666 68.1689 242.281C68.1689 242.928 68.3581 243.452 68.7363 243.854C69.1191 244.25 69.6022 244.448 70.1855 244.448C70.7598 244.448 71.2428 244.25 71.6348 243.854C72.0267 243.452 72.2227 242.928 72.2227 242.281ZM79.1406 238.371C79.8424 238.371 80.501 238.547 81.1162 238.897C81.736 239.248 82.2191 239.725 82.5654 240.326C82.9118 240.928 83.085 241.577 83.085 242.274C83.085 242.976 82.9095 243.632 82.5586 244.243C82.2122 244.854 81.7383 245.332 81.1367 245.679C80.5352 246.021 79.8721 246.191 79.1475 246.191C78.0811 246.191 77.1696 245.813 76.4131 245.057C75.6611 244.296 75.2852 243.373 75.2852 242.288C75.2852 241.126 75.7113 240.158 76.5635 239.383C77.3109 238.708 78.1699 238.371 79.1406 238.371ZM79.168 240.128C78.5892 240.128 78.1061 240.331 77.7188 240.736C77.3359 241.137 77.1445 241.652 77.1445 242.281C77.1445 242.928 77.3337 243.452 77.7119 243.854C78.0947 244.255 78.5778 244.455 79.1611 244.455C79.7445 244.455 80.2298 244.252 80.6172 243.847C81.0046 243.441 81.1982 242.919 81.1982 242.281C81.1982 241.643 81.0068 241.126 80.624 240.729C80.2458 240.328 79.7604 240.128 79.168 240.128ZM91.2607 246H89.3604L87.501 241.304L85.6074 246H83.7139L86.8857 238.562H88.0889L91.2607 246ZM99.6963 242.821H93.7012C93.7878 243.35 94.0179 243.771 94.3916 244.086C94.7699 244.396 95.2507 244.551 95.834 244.551C96.5312 244.551 97.1305 244.307 97.6318 243.819L99.2041 244.558C98.8122 245.114 98.3428 245.526 97.7959 245.795C97.249 246.059 96.5996 246.191 95.8477 246.191C94.681 246.191 93.7308 245.825 92.9971 245.091C92.2633 244.353 91.8965 243.43 91.8965 242.322C91.8965 241.188 92.2611 240.246 92.9902 239.499C93.724 238.747 94.6423 238.371 95.7451 238.371C96.9163 238.371 97.8688 238.747 98.6025 239.499C99.3363 240.246 99.7031 241.235 99.7031 242.466L99.6963 242.821ZM97.8232 241.352C97.7002 240.937 97.4564 240.6 97.0918 240.34C96.7318 240.08 96.3125 239.95 95.834 239.95C95.3145 239.95 94.8587 240.096 94.4668 240.388C94.2207 240.57 93.9928 240.891 93.7832 241.352H97.8232ZM102.458 242.849V241.516H102.827C103.078 241.516 103.297 241.456 103.483 241.338C103.67 241.219 103.764 241.028 103.764 240.764C103.764 240.536 103.679 240.349 103.511 240.203C103.347 240.053 103.144 239.978 102.902 239.978C102.597 239.978 102.214 240.126 101.754 240.422L101.016 239.137C101.658 238.626 102.374 238.371 103.162 238.371C103.887 238.371 104.486 238.56 104.96 238.938C105.438 239.312 105.678 239.818 105.678 240.456C105.678 241.103 105.331 241.627 104.639 242.028C105.564 242.37 106.026 242.988 106.026 243.881C106.026 244.546 105.767 245.098 105.247 245.535C104.728 245.973 104.01 246.191 103.094 246.191C102.087 246.191 101.255 245.909 100.599 245.344L101.631 244.045C102.073 244.373 102.492 244.537 102.889 244.537C103.208 244.537 103.461 244.462 103.647 244.312C103.834 244.157 103.928 243.958 103.928 243.717C103.928 243.484 103.839 243.282 103.661 243.108C103.488 242.935 103.249 242.849 102.943 242.849H102.458ZM109.383 241.242H112.158V238.562H114.031V246H112.158V242.917H109.383V246H107.51V238.562H109.383V241.242ZM123.376 242.821H117.381C117.467 243.35 117.698 243.771 118.071 244.086C118.45 244.396 118.93 244.551 119.514 244.551C120.211 244.551 120.81 244.307 121.312 243.819L122.884 244.558C122.492 245.114 122.022 245.526 121.476 245.795C120.929 246.059 120.279 246.191 119.527 246.191C118.361 246.191 117.41 245.825 116.677 245.091C115.943 244.353 115.576 243.43 115.576 242.322C115.576 241.188 115.941 240.246 116.67 239.499C117.404 238.747 118.322 238.371 119.425 238.371C120.596 238.371 121.549 238.747 122.282 239.499C123.016 240.246 123.383 241.235 123.383 242.466L123.376 242.821ZM121.503 241.352C121.38 240.937 121.136 240.6 120.771 240.34C120.411 240.08 119.992 239.95 119.514 239.95C118.994 239.95 118.538 240.096 118.146 240.388C117.9 240.57 117.673 240.891 117.463 241.352H121.503ZM125.878 246H124.887V238.562H126.705V242.931L130.513 238.562H131.408V246H129.59V241.721L125.878 246ZM125.434 235.281H126.944C127.063 235.468 127.227 235.609 127.437 235.705C127.651 235.796 127.91 235.842 128.216 235.842C128.526 235.842 128.806 235.787 129.057 235.678C129.221 235.605 129.364 235.473 129.487 235.281H130.998C130.911 235.86 130.633 236.325 130.164 236.676C129.699 237.027 129.048 237.202 128.209 237.202C127.644 237.202 127.17 237.125 126.787 236.97C126.409 236.81 126.104 236.585 125.871 236.293C125.639 236.001 125.493 235.664 125.434 235.281ZM22.04 264H20.167V256.562H26.6885V264H24.8154V258.36H22.04V264ZM32.0752 256.371C32.777 256.371 33.4355 256.547 34.0508 256.897C34.6706 257.248 35.1536 257.725 35.5 258.326C35.8464 258.928 36.0195 259.577 36.0195 260.274C36.0195 260.976 35.8441 261.632 35.4932 262.243C35.1468 262.854 34.6729 263.332 34.0713 263.679C33.4697 264.021 32.8066 264.191 32.082 264.191C31.0156 264.191 30.1042 263.813 29.3477 263.057C28.5957 262.296 28.2197 261.373 28.2197 260.288C28.2197 259.126 28.6458 258.158 29.498 257.383C30.2454 256.708 31.1045 256.371 32.0752 256.371ZM32.1025 258.128C31.5238 258.128 31.0407 258.331 30.6533 258.736C30.2705 259.137 30.0791 259.652 30.0791 260.281C30.0791 260.928 30.2682 261.452 30.6465 261.854C31.0293 262.255 31.5124 262.455 32.0957 262.455C32.679 262.455 33.1644 262.252 33.5518 261.847C33.9391 261.441 34.1328 260.919 34.1328 260.281C34.1328 259.643 33.9414 259.126 33.5586 258.729C33.1803 258.328 32.695 258.128 32.1025 258.128ZM44.1953 264H42.2949L40.4355 259.304L38.542 264H36.6484L39.8203 256.562H41.0234L44.1953 264ZM47.0459 259.242H47.5996C48.3789 259.242 48.9759 259.304 49.3906 259.427C49.8099 259.545 50.1631 259.796 50.4502 260.179C50.7373 260.562 50.8809 261.042 50.8809 261.621C50.8809 262.195 50.751 262.674 50.4912 263.057C50.2314 263.435 49.8988 263.688 49.4932 263.815C49.0921 263.938 48.527 264 47.7979 264H45.1729V256.562H47.0459V259.242ZM47.0459 262.564H47.6133C47.9505 262.564 48.1943 262.542 48.3447 262.496C48.4951 262.446 48.6273 262.353 48.7412 262.216C48.8551 262.079 48.9121 261.913 48.9121 261.717C48.9121 261.079 48.5475 260.76 47.8184 260.76H47.0459V262.564ZM53.5605 260.849V259.516H53.9297C54.1803 259.516 54.3991 259.456 54.5859 259.338C54.7728 259.219 54.8662 259.028 54.8662 258.764C54.8662 258.536 54.7819 258.349 54.6133 258.203C54.4492 258.053 54.2464 257.978 54.0049 257.978C53.6995 257.978 53.3167 258.126 52.8564 258.422L52.1182 257.137C52.7607 256.626 53.4762 256.371 54.2646 256.371C54.9893 256.371 55.5885 256.56 56.0625 256.938C56.541 257.312 56.7803 257.818 56.7803 258.456C56.7803 259.103 56.4339 259.627 55.7412 260.028C56.6663 260.37 57.1289 260.988 57.1289 261.881C57.1289 262.546 56.8691 263.098 56.3496 263.535C55.8301 263.973 55.1123 264.191 54.1963 264.191C53.1891 264.191 52.3574 263.909 51.7012 263.344L52.7334 262.045C53.1755 262.373 53.5947 262.537 53.9912 262.537C54.3102 262.537 54.5632 262.462 54.75 262.312C54.9368 262.157 55.0303 261.958 55.0303 261.717C55.0303 261.484 54.9414 261.282 54.7637 261.108C54.5905 260.935 54.3512 260.849 54.0459 260.849H53.5605ZM62.1123 256.371C62.8141 256.371 63.4727 256.547 64.0879 256.897C64.7077 257.248 65.1908 257.725 65.5371 258.326C65.8835 258.928 66.0566 259.577 66.0566 260.274C66.0566 260.976 65.8812 261.632 65.5303 262.243C65.1839 262.854 64.71 263.332 64.1084 263.679C63.5068 264.021 62.8438 264.191 62.1191 264.191C61.0527 264.191 60.1413 263.813 59.3848 263.057C58.6328 262.296 58.2568 261.373 58.2568 260.288C58.2568 259.126 58.6829 258.158 59.5352 257.383C60.2826 256.708 61.1416 256.371 62.1123 256.371ZM62.1396 258.128C61.5609 258.128 61.0778 258.331 60.6904 258.736C60.3076 259.137 60.1162 259.652 60.1162 260.281C60.1162 260.928 60.3053 261.452 60.6836 261.854C61.0664 262.255 61.5495 262.455 62.1328 262.455C62.7161 262.455 63.2015 262.252 63.5889 261.847C63.9762 261.441 64.1699 260.919 64.1699 260.281C64.1699 259.643 63.9785 259.126 63.5957 258.729C63.2174 258.328 62.7321 258.128 62.1396 258.128ZM67.5879 264V256.562H70.5752C71.555 256.562 72.2204 256.756 72.5713 257.144C72.9222 257.526 73.0977 257.962 73.0977 258.449C73.0977 259.174 72.7376 259.696 72.0176 260.015C73.002 260.352 73.4941 260.988 73.4941 261.922C73.4941 262.428 73.3643 262.847 73.1045 263.18C72.8447 263.508 72.5143 263.727 72.1133 263.836C71.7168 263.945 71.1608 264 70.4453 264H67.5879ZM69.4609 259.488H70.1787C70.484 259.488 70.7188 259.413 70.8828 259.263C71.0514 259.108 71.1357 258.937 71.1357 258.75C71.1357 258.472 71.056 258.256 70.8965 258.101C70.737 257.946 70.5479 257.868 70.3291 257.868L70.0898 257.875H69.4609V259.488ZM69.4609 262.564H70.3975C70.762 262.564 71.0173 262.48 71.1631 262.312C71.3135 262.138 71.3887 261.97 71.3887 261.806C71.3887 261.564 71.3044 261.343 71.1357 261.143C70.9717 260.942 70.6732 260.842 70.2402 260.842H69.4609V262.564ZM80.5762 256.562H82.4355V264H80.5762V263.214C80.2116 263.56 79.8447 263.811 79.4756 263.966C79.111 264.116 78.7145 264.191 78.2861 264.191C77.3245 264.191 76.4928 263.82 75.791 263.077C75.0892 262.33 74.7383 261.402 74.7383 260.295C74.7383 259.146 75.0778 258.205 75.7568 257.472C76.4359 256.738 77.2607 256.371 78.2314 256.371C78.6781 256.371 79.0973 256.455 79.4893 256.624C79.8812 256.793 80.2435 257.046 80.5762 257.383V256.562ZM78.6143 258.094C78.0355 258.094 77.5547 258.299 77.1719 258.709C76.7891 259.115 76.5977 259.636 76.5977 260.274C76.5977 260.917 76.7913 261.446 77.1787 261.86C77.5706 262.275 78.0514 262.482 78.6211 262.482C79.209 262.482 79.6966 262.28 80.084 261.874C80.4714 261.464 80.665 260.928 80.665 260.268C80.665 259.62 80.4714 259.096 80.084 258.695C79.6966 258.294 79.2067 258.094 78.6143 258.094ZM83.6592 256.562H90.5908V258.34H88.123V264H86.25V258.34H83.6592V256.562ZM99.2656 260.821H93.2705C93.3571 261.35 93.5872 261.771 93.9609 262.086C94.3392 262.396 94.82 262.551 95.4033 262.551C96.1006 262.551 96.6999 262.307 97.2012 261.819L98.7734 262.558C98.3815 263.114 97.9121 263.526 97.3652 263.795C96.8184 264.059 96.1689 264.191 95.417 264.191C94.2503 264.191 93.3001 263.825 92.5664 263.091C91.8327 262.353 91.4658 261.43 91.4658 260.322C91.4658 259.188 91.8304 258.246 92.5596 257.499C93.2933 256.747 94.2116 256.371 95.3145 256.371C96.4857 256.371 97.4382 256.747 98.1719 257.499C98.9056 258.246 99.2725 259.235 99.2725 260.466L99.2656 260.821ZM97.3926 259.352C97.2695 258.937 97.0257 258.6 96.6611 258.34C96.3011 258.08 95.8818 257.95 95.4033 257.95C94.8838 257.95 94.4281 258.096 94.0361 258.388C93.79 258.57 93.5622 258.891 93.3525 259.352H97.3926ZM107.428 264H105.527L103.668 259.304L101.774 264H99.8809L103.053 256.562H104.256L107.428 264ZM109.677 260.951C109.276 260.819 108.945 260.571 108.686 260.206C108.43 259.837 108.303 259.422 108.303 258.962C108.303 258.41 108.46 257.927 108.774 257.513C109.089 257.098 109.463 256.836 109.896 256.727C110.333 256.617 111.014 256.562 111.939 256.562H113.826V264H111.953V261.307H111.591L109.82 264H107.612L109.677 260.951ZM111.953 259.905V258.121H111.304C110.597 258.121 110.244 258.417 110.244 259.01C110.244 259.607 110.638 259.905 111.427 259.905H111.953Z" fill="#080C25"/>
<ellipse cx="42.6842" cy="509.457" rx="3.68421" ry="3.65714" fill="#3071E7"/>
<ellipse cx="42.6842" cy="520.429" rx="3.68421" ry="3.65714" fill="#3071E7"/>
<ellipse cx="42.6842" cy="531.4" rx="3.68421" ry="3.65714" fill="#3071E7"/>
<ellipse cx="42.6842" cy="542.371" rx="3.68421" ry="3.65714" fill="#3071E7"/>
<ellipse cx="42.6842" cy="553.343" rx="3.68421" ry="3.65714" fill="#3071E7"/>
<ellipse cx="61.1054" cy="520.429" rx="3.68421" ry="3.65714" fill="#3071E7"/>
<ellipse cx="61.1054" cy="542.371" rx="3.68421" ry="3.65714" fill="#3071E7"/>
<ellipse cx="72.1578" cy="520.429" rx="3.68421" ry="3.65714" fill="#3071E7"/>
<ellipse cx="72.1578" cy="542.371" rx="3.68421" ry="3.65714" fill="#3071E7"/>
<ellipse cx="83.2106" cy="542.371" rx="3.68421" ry="3.65714" fill="#3071E7"/>
<ellipse cx="83.2106" cy="520.429" rx="3.68421" ry="3.65714" fill="#3071E7"/>
<ellipse cx="61.1054" cy="531.4" rx="3.68421" ry="3.65714" fill="#3071E7"/>
<ellipse cx="61.1054" cy="553.343" rx="3.68421" ry="3.65714" fill="#3071E7"/>
<ellipse cx="72.1578" cy="531.4" rx="3.68421" ry="3.65714" fill="#3071E7"/>
<ellipse cx="72.1578" cy="553.343" rx="3.68421" ry="3.65714" fill="#3071E7"/>
<ellipse cx="94.2631" cy="553.343" rx="3.68421" ry="3.65714" fill="#3071E7"/>
<ellipse cx="83.2106" cy="531.4" rx="3.68421" ry="3.65714" fill="#3071E7"/>
<ellipse cx="83.2106" cy="553.343" rx="3.68421" ry="3.65714" fill="#3071E7"/>
<ellipse cx="94.2631" cy="531.4" rx="3.68421" ry="3.65714" fill="#3071E7"/>
<ellipse cx="105.316" cy="531.4" rx="3.68421" ry="3.65714" fill="#3071E7"/>
<ellipse cx="61.1054" cy="509.457" rx="3.68421" ry="3.65714" fill="#3071E7"/>
<ellipse cx="72.1578" cy="509.457" rx="3.68421" ry="3.65714" fill="#3071E7"/>
<path d="M40.842 500.314H107.158" stroke="#3071E7" stroke-width="2" stroke-linecap="round"/>
<path d="M51.8948 493V555.171" stroke="#3071E7" stroke-width="2" stroke-linecap="round"/>
<path d="M25.6211 478.273H28.3555V487.521H29.6348V490.051H28.3555V493H25.6797V490.051H19.4102V487.521L25.6211 478.273ZM25.6797 487.521V482.707L22.3984 487.521H25.6797Z" fill="#CD4E5C"/>
<circle cx="24.5" cy="486.5" r="12" stroke="#CD4E5C" stroke-width="3"/>
<path d="M33.0811 561.944H35.0156V565.403L37.7432 561.944H40.0469L36.5332 566.429L40.3887 572H38.1191L35.0156 567.536V572H33.0811V561.944ZM48.1885 572H46.2881L44.4287 567.304L42.5352 572H40.6416L43.8135 564.562H45.0166L48.1885 572ZM50.1572 572H49.166V564.562H50.9844V568.931L54.792 564.562H55.6875V572H53.8691V567.721L50.1572 572ZM59.4473 567.242H62.2227V564.562H64.0957V572H62.2227V568.917H59.4473V572H57.5742V564.562H59.4473V567.242ZM66.9736 572H65.9824V564.562H67.8008V568.931L71.6084 564.562H72.5039V572H70.6855V567.721L66.9736 572ZM78.4307 569.047H76.9336C75.9219 569.047 75.1426 568.853 74.5957 568.466C74.0534 568.074 73.7822 567.431 73.7822 566.538V564.562H75.6553V566.395C75.6553 567.046 76.0905 567.372 76.9609 567.372L77.6855 567.365H78.4307V564.562H80.3037V572H78.4307V569.047ZM89.6416 568.821H83.6465C83.7331 569.35 83.9632 569.771 84.3369 570.086C84.7152 570.396 85.196 570.551 85.7793 570.551C86.4766 570.551 87.0758 570.307 87.5771 569.819L89.1494 570.558C88.7575 571.114 88.2881 571.526 87.7412 571.795C87.1943 572.059 86.5449 572.191 85.793 572.191C84.6263 572.191 83.6761 571.825 82.9424 571.091C82.2087 570.353 81.8418 569.43 81.8418 568.322C81.8418 567.188 82.2064 566.246 82.9355 565.499C83.6693 564.747 84.5876 564.371 85.6904 564.371C86.8617 564.371 87.8141 564.747 88.5479 565.499C89.2816 566.246 89.6484 567.235 89.6484 568.466L89.6416 568.821ZM87.7686 567.352C87.6455 566.937 87.4017 566.6 87.0371 566.34C86.6771 566.08 86.2578 565.95 85.7793 565.95C85.2598 565.95 84.804 566.096 84.4121 566.388C84.166 566.57 83.9382 566.891 83.7285 567.352H87.7686ZM98.4395 566.066L96.8877 566.921C96.596 566.616 96.3066 566.404 96.0195 566.285C95.737 566.167 95.4043 566.107 95.0215 566.107C94.3242 566.107 93.7591 566.317 93.3262 566.736C92.8978 567.151 92.6836 567.684 92.6836 568.336C92.6836 568.969 92.891 569.487 93.3057 569.888C93.7204 570.289 94.265 570.489 94.9395 570.489C95.7734 570.489 96.4229 570.204 96.8877 569.635L98.3574 570.64C97.5599 571.674 96.4342 572.191 94.9805 572.191C93.6725 572.191 92.6471 571.804 91.9043 571.029C91.166 570.255 90.7969 569.348 90.7969 568.309C90.7969 567.589 90.9769 566.925 91.3369 566.319C91.6969 565.713 92.1982 565.237 92.8408 564.891C93.488 564.544 94.2103 564.371 95.0078 564.371C95.7461 564.371 96.4092 564.519 96.9971 564.815C97.585 565.107 98.0658 565.524 98.4395 566.066ZM100.128 564.562H101.994V567.345L104.564 564.562H106.841L103.525 568.186L106.882 572H104.407L102.192 569.375L101.994 569.607V572H100.128V564.562ZM108.632 572H107.641V564.562H109.459V568.931L113.267 564.562H114.162V572H112.344V567.721L108.632 572ZM123.507 568.821H117.512C117.598 569.35 117.828 569.771 118.202 570.086C118.58 570.396 119.061 570.551 119.645 570.551C120.342 570.551 120.941 570.307 121.442 569.819L123.015 570.558C122.623 571.114 122.153 571.526 121.606 571.795C121.06 572.059 120.41 572.191 119.658 572.191C118.492 572.191 117.541 571.825 116.808 571.091C116.074 570.353 115.707 569.43 115.707 568.322C115.707 567.188 116.072 566.246 116.801 565.499C117.535 564.747 118.453 564.371 119.556 564.371C120.727 564.371 121.679 564.747 122.413 565.499C123.147 566.246 123.514 567.235 123.514 568.466L123.507 568.821ZM121.634 567.352C121.511 566.937 121.267 566.6 120.902 566.34C120.542 566.08 120.123 565.95 119.645 565.95C119.125 565.95 118.669 566.096 118.277 566.388C118.031 566.57 117.803 566.891 117.594 567.352H121.634ZM26.9697 582.562V583.383C27.307 583.046 27.6715 582.793 28.0635 582.624C28.4554 582.455 28.8747 582.371 29.3213 582.371C30.292 582.371 31.1169 582.738 31.7959 583.472C32.4749 584.205 32.8145 585.146 32.8145 586.295C32.8145 587.402 32.4635 588.33 31.7617 589.077C31.0599 589.82 30.2282 590.191 29.2666 590.191C28.8382 590.191 28.4395 590.116 28.0703 589.966C27.7012 589.811 27.3343 589.56 26.9697 589.214V592.721H25.1172V582.562H26.9697ZM28.9316 584.094C28.3438 584.094 27.8561 584.294 27.4688 584.695C27.0814 585.096 26.8877 585.62 26.8877 586.268C26.8877 586.928 27.0814 587.464 27.4688 587.874C27.8561 588.28 28.3438 588.482 28.9316 588.482C29.5013 588.482 29.9798 588.275 30.3672 587.86C30.7591 587.446 30.9551 586.917 30.9551 586.274C30.9551 585.636 30.7637 585.115 30.3809 584.709C29.998 584.299 29.515 584.094 28.9316 584.094ZM41.8105 586.821H35.8154C35.902 587.35 36.1322 587.771 36.5059 588.086C36.8841 588.396 37.3649 588.551 37.9482 588.551C38.6455 588.551 39.2448 588.307 39.7461 587.819L41.3184 588.558C40.9264 589.114 40.457 589.526 39.9102 589.795C39.3633 590.059 38.7139 590.191 37.9619 590.191C36.7952 590.191 35.8451 589.825 35.1113 589.091C34.3776 588.353 34.0107 587.43 34.0107 586.322C34.0107 585.188 34.3753 584.246 35.1045 583.499C35.8382 582.747 36.7565 582.371 37.8594 582.371C39.0306 582.371 39.9831 582.747 40.7168 583.499C41.4505 584.246 41.8174 585.235 41.8174 586.466L41.8105 586.821ZM39.9375 585.352C39.8145 584.937 39.5706 584.6 39.2061 584.34C38.846 584.08 38.4268 583.95 37.9482 583.95C37.4287 583.95 36.973 584.096 36.5811 584.388C36.335 584.57 36.1071 584.891 35.8975 585.352H39.9375ZM43.3281 582.562H45.1943V585.345L47.7646 582.562H50.041L46.7256 586.186L50.082 590H47.6074L45.3926 587.375L45.1943 587.607V590H43.3281V582.562ZM54.3408 582.371C55.0426 582.371 55.7012 582.547 56.3164 582.897C56.9362 583.248 57.4193 583.725 57.7656 584.326C58.112 584.928 58.2852 585.577 58.2852 586.274C58.2852 586.976 58.1097 587.632 57.7588 588.243C57.4124 588.854 56.9385 589.332 56.3369 589.679C55.7354 590.021 55.0723 590.191 54.3477 590.191C53.2812 590.191 52.3698 589.813 51.6133 589.057C50.8613 588.296 50.4854 587.373 50.4854 586.288C50.4854 585.126 50.9115 584.158 51.7637 583.383C52.5111 582.708 53.3701 582.371 54.3408 582.371ZM54.3682 584.128C53.7894 584.128 53.3063 584.331 52.9189 584.736C52.5361 585.137 52.3447 585.652 52.3447 586.281C52.3447 586.928 52.5339 587.452 52.9121 587.854C53.2949 588.255 53.778 588.455 54.3613 588.455C54.9447 588.455 55.43 588.252 55.8174 587.847C56.2048 587.441 56.3984 586.919 56.3984 586.281C56.3984 585.643 56.207 585.126 55.8242 584.729C55.446 584.328 54.9606 584.128 54.3682 584.128ZM64.3691 587.252L66.6523 582.562H67.8828L69.7422 590H67.917L66.9258 585.639L64.7109 590H63.9453L61.7783 585.639L60.7803 590H58.9619L60.8213 582.562H62.0518L64.3691 587.252ZM78.2324 586.821H72.2373C72.3239 587.35 72.554 587.771 72.9277 588.086C73.306 588.396 73.7868 588.551 74.3701 588.551C75.0674 588.551 75.6667 588.307 76.168 587.819L77.7402 588.558C77.3483 589.114 76.8789 589.526 76.332 589.795C75.7852 590.059 75.1357 590.191 74.3838 590.191C73.2171 590.191 72.2669 589.825 71.5332 589.091C70.7995 588.353 70.4326 587.43 70.4326 586.322C70.4326 585.188 70.7972 584.246 71.5264 583.499C72.2601 582.747 73.1784 582.371 74.2812 582.371C75.4525 582.371 76.4049 582.747 77.1387 583.499C77.8724 584.246 78.2393 585.235 78.2393 586.466L78.2324 586.821ZM76.3594 585.352C76.2363 584.937 75.9925 584.6 75.6279 584.34C75.2679 584.08 74.8486 583.95 74.3701 583.95C73.8506 583.95 73.3949 584.096 73.0029 584.388C72.7568 584.57 72.529 584.891 72.3193 585.352H76.3594ZM81.6162 585.242H84.3916V582.562H86.2646V590H84.3916V586.917H81.6162V590H79.7432V582.562H81.6162V585.242ZM89.1221 590V591.292H87.4609V588.421H88.582L91.1455 582.562H92.3486L94.9463 588.421H96.0879V591.292H94.3105V590H89.1221ZM92.9639 588.421L91.7471 585.29L90.4893 588.421H92.9639ZM102.773 582.562H104.633V590H102.773V589.214C102.409 589.56 102.042 589.811 101.673 589.966C101.308 590.116 100.912 590.191 100.483 590.191C99.5218 590.191 98.6901 589.82 97.9883 589.077C97.2865 588.33 96.9355 587.402 96.9355 586.295C96.9355 585.146 97.2751 584.205 97.9541 583.472C98.6331 582.738 99.458 582.371 100.429 582.371C100.875 582.371 101.295 582.455 101.687 582.624C102.078 582.793 102.441 583.046 102.773 583.383V582.562ZM100.812 584.094C100.233 584.094 99.752 584.299 99.3691 584.709C98.9863 585.115 98.7949 585.636 98.7949 586.274C98.7949 586.917 98.9886 587.446 99.376 587.86C99.7679 588.275 100.249 588.482 100.818 588.482C101.406 588.482 101.894 588.28 102.281 587.874C102.669 587.464 102.862 586.928 102.862 586.268C102.862 585.62 102.669 585.096 102.281 584.695C101.894 584.294 101.404 584.094 100.812 584.094ZM106.513 590V582.562H108.386V588.209H111.161V582.562H113.034V588.209H114.928V591.306H113.15V590H106.513ZM116.938 590H115.946V582.562H117.765V586.931L121.572 582.562H122.468V590H120.649V585.721L116.938 590ZM125.346 590H124.354V582.562H126.173V586.931L129.98 582.562H130.876V590H129.058V585.721L125.346 590Z" fill="#080C25"/>
<path d="M66.5 47.6488C73.1965 47.6488 78.625 42.2202 78.625 35.5238C78.625 28.8273 73.1965 23.3988 66.5 23.3988C59.8035 23.3988 54.375 28.8273 54.375 35.5238C54.375 42.2202 59.8035 47.6488 66.5 47.6488Z" stroke="#3071E7" stroke-width="4" stroke-linecap="round" stroke-linejoin="round"/>
<path d="M36.1875 89.6013C36.1875 81.5619 39.3811 73.8518 45.0658 68.1671C50.7505 62.4824 58.4606 59.2887 66.5 59.2887C74.5394 59.2887 82.2495 62.4824 87.9342 68.1671C93.6189 73.8518 96.8125 81.5619 96.8125 89.6013" stroke="#3071E7" stroke-width="4" stroke-linecap="round" stroke-linejoin="round"/>
<path d="M23.291 5.63477H27.3828V20H24.668V8.20312H21.709L23.291 5.63477Z" fill="#CD4E5C"/>
<circle cx="25.5" cy="13.5" r="12" stroke="#CD4E5C" stroke-width="3"/>
<path d="M17.8936 98.9443H25.1328V109H23.1982V100.735H19.835V109H17.8936V98.9443ZM30.7178 101.371C31.4196 101.371 32.0781 101.547 32.6934 101.897C33.3132 102.248 33.7962 102.725 34.1426 103.326C34.4889 103.928 34.6621 104.577 34.6621 105.274C34.6621 105.976 34.4867 106.632 34.1357 107.243C33.7894 107.854 33.3154 108.332 32.7139 108.679C32.1123 109.021 31.4492 109.191 30.7246 109.191C29.6582 109.191 28.7467 108.813 27.9902 108.057C27.2383 107.296 26.8623 106.373 26.8623 105.288C26.8623 104.126 27.2884 103.158 28.1406 102.383C28.888 101.708 29.7471 101.371 30.7178 101.371ZM30.7451 103.128C30.1663 103.128 29.6833 103.331 29.2959 103.736C28.9131 104.137 28.7217 104.652 28.7217 105.281C28.7217 105.928 28.9108 106.452 29.2891 106.854C29.6719 107.255 30.1549 107.455 30.7383 107.455C31.3216 107.455 31.807 107.252 32.1943 106.847C32.5817 106.441 32.7754 105.919 32.7754 105.281C32.7754 104.643 32.584 104.126 32.2012 103.729C31.8229 103.328 31.3376 103.128 30.7451 103.128ZM42.8379 109H40.9375L39.0781 104.304L37.1846 109H35.291L38.4629 101.562H39.666L42.8379 109ZM45.6885 104.242H46.2422C47.0215 104.242 47.6185 104.304 48.0332 104.427C48.4525 104.545 48.8057 104.796 49.0928 105.179C49.3799 105.562 49.5234 106.042 49.5234 106.621C49.5234 107.195 49.3936 107.674 49.1338 108.057C48.874 108.435 48.5413 108.688 48.1357 108.815C47.7347 108.938 47.1696 109 46.4404 109H43.8154V101.562H45.6885V104.242ZM45.6885 107.564H46.2559C46.5931 107.564 46.8369 107.542 46.9873 107.496C47.1377 107.446 47.2699 107.353 47.3838 107.216C47.4977 107.079 47.5547 106.913 47.5547 106.717C47.5547 106.079 47.1901 105.76 46.4609 105.76H45.6885V107.564ZM52.2031 105.849V104.516H52.5723C52.8229 104.516 53.0417 104.456 53.2285 104.338C53.4154 104.219 53.5088 104.028 53.5088 103.764C53.5088 103.536 53.4245 103.349 53.2559 103.203C53.0918 103.053 52.889 102.978 52.6475 102.978C52.3421 102.978 51.9593 103.126 51.499 103.422L50.7607 102.137C51.4033 101.626 52.1188 101.371 52.9072 101.371C53.6318 101.371 54.2311 101.56 54.7051 101.938C55.1836 102.312 55.4229 102.818 55.4229 103.456C55.4229 104.103 55.0765 104.627 54.3838 105.028C55.3089 105.37 55.7715 105.988 55.7715 106.881C55.7715 107.546 55.5117 108.098 54.9922 108.535C54.4727 108.973 53.7549 109.191 52.8389 109.191C51.8317 109.191 51 108.909 50.3438 108.344L51.376 107.045C51.818 107.373 52.2373 107.537 52.6338 107.537C52.9528 107.537 53.2057 107.462 53.3926 107.312C53.5794 107.157 53.6729 106.958 53.6729 106.717C53.6729 106.484 53.584 106.282 53.4062 106.108C53.2331 105.935 52.9938 105.849 52.6885 105.849H52.2031ZM60.7549 101.371C61.4567 101.371 62.1152 101.547 62.7305 101.897C63.3503 102.248 63.8333 102.725 64.1797 103.326C64.526 103.928 64.6992 104.577 64.6992 105.274C64.6992 105.976 64.5238 106.632 64.1729 107.243C63.8265 107.854 63.3525 108.332 62.751 108.679C62.1494 109.021 61.4863 109.191 60.7617 109.191C59.6953 109.191 58.7839 108.813 58.0273 108.057C57.2754 107.296 56.8994 106.373 56.8994 105.288C56.8994 104.126 57.3255 103.158 58.1777 102.383C58.9251 101.708 59.7842 101.371 60.7549 101.371ZM60.7822 103.128C60.2035 103.128 59.7204 103.331 59.333 103.736C58.9502 104.137 58.7588 104.652 58.7588 105.281C58.7588 105.928 58.9479 106.452 59.3262 106.854C59.709 107.255 60.1921 107.455 60.7754 107.455C61.3587 107.455 61.8441 107.252 62.2314 106.847C62.6188 106.441 62.8125 105.919 62.8125 105.281C62.8125 104.643 62.6211 104.126 62.2383 103.729C61.86 103.328 61.3747 103.128 60.7822 103.128ZM66.2305 109V101.562H69.2178C70.1976 101.562 70.863 101.756 71.2139 102.144C71.5648 102.526 71.7402 102.962 71.7402 103.449C71.7402 104.174 71.3802 104.696 70.6602 105.015C71.6445 105.352 72.1367 105.988 72.1367 106.922C72.1367 107.428 72.0068 107.847 71.7471 108.18C71.4873 108.508 71.1569 108.727 70.7559 108.836C70.3594 108.945 69.8034 109 69.0879 109H66.2305ZM68.1035 104.488H68.8213C69.1266 104.488 69.3613 104.413 69.5254 104.263C69.694 104.108 69.7783 103.937 69.7783 103.75C69.7783 103.472 69.6986 103.256 69.5391 103.101C69.3796 102.946 69.1904 102.868 68.9717 102.868L68.7324 102.875H68.1035V104.488ZM68.1035 107.564H69.04C69.4046 107.564 69.6598 107.48 69.8057 107.312C69.9561 107.138 70.0312 106.97 70.0312 106.806C70.0312 106.564 69.9469 106.343 69.7783 106.143C69.6143 105.942 69.3158 105.842 68.8828 105.842H68.1035V107.564ZM79.2188 101.562H81.0781V109H79.2188V108.214C78.8542 108.56 78.4873 108.811 78.1182 108.966C77.7536 109.116 77.3571 109.191 76.9287 109.191C75.9671 109.191 75.1354 108.82 74.4336 108.077C73.7318 107.33 73.3809 106.402 73.3809 105.295C73.3809 104.146 73.7204 103.205 74.3994 102.472C75.0785 101.738 75.9033 101.371 76.874 101.371C77.3206 101.371 77.7399 101.455 78.1318 101.624C78.5238 101.793 78.8861 102.046 79.2188 102.383V101.562ZM77.2568 103.094C76.6781 103.094 76.1973 103.299 75.8145 103.709C75.4316 104.115 75.2402 104.636 75.2402 105.274C75.2402 105.917 75.4339 106.446 75.8213 106.86C76.2132 107.275 76.694 107.482 77.2637 107.482C77.8516 107.482 78.3392 107.28 78.7266 106.874C79.1139 106.464 79.3076 105.928 79.3076 105.268C79.3076 104.62 79.1139 104.096 78.7266 103.695C78.3392 103.294 77.8493 103.094 77.2568 103.094ZM82.3018 101.562H89.2334V103.34H86.7656V109H84.8926V103.34H82.3018V101.562ZM97.9082 105.821H91.9131C91.9997 106.35 92.2298 106.771 92.6035 107.086C92.9818 107.396 93.4626 107.551 94.0459 107.551C94.7432 107.551 95.3424 107.307 95.8438 106.819L97.416 107.558C97.0241 108.114 96.5547 108.526 96.0078 108.795C95.4609 109.059 94.8115 109.191 94.0596 109.191C92.8929 109.191 91.9427 108.825 91.209 108.091C90.4753 107.353 90.1084 106.43 90.1084 105.322C90.1084 104.188 90.473 103.246 91.2021 102.499C91.9359 101.747 92.8542 101.371 93.957 101.371C95.1283 101.371 96.0807 101.747 96.8145 102.499C97.5482 103.246 97.915 104.235 97.915 105.466L97.9082 105.821ZM96.0352 104.352C95.9121 103.937 95.6683 103.6 95.3037 103.34C94.9437 103.08 94.5244 102.95 94.0459 102.95C93.5264 102.95 93.0706 103.096 92.6787 103.388C92.4326 103.57 92.2048 103.891 91.9951 104.352H96.0352ZM106.07 109H104.17L102.311 104.304L100.417 109H98.5234L101.695 101.562H102.898L106.07 109ZM108.921 104.242H109.475C110.254 104.242 110.851 104.304 111.266 104.427C111.685 104.545 112.038 104.796 112.325 105.179C112.612 105.562 112.756 106.042 112.756 106.621C112.756 107.195 112.626 107.674 112.366 108.057C112.106 108.435 111.774 108.688 111.368 108.815C110.967 108.938 110.402 109 109.673 109H107.048V101.562H108.921V104.242ZM108.921 107.564H109.488C109.826 107.564 110.069 107.542 110.22 107.496C110.37 107.446 110.502 107.353 110.616 107.216C110.73 107.079 110.787 106.913 110.787 106.717C110.787 106.079 110.423 105.76 109.693 105.76H108.921V107.564Z" fill="#080C25"/>
<path d="M60.5807 649.576H101.468C103.521 649.576 105.185 650.62 105.185 652.673C105.185 654.726 103.521 655.771 101.468 655.771H60.5807C58.5278 655.771 56.8637 654.726 56.8637 652.673C56.8637 650.62 58.5278 649.576 60.5807 649.576ZM60.5806 664.444L108.283 664.444C110.336 664.444 112 665.489 112 667.542C112 669.595 109.73 670.51 107.677 670.51L59.9747 670.51C57.9218 670.51 56.8635 669.594 56.8635 667.542C56.8635 665.489 58.5278 664.444 60.5806 664.444ZM60.5807 679.312L95.8926 679.312C97.9455 679.312 99.6097 680.357 99.6097 682.41C99.6097 684.463 97.9455 685.507 95.8926 685.507H60.5807C58.5278 685.507 56.8637 684.463 56.8637 682.41C56.8637 680.357 58.5278 679.312 60.5807 679.312ZM38.8777 679.372L43.1144 683.109L50.6684 673.737L54.0457 677.474L44.6133 688.605H41.9954L36 682.715V679.372H38.8777ZM39.2175 664.504L43.4542 668.241L51.0082 658.868L54.3855 662.605L44.9531 673.737H42.3351L36.3398 667.847V664.504H39.2175ZM39.2175 649.636L43.4542 653.373L51.0082 644L54.3855 647.737L44.9531 658.868H42.3351L36.3398 652.978V649.636H39.2175Z" fill="#3071E7"/>
<path d="M23.3398 629.635H30.0684V632.154H25.3809L24.7949 634.771C24.9577 634.726 25.1172 634.693 25.2734 634.674C25.4297 634.648 25.5794 634.635 25.7227 634.635C27.0247 634.635 28.1055 635.081 28.9648 635.973C29.8307 636.858 30.2637 637.994 30.2637 639.381C30.2637 640.781 29.7852 641.962 28.8281 642.926C27.8776 643.883 26.7188 644.361 25.3516 644.361C24.1276 644.361 23.0762 644.013 22.1973 643.316C21.3184 642.62 20.7422 641.666 20.4688 640.455H23.3398C23.5612 640.904 23.8509 641.246 24.209 641.48C24.5736 641.708 24.974 641.822 25.4102 641.822C26.0156 641.822 26.5299 641.604 26.9531 641.168C27.3763 640.732 27.5879 640.172 27.5879 639.488C27.5879 638.824 27.3893 638.281 26.9922 637.857C26.6016 637.428 26.1263 637.213 25.5664 637.213C25.2669 637.213 24.9707 637.288 24.6777 637.438C24.3913 637.587 24.1081 637.812 23.8281 638.111L21.6016 637.613L23.3398 629.635Z" fill="#CD4E5C"/>
<circle cx="25.5" cy="637.5" r="12" stroke="#CD4E5C" stroke-width="3"/>
<path d="M19.5127 696.944H21.543C22.6413 696.944 23.432 697.047 23.915 697.252C24.4027 697.452 24.7855 697.781 25.0635 698.236C25.346 698.688 25.4873 699.23 25.4873 699.863C25.4873 700.565 25.3027 701.148 24.9336 701.613C24.569 702.078 24.0723 702.402 23.4434 702.584C23.0742 702.689 22.402 702.741 21.4268 702.741V707H19.5127V696.944ZM21.4268 700.875H22.0352C22.5137 700.875 22.8464 700.841 23.0332 700.772C23.2201 700.704 23.3659 700.592 23.4707 700.438C23.5801 700.278 23.6348 700.087 23.6348 699.863C23.6348 699.476 23.4844 699.193 23.1836 699.016C22.9648 698.883 22.5592 698.817 21.9668 698.817H21.4268V700.875ZM34.6133 703.821H28.6182C28.7048 704.35 28.9349 704.771 29.3086 705.086C29.6868 705.396 30.1676 705.551 30.751 705.551C31.4482 705.551 32.0475 705.307 32.5488 704.819L34.1211 705.558C33.7292 706.114 33.2598 706.526 32.7129 706.795C32.166 707.059 31.5166 707.191 30.7646 707.191C29.598 707.191 28.6478 706.825 27.9141 706.091C27.1803 705.353 26.8135 704.43 26.8135 703.322C26.8135 702.188 27.1781 701.246 27.9072 700.499C28.641 699.747 29.5592 699.371 30.6621 699.371C31.8333 699.371 32.7858 699.747 33.5195 700.499C34.2533 701.246 34.6201 702.235 34.6201 703.466L34.6133 703.821ZM32.7402 702.352C32.6172 701.937 32.3734 701.6 32.0088 701.34C31.6488 701.08 31.2295 700.95 30.751 700.95C30.2314 700.95 29.7757 701.096 29.3838 701.388C29.1377 701.57 28.9098 701.891 28.7002 702.352H32.7402ZM36.1309 699.562H37.9971V702.345L40.5674 699.562H42.8438L39.5283 703.186L42.8848 707H40.4102L38.1953 704.375L37.9971 704.607V707H36.1309V699.562ZM47.1436 699.371C47.8454 699.371 48.5039 699.547 49.1191 699.897C49.7389 700.248 50.222 700.725 50.5684 701.326C50.9147 701.928 51.0879 702.577 51.0879 703.274C51.0879 703.976 50.9124 704.632 50.5615 705.243C50.2152 705.854 49.7412 706.332 49.1396 706.679C48.5381 707.021 47.875 707.191 47.1504 707.191C46.084 707.191 45.1725 706.813 44.416 706.057C43.6641 705.296 43.2881 704.373 43.2881 703.288C43.2881 702.126 43.7142 701.158 44.5664 700.383C45.3138 699.708 46.1729 699.371 47.1436 699.371ZM47.1709 701.128C46.5921 701.128 46.109 701.331 45.7217 701.736C45.3389 702.137 45.1475 702.652 45.1475 703.281C45.1475 703.928 45.3366 704.452 45.7148 704.854C46.0977 705.255 46.5807 705.455 47.1641 705.455C47.7474 705.455 48.2327 705.252 48.6201 704.847C49.0075 704.441 49.2012 703.919 49.2012 703.281C49.2012 702.643 49.0098 702.126 48.627 701.729C48.2487 701.328 47.7633 701.128 47.1709 701.128ZM57.1719 704.252L59.4551 699.562H60.6855L62.5449 707H60.7197L59.7285 702.639L57.5137 707H56.748L54.5811 702.639L53.583 707H51.7646L53.624 699.562H54.8545L57.1719 704.252ZM71.0352 703.821H65.04C65.1266 704.35 65.3568 704.771 65.7305 705.086C66.1087 705.396 66.5895 705.551 67.1729 705.551C67.8701 705.551 68.4694 705.307 68.9707 704.819L70.543 705.558C70.151 706.114 69.6816 706.526 69.1348 706.795C68.5879 707.059 67.9385 707.191 67.1865 707.191C66.0199 707.191 65.0697 706.825 64.3359 706.091C63.6022 705.353 63.2354 704.43 63.2354 703.322C63.2354 702.188 63.5999 701.246 64.3291 700.499C65.0628 699.747 65.9811 699.371 67.084 699.371C68.2552 699.371 69.2077 699.747 69.9414 700.499C70.6751 701.246 71.042 702.235 71.042 703.466L71.0352 703.821ZM69.1621 702.352C69.0391 701.937 68.7952 701.6 68.4307 701.34C68.0706 701.08 67.6514 700.95 67.1729 700.95C66.6533 700.95 66.1976 701.096 65.8057 701.388C65.5596 701.57 65.3317 701.891 65.1221 702.352H69.1621ZM74.4189 702.242H77.1943V699.562H79.0674V707H77.1943V703.917H74.4189V707H72.5459V699.562H74.4189V702.242ZM81.9248 707V708.292H80.2637V705.421H81.3848L83.9482 699.562H85.1514L87.749 705.421H88.8906V708.292H87.1133V707H81.9248ZM85.7666 705.421L84.5498 702.29L83.292 705.421H85.7666ZM95.5762 699.562H97.4355V707H95.5762V706.214C95.2116 706.56 94.8447 706.811 94.4756 706.966C94.111 707.116 93.7145 707.191 93.2861 707.191C92.3245 707.191 91.4928 706.82 90.791 706.077C90.0892 705.33 89.7383 704.402 89.7383 703.295C89.7383 702.146 90.0778 701.205 90.7568 700.472C91.4359 699.738 92.2607 699.371 93.2314 699.371C93.6781 699.371 94.0973 699.455 94.4893 699.624C94.8812 699.793 95.2435 700.046 95.5762 700.383V699.562ZM93.6143 701.094C93.0355 701.094 92.5547 701.299 92.1719 701.709C91.7891 702.115 91.5977 702.636 91.5977 703.274C91.5977 703.917 91.7913 704.446 92.1787 704.86C92.5706 705.275 93.0514 705.482 93.6211 705.482C94.209 705.482 94.6966 705.28 95.084 704.874C95.4714 704.464 95.665 703.928 95.665 703.268C95.665 702.62 95.4714 702.096 95.084 701.695C94.6966 701.294 94.2067 701.094 93.6143 701.094ZM99.3154 707V699.562H101.188V705.209H103.964V699.562H105.837V705.209H107.73V708.306H105.953V707H99.3154ZM109.74 707H108.749V699.562H110.567V703.931L114.375 699.562H115.271V707H113.452V702.721L109.74 707ZM118.148 707H117.157V699.562H118.976V703.931L122.783 699.562H123.679V707H121.86V702.721L118.148 707ZM33.5742 725H31.7012V717.562H38.2227V725H36.3496V719.36H33.5742V725ZM43.6094 717.371C44.3112 717.371 44.9697 717.547 45.585 717.897C46.2048 718.248 46.6878 718.725 47.0342 719.326C47.3805 719.928 47.5537 720.577 47.5537 721.274C47.5537 721.976 47.3783 722.632 47.0273 723.243C46.681 723.854 46.207 724.332 45.6055 724.679C45.0039 725.021 44.3408 725.191 43.6162 725.191C42.5498 725.191 41.6383 724.813 40.8818 724.057C40.1299 723.296 39.7539 722.373 39.7539 721.288C39.7539 720.126 40.18 719.158 41.0322 718.383C41.7796 717.708 42.6387 717.371 43.6094 717.371ZM43.6367 719.128C43.0579 719.128 42.5749 719.331 42.1875 719.736C41.8047 720.137 41.6133 720.652 41.6133 721.281C41.6133 721.928 41.8024 722.452 42.1807 722.854C42.5635 723.255 43.0465 723.455 43.6299 723.455C44.2132 723.455 44.6986 723.252 45.0859 722.847C45.4733 722.441 45.667 721.919 45.667 721.281C45.667 720.643 45.4756 720.126 45.0928 719.729C44.7145 719.328 44.2292 719.128 43.6367 719.128ZM52.3457 717.562H59.2773V719.34H56.8096V725H54.9365V719.34H52.3457V717.562ZM67.9521 721.821H61.957C62.0436 722.35 62.2738 722.771 62.6475 723.086C63.0257 723.396 63.5065 723.551 64.0898 723.551C64.7871 723.551 65.3864 723.307 65.8877 722.819L67.46 723.558C67.068 724.114 66.5986 724.526 66.0518 724.795C65.5049 725.059 64.8555 725.191 64.1035 725.191C62.9368 725.191 61.9867 724.825 61.2529 724.091C60.5192 723.353 60.1523 722.43 60.1523 721.322C60.1523 720.188 60.5169 719.246 61.2461 718.499C61.9798 717.747 62.8981 717.371 64.001 717.371C65.1722 717.371 66.1247 717.747 66.8584 718.499C67.5921 719.246 67.959 720.235 67.959 721.466L67.9521 721.821ZM66.0791 720.352C65.9561 719.937 65.7122 719.6 65.3477 719.34C64.9876 719.08 64.5684 718.95 64.0898 718.95C63.5703 718.95 63.1146 719.096 62.7227 719.388C62.4766 719.57 62.2487 719.891 62.0391 720.352H66.0791ZM71.3223 717.562V718.383C71.6595 718.046 72.0241 717.793 72.416 717.624C72.8079 717.455 73.2272 717.371 73.6738 717.371C74.6445 717.371 75.4694 717.738 76.1484 718.472C76.8275 719.205 77.167 720.146 77.167 721.295C77.167 722.402 76.8161 723.33 76.1143 724.077C75.4124 724.82 74.5807 725.191 73.6191 725.191C73.1908 725.191 72.792 725.116 72.4229 724.966C72.0537 724.811 71.6868 724.56 71.3223 724.214V727.721H69.4697V717.562H71.3223ZM73.2842 719.094C72.6963 719.094 72.2087 719.294 71.8213 719.695C71.4339 720.096 71.2402 720.62 71.2402 721.268C71.2402 721.928 71.4339 722.464 71.8213 722.874C72.2087 723.28 72.6963 723.482 73.2842 723.482C73.8538 723.482 74.3324 723.275 74.7197 722.86C75.1117 722.446 75.3076 721.917 75.3076 721.274C75.3076 720.636 75.1162 720.115 74.7334 719.709C74.3506 719.299 73.8675 719.094 73.2842 719.094ZM84.208 717.562H86.0674V725H84.208V724.214C83.8434 724.56 83.4766 724.811 83.1074 724.966C82.7428 725.116 82.3464 725.191 81.918 725.191C80.9564 725.191 80.1247 724.82 79.4229 724.077C78.721 723.33 78.3701 722.402 78.3701 721.295C78.3701 720.146 78.7096 719.205 79.3887 718.472C80.0677 717.738 80.8926 717.371 81.8633 717.371C82.3099 717.371 82.7292 717.455 83.1211 717.624C83.513 717.793 83.8753 718.046 84.208 718.383V717.562ZM82.2461 719.094C81.6673 719.094 81.1865 719.299 80.8037 719.709C80.4209 720.115 80.2295 720.636 80.2295 721.274C80.2295 721.917 80.4232 722.446 80.8105 722.86C81.2025 723.275 81.6833 723.482 82.2529 723.482C82.8408 723.482 83.3285 723.28 83.7158 722.874C84.1032 722.464 84.2969 721.928 84.2969 721.268C84.2969 720.62 84.1032 720.096 83.7158 719.695C83.3285 719.294 82.8385 719.094 82.2461 719.094ZM89.8203 725H87.9473V717.562H94.4688V725H92.5957V719.36H89.8203V725ZM97.3467 725H96.3555V717.562H98.1738V721.931L101.981 717.562H102.877V725H101.059V720.721L97.3467 725ZM105.755 725H104.764V717.562H106.582V721.931L110.39 717.562H111.285V725H109.467V720.721L105.755 725Z" fill="#080C25"/>
<path d="M70.2929 639.707C70.6834 640.098 71.3166 640.098 71.7071 639.707L78.0711 633.343C78.4616 632.953 78.4616 632.319 78.0711 631.929C77.6805 631.538 77.0474 631.538 76.6569 631.929L71 637.586L65.3431 631.929C64.9526 631.538 64.3195 631.538 63.9289 631.929C63.5384 632.319 63.5384 632.953 63.9289 633.343L70.2929 639.707ZM70 599L70 639L72 639L72 599L70 599Z" fill="#00153F"/>
<path d="M66.2929 156.707C66.6834 157.098 67.3166 157.098 67.7071 156.707L74.0711 150.343C74.4616 149.953 74.4616 149.319 74.0711 148.929C73.6805 148.538 73.0474 148.538 72.6569 148.929L67 154.586L61.3431 148.929C60.9526 148.538 60.3195 148.538 59.9289 148.929C59.5384 149.319 59.5384 149.953 59.9289 150.343L66.2929 156.707ZM66 116L66 156L68 156L68 116L66 116Z" fill="#00153F"/>
<path d="M66.2929 314.707C66.6834 315.098 67.3166 315.098 67.7071 314.707L74.0711 308.343C74.4616 307.953 74.4616 307.319 74.0711 306.929C73.6805 306.538 73.0474 306.538 72.6569 306.929L67 312.586L61.3431 306.929C60.9526 306.538 60.3195 306.538 59.9289 306.929C59.5384 307.319 59.5384 307.953 59.9289 308.343L66.2929 314.707ZM66 274L66 314L68 314L68 274L66 274Z" fill="#00153F"/>
<path d="M66.2929 472.707C66.6834 473.098 67.3166 473.098 67.7071 472.707L74.0711 466.343C74.4616 465.953 74.4616 465.319 74.0711 464.929C73.6805 464.538 73.0474 464.538 72.6569 464.929L67 470.586L61.3431 464.929C60.9526 464.538 60.3195 464.538 59.9289 464.929C59.5384 465.319 59.5384 465.953 59.9289 466.343L66.2929 472.707ZM66 432L66 472L68 472L68 432L66 432Z" fill="#00153F"/>
</svg>
