<svg width="1512" height="924" viewBox="0 0 1512 924" fill="none" xmlns="http://www.w3.org/2000/svg">
<circle cx="269.5" cy="781.5" r="292.5" fill="url(#paint0_linear_416_7694)" fill-opacity="0.4"/>
<circle cx="269.5" cy="781.5" r="292.5" fill="url(#paint1_linear_416_7694)" fill-opacity="0.4"/>
<circle cx="173.238" cy="193.238" r="292.5" transform="rotate(-105 173.238 193.238)" fill="url(#paint2_linear_416_7694)" fill-opacity="0.7"/>
<circle cx="1130.56" cy="995.563" r="292.5" transform="rotate(-120 1130.56 995.563)" fill="url(#paint3_linear_416_7694)" fill-opacity="0.4"/>
<circle cx="1382.24" cy="674.238" r="292.5" transform="rotate(-105 1382.24 674.238)" fill="url(#paint4_linear_416_7694)" fill-opacity="0.7"/>
<circle cx="1404.56" cy="274.562" r="292.5" transform="rotate(120 1404.56 274.562)" fill="url(#paint5_linear_416_7694)" fill-opacity="0.7"/>
<circle cx="376.563" cy="395.238" r="292.5" transform="rotate(120 376.563 395.238)" fill="url(#paint6_linear_416_7694)" fill-opacity="0.7"/>
<defs>
<linearGradient id="paint0_linear_416_7694" x1="269.5" y1="489" x2="269.5" y2="1074" gradientUnits="userSpaceOnUse">
<stop stop-color="#00153F"/>
<stop offset="1" stop-color="white" stop-opacity="0"/>
</linearGradient>
<linearGradient id="paint1_linear_416_7694" x1="269.5" y1="489" x2="269.5" y2="1074" gradientUnits="userSpaceOnUse">
<stop stop-color="#00153F"/>
<stop offset="1" stop-color="white" stop-opacity="0"/>
</linearGradient>
<linearGradient id="paint2_linear_416_7694" x1="173.238" y1="-99.262" x2="173.238" y2="485.738" gradientUnits="userSpaceOnUse">
<stop stop-color="#3071E7"/>
<stop offset="1" stop-color="white" stop-opacity="0"/>
</linearGradient>
<linearGradient id="paint3_linear_416_7694" x1="1130.56" y1="703.063" x2="1130.56" y2="1288.06" gradientUnits="userSpaceOnUse">
<stop stop-color="#00153F"/>
<stop offset="1" stop-color="white" stop-opacity="0"/>
</linearGradient>
<linearGradient id="paint4_linear_416_7694" x1="1382.24" y1="381.738" x2="1382.24" y2="966.738" gradientUnits="userSpaceOnUse">
<stop stop-color="#3071E7"/>
<stop offset="1" stop-color="white" stop-opacity="0"/>
</linearGradient>
<linearGradient id="paint5_linear_416_7694" x1="1404.56" y1="-17.9376" x2="1404.56" y2="567.062" gradientUnits="userSpaceOnUse">
<stop stop-color="#3071E7"/>
<stop offset="1" stop-color="white" stop-opacity="0"/>
</linearGradient>
<linearGradient id="paint6_linear_416_7694" x1="376.563" y1="102.738" x2="376.563" y2="687.738" gradientUnits="userSpaceOnUse">
<stop stop-color="#3071E7"/>
<stop offset="1" stop-color="white" stop-opacity="0"/>
</linearGradient>
</defs>
</svg>
