<svg width="857" height="519" viewBox="0 0 857 519" fill="none" xmlns="http://www.w3.org/2000/svg">
<path d="M90.1172 226.671C102.56 226.671 112.646 216.584 112.646 204.141C112.646 191.699 102.56 181.612 90.1172 181.612C77.6746 181.612 67.5879 191.699 67.5879 204.141C67.5879 216.584 77.6746 226.671 90.1172 226.671Z" stroke="#00AEEF" stroke-width="4" stroke-linecap="round" stroke-linejoin="round"/>
<path d="M33.7939 304.622C33.7939 289.684 39.728 275.358 50.2906 264.796C60.8533 254.233 75.1793 248.299 90.1172 248.299C105.055 248.299 119.381 254.233 129.944 264.796C140.506 275.358 146.44 289.684 146.44 304.622" stroke="#00AEEF" stroke-width="4" stroke-linecap="round" stroke-linejoin="round"/>
<ellipse cx="749.943" cy="241.803" rx="5.94305" ry="5.95611" fill="#00AEEF"/>
<ellipse cx="749.943" cy="259.671" rx="5.94305" ry="5.95611" fill="#00AEEF"/>
<ellipse cx="749.943" cy="277.539" rx="5.94305" ry="5.95611" fill="#00AEEF"/>
<ellipse cx="749.943" cy="295.407" rx="5.94305" ry="5.95611" fill="#00AEEF"/>
<ellipse cx="749.943" cy="313.276" rx="5.94305" ry="5.9561" fill="#00AEEF"/>
<ellipse cx="779.658" cy="259.671" rx="5.94305" ry="5.95611" fill="#00AEEF"/>
<ellipse cx="779.658" cy="295.407" rx="5.94305" ry="5.95611" fill="#00AEEF"/>
<ellipse cx="797.487" cy="259.671" rx="5.94305" ry="5.95611" fill="#00AEEF"/>
<ellipse cx="797.487" cy="295.407" rx="5.94305" ry="5.95611" fill="#00AEEF"/>
<ellipse cx="815.317" cy="295.407" rx="5.94305" ry="5.95611" fill="#00AEEF"/>
<ellipse cx="815.317" cy="259.671" rx="5.94305" ry="5.95611" fill="#00AEEF"/>
<ellipse cx="779.658" cy="277.539" rx="5.94305" ry="5.95611" fill="#00AEEF"/>
<ellipse cx="779.658" cy="313.276" rx="5.94305" ry="5.9561" fill="#00AEEF"/>
<ellipse cx="797.487" cy="277.539" rx="5.94305" ry="5.95611" fill="#00AEEF"/>
<ellipse cx="797.487" cy="313.276" rx="5.94305" ry="5.9561" fill="#00AEEF"/>
<ellipse cx="833.146" cy="313.276" rx="5.94305" ry="5.9561" fill="#00AEEF"/>
<ellipse cx="815.317" cy="277.539" rx="5.94305" ry="5.95611" fill="#00AEEF"/>
<ellipse cx="815.317" cy="313.276" rx="5.94305" ry="5.9561" fill="#00AEEF"/>
<ellipse cx="833.146" cy="277.539" rx="5.94305" ry="5.95611" fill="#00AEEF"/>
<ellipse cx="850.975" cy="277.539" rx="5.94305" ry="5.95611" fill="#00AEEF"/>
<ellipse cx="779.658" cy="241.803" rx="5.94305" ry="5.95611" fill="#00AEEF"/>
<ellipse cx="797.487" cy="241.803" rx="5.94305" ry="5.95611" fill="#00AEEF"/>
<path d="M746.971 226.912H853.946" stroke="#00AEEF" stroke-width="2" stroke-linecap="round"/>
<path d="M764.801 215V316.254" stroke="#00AEEF" stroke-width="2" stroke-linecap="round"/>
<path d="M396.271 0H401.292V95.4104H396.271V0ZM406.314 95.4104V0.000249027H476.616V95.4104H406.314ZM416.357 12.554V20.0864H466.573V12.554H416.357ZM416.357 32.6404V40.1728H423.889V32.6404H416.357ZM431.422 32.6404V40.1728H464.062V32.6404H431.422ZM416.357 52.7268V60.2592H423.889V52.7268H416.357ZM431.422 52.7268V60.2592H461.551V52.7268H431.422ZM416.357 72.8132V80.3456H423.889V72.8132H416.357ZM431.422 72.8132V80.3456H466.573V72.8132H431.422Z" fill="#00AEEF"/>
<rect x="386.913" y="222.993" width="99.0604" height="64.3164" rx="3.5" stroke="#00AEEF" stroke-width="3"/>
<path d="M395.93 295.564C396.69 294.669 397.806 294.152 398.98 294.152H474.102C475.36 294.152 476.546 294.745 477.301 295.751L489.354 311.809C491.333 314.446 489.452 318.21 486.155 318.21H385.355C381.947 318.21 380.1 314.221 382.305 311.622L395.93 295.564Z" fill="#00AEEF" stroke="#00AEEF" stroke-width="2"/>
<path d="M388.245 290.016C388.898 289.067 389.977 288.5 391.128 288.5H479.255C480.452 288.5 481.566 289.111 482.208 290.121L500.344 318.621C501.827 320.951 500.153 324 497.392 324H371.512C368.693 324 367.03 320.838 368.628 318.516L388.245 290.016Z" stroke="#00AEEF" stroke-width="3"/>
<path d="M418.433 273.971C418.433 275.617 417.098 276.952 415.452 276.952C413.806 276.952 412.471 275.617 412.471 273.971C412.471 272.324 413.806 270.99 415.452 270.99C417.098 270.99 418.433 272.324 418.433 273.971Z" stroke="#00AEEF" stroke-width="2"/>
<circle cx="434.03" cy="273.971" r="2.98108" stroke="#00AEEF" stroke-width="2"/>
<circle cx="455.263" cy="273.971" r="2.98108" stroke="#00AEEF" stroke-width="2"/>
<path d="M421.087 234.16C421.087 235.806 419.752 237.141 418.106 237.141C416.46 237.141 415.125 235.806 415.125 234.16C415.125 232.513 416.46 231.179 418.106 231.179C419.752 231.179 421.087 232.513 421.087 234.16Z" stroke="#00AEEF" stroke-width="2"/>
<path d="M458.244 239.468C458.244 241.114 456.909 242.449 455.263 242.449C453.616 242.449 452.282 241.114 452.282 239.468C452.282 237.821 453.616 236.487 455.263 236.487C456.909 236.487 458.244 237.821 458.244 239.468Z" stroke="#00AEEF" stroke-width="2"/>
<path d="M423.741 256.719C423.741 259.099 421.812 261.027 419.433 261.027C417.054 261.027 415.125 259.099 415.125 256.719C415.125 254.34 417.054 252.411 419.433 252.411C421.812 252.411 423.741 254.34 423.741 256.719Z" stroke="#00AEEF" stroke-width="2"/>
<path d="M452.936 262.027C452.936 264.407 451.007 266.335 448.628 266.335C446.248 266.335 444.32 264.407 444.32 262.027C444.32 259.648 446.248 257.719 448.628 257.719C451.007 257.719 452.936 259.648 452.936 262.027Z" stroke="#00AEEF" stroke-width="2"/>
<path d="M442.32 246.103C442.32 249.948 439.203 253.065 435.357 253.065C431.512 253.065 428.395 249.948 428.395 246.103C428.395 242.258 431.512 239.141 435.357 239.141C439.203 239.141 442.32 242.258 442.32 246.103Z" stroke="#00AEEF" stroke-width="2"/>
<path d="M452.609 239.468L440.666 242.122M439.338 251.411L445.974 258.046M451.282 266.008L453.936 271.317M436.684 272.644L444.647 264.681M415.452 271.317L418.106 260.7M422.087 260.7L431.376 271.317M418.106 236.814L419.433 252.738M423.414 254.065L428.722 250.084M420.76 235.487L430.049 240.795" stroke="#00AEEF" stroke-width="2" stroke-linecap="round"/>
<path d="M334.358 276.841C334.944 276.255 334.944 275.305 334.358 274.72L324.812 265.174C324.226 264.588 323.276 264.588 322.69 265.174C322.105 265.759 322.105 266.709 322.69 267.295L331.176 275.78L322.69 284.266C322.105 284.851 322.105 285.801 322.69 286.387C323.276 286.973 324.226 286.973 324.812 286.387L334.358 276.841ZM179.121 277.28L333.297 277.28V274.28L179.121 274.28V277.28Z" fill="#71BF44"/>
<path d="M710.061 272.061C710.646 271.475 710.646 270.525 710.061 269.939L700.515 260.393C699.929 259.808 698.979 259.808 698.393 260.393C697.808 260.979 697.808 261.929 698.393 262.515L706.879 271L698.393 279.485C697.808 280.071 697.808 281.021 698.393 281.607C698.979 282.192 699.929 282.192 700.515 281.607L710.061 272.061ZM541 272.5L709 272.5L709 269.5L541 269.5L541 272.5Z" fill="#71BF44"/>
<path d="M534.939 269.939C534.354 270.525 534.354 271.475 534.939 272.061L544.485 281.607C545.071 282.192 546.021 282.192 546.607 281.607C547.192 281.021 547.192 280.071 546.607 279.485L538.121 271L546.607 262.515C547.192 261.929 547.192 260.979 546.607 260.393C546.021 259.808 545.071 259.808 544.485 260.393L534.939 269.939ZM660 269.5H536V272.5H660V269.5Z" fill="#71BF44"/>
<path d="M434.297 198.667C434.883 199.253 435.832 199.253 436.418 198.667L445.964 189.121C446.55 188.535 446.55 187.586 445.964 187C445.378 186.414 444.428 186.414 443.843 187L435.357 195.485L426.872 187C426.286 186.414 425.337 186.414 424.751 187C424.165 187.586 424.165 188.535 424.751 189.121L434.297 198.667ZM433.857 128.118L433.857 197.606L436.857 197.606L436.857 128.118L433.857 128.118Z" fill="#71BF44"/>
<path d="M288.806 483.183C288.221 483.769 288.221 484.719 288.806 485.305L298.352 494.851C298.938 495.436 299.888 495.436 300.474 494.851C301.059 494.265 301.059 493.315 300.474 492.729L291.988 484.244L300.474 475.759C301.059 475.173 301.059 474.223 300.474 473.637C299.888 473.052 298.938 473.052 298.352 473.637L288.806 483.183ZM435.357 482.744L289.867 482.744L289.867 485.744L435.357 485.744L435.357 482.744Z" fill="#71BF44"/>
<line x1="433.857" y1="484.244" x2="433.857" y2="375.669" stroke="#71BF44" stroke-width="3"/>
<path d="M91.0607 348.551C90.4749 347.965 89.5251 347.965 88.9394 348.551L79.3934 358.096C78.8076 358.682 78.8076 359.632 79.3934 360.218C79.9792 360.804 80.9289 360.804 81.5147 360.218L90 351.733L98.4853 360.218C99.0711 360.804 100.021 360.804 100.607 360.218C101.192 359.632 101.192 358.682 100.607 358.096L91.0607 348.551ZM91.5 495.102L91.5 349.611L88.5 349.611L88.5 495.102L91.5 495.102Z" fill="#71BF44"/>
<line x1="90" y1="493.5" x2="114" y2="493.5" stroke="#71BF44" stroke-width="3"/>
<path d="M173.984 458.186H237.681C240.879 458.186 243.472 459.814 243.472 463.012C243.472 466.21 240.879 467.837 237.681 467.837H173.984C170.786 467.837 168.193 466.21 168.193 463.012C168.193 459.813 170.786 458.186 173.984 458.186ZM173.984 481.349L248.297 481.349C251.495 481.349 254.088 482.976 254.088 486.175C254.088 489.373 250.551 490.799 247.353 490.799L173.04 490.799C169.842 490.799 168.193 489.372 168.193 486.174C168.193 482.976 170.786 481.349 173.984 481.349ZM173.984 504.511L228.995 504.512C232.193 504.512 234.785 506.139 234.785 509.337C234.785 512.535 232.193 514.163 228.995 514.163H173.984C170.786 514.163 168.193 512.535 168.193 509.337C168.193 506.139 170.786 504.511 173.984 504.511ZM140.174 504.605L146.774 510.427L158.542 495.825L163.803 501.647L149.109 518.988H145.031L135.691 509.812V504.605H140.174ZM140.703 481.442L147.303 487.264L159.071 472.663L164.333 478.485L149.638 495.825H145.56L136.22 486.649V481.442H140.703ZM140.703 458.279L147.303 464.101L159.071 449.5L164.333 455.322L149.638 472.663H145.56L136.22 463.487V458.279H140.703Z" fill="#00AEEF"/>
</svg>
