<?xml version="1.0" encoding="UTF-8" standalone="no"?>
<svg
   width="910.28479"
   height="626.1723"
   viewBox="0 0 910.28479 626.1723"
   fill="none"
   version="1.1"
   id="svg200"
   xmlSpace="preserve"
   xmlns="http://www.w3.org/2000/svg"><defs
     id="defs204" /><sodipodiNamedview
     id="namedview202"
     pagecolor="#ffffff"
     bordercolor="#000000"
     borderopacity="0.25"
     showgrid="false"/><path
     d="m 106.7236,280.38707 c 12.4428,0 22.5288,-10.087 22.5288,-22.53 0,-12.442 -10.086,-22.529 -22.5288,-22.529 -12.442603,0 -22.529303,10.087 -22.529303,22.529 0,12.443 10.0867,22.53 22.529303,22.53 z"
     stroke="#00aeef"
     stroke-width="4"
     stroke-linecap="round"
     stroke-linejoin="round"
     id="path104" /><path
     d="m 50.400297,358.33807 c 0,-14.938 5.9341,-29.264 16.4967,-39.826 10.5627,-10.563 24.8887,-16.497 39.826603,-16.497 14.9378,0 29.2638,5.934 39.8268,16.497 10.562,10.562 16.496,24.888 16.496,39.826"
     stroke="#00aeef"
     stroke-width="4"
     stroke-linecap="round"
     stroke-linejoin="round"
     id="path106" /><ellipse
     cx="766.54938"
     cy="295.51907"
     rx="5.9430499"
     ry="5.95611"
     fill="#00aeef"
     id="ellipse108" /><ellipse
     cx="766.54938"
     cy="313.38705"
     rx="5.9430499"
     ry="5.95611"
     fill="#00aeef"
     id="ellipse110" /><ellipse
     cx="766.54938"
     cy="331.25507"
     rx="5.9430499"
     ry="5.95611"
     fill="#00aeef"
     id="ellipse112" /><ellipse
     cx="766.54938"
     cy="349.12308"
     rx="5.9430499"
     ry="5.95611"
     fill="#00aeef"
     id="ellipse114" /><ellipse
     cx="766.54938"
     cy="366.99207"
     rx="5.9430499"
     ry="5.9561"
     fill="#00aeef"
     id="ellipse116" /><ellipse
     cx="796.2644"
     cy="313.38705"
     rx="5.9430499"
     ry="5.95611"
     fill="#00aeef"
     id="ellipse118" /><ellipse
     cx="796.2644"
     cy="349.12308"
     rx="5.9430499"
     ry="5.95611"
     fill="#00aeef"
     id="ellipse120" /><ellipse
     cx="814.09338"
     cy="313.38705"
     rx="5.9430499"
     ry="5.95611"
     fill="#00aeef"
     id="ellipse122" /><ellipse
     cx="814.09338"
     cy="349.12308"
     rx="5.9430499"
     ry="5.95611"
     fill="#00aeef"
     id="ellipse124" /><ellipse
     cx="831.9234"
     cy="349.12308"
     rx="5.9430499"
     ry="5.95611"
     fill="#00aeef"
     id="ellipse126" /><ellipse
     cx="831.9234"
     cy="313.38705"
     rx="5.9430499"
     ry="5.95611"
     fill="#00aeef"
     id="ellipse128" /><ellipse
     cx="796.2644"
     cy="331.25507"
     rx="5.9430499"
     ry="5.95611"
     fill="#00aeef"
     id="ellipse130" /><ellipse
     cx="796.2644"
     cy="366.99207"
     rx="5.9430499"
     ry="5.9561"
     fill="#00aeef"
     id="ellipse132" /><ellipse
     cx="814.09338"
     cy="331.25507"
     rx="5.9430499"
     ry="5.95611"
     fill="#00aeef"
     id="ellipse134" /><ellipse
     cx="814.09338"
     cy="366.99207"
     rx="5.9430499"
     ry="5.9561"
     fill="#00aeef"
     id="ellipse136" /><ellipse
     cx="849.75238"
     cy="366.99207"
     rx="5.9430499"
     ry="5.9561"
     fill="#00aeef"
     id="ellipse138" /><ellipse
     cx="831.9234"
     cy="331.25507"
     rx="5.9430499"
     ry="5.95611"
     fill="#00aeef"
     id="ellipse140" /><ellipse
     cx="831.9234"
     cy="366.99207"
     rx="5.9430499"
     ry="5.9561"
     fill="#00aeef"
     id="ellipse142" /><ellipse
     cx="849.75238"
     cy="331.25507"
     rx="5.9430499"
     ry="5.95611"
     fill="#00aeef"
     id="ellipse144" /><ellipse
     cx="867.58136"
     cy="331.25507"
     rx="5.9430499"
     ry="5.95611"
     fill="#00aeef"
     id="ellipse146" /><ellipse
     cx="796.2644"
     cy="295.51907"
     rx="5.9430499"
     ry="5.95611"
     fill="#00aeef"
     id="ellipse148" /><ellipse
     cx="814.09338"
     cy="295.51907"
     rx="5.9430499"
     ry="5.95611"
     fill="#00aeef"
     id="ellipse150" /><path
     d="m 763.5774,280.62807 h 106.975"
     stroke="#00aeef"
     stroke-width="2"
     stroke-linecap="round"
     id="path152" /><path
     d="m 781.4074,268.71607 v 101.254"
     stroke="#00aeef"
     stroke-width="2"
     stroke-linecap="round"
     id="path154" /><path
     d="m 412.8774,53.716072 h 5.021 v 95.410398 h -5.021 z m 10.043,95.410398 V 53.716321 h 70.302 v 95.410149 z m 10.043,-82.856398 v 7.5324 h 50.216 v -7.5324 z m 0,20.0864 v 7.5324 h 7.532 v -7.5324 z m 15.065,0 v 7.5324 h 32.64 v -7.5324 z m -15.065,20.086398 v 7.5324 h 7.532 v -7.5324 z m 15.065,0 v 7.5324 h 30.129 v -7.5324 z m -15.065,20.0864 v 7.5324 h 7.532 v -7.5324 z m 15.065,0 v 7.5324 h 35.151 v -7.5324 z"
     fill="#00aeef"
     id="path156" /><rect
     x="403.51938"
     y="276.70908"
     width="99.060402"
     height="64.316399"
     rx="3.5"
     stroke="#00aeef"
     stroke-width="3"
     id="rect158" /><path
     d="m 412.5364,349.28007 c 0.76,-0.895 1.876,-1.412 3.05,-1.412 h 75.122 c 1.258,0 2.444,0.593 3.199,1.599 l 12.053,16.058 c 1.979,2.637 0.098,6.401 -3.199,6.401 h -100.8 c -3.408,0 -5.255,-3.989 -3.05,-6.588 z"
     fill="#00aeef"
     stroke="#00aeef"
     stroke-width="2"
     id="path160" /><path
     d="m 404.8514,343.73207 c 0.653,-0.949 1.732,-1.516 2.883,-1.516 h 88.127 c 1.197,0 2.311,0.611 2.953,1.621 l 18.136,28.5 c 1.483,2.33 -0.191,5.379 -2.952,5.379 h -125.88 c -2.819,0 -4.482,-3.162 -2.884,-5.484 z"
     stroke="#00aeef"
     stroke-width="3"
     id="path162" /><path
     d="m 435.0394,327.68707 c 0,1.646 -1.335,2.981 -2.981,2.981 -1.646,0 -2.981,-1.335 -2.981,-2.981 0,-1.647 1.335,-2.981 2.981,-2.981 1.646,0 2.981,1.334 2.981,2.981 z"
     stroke="#00aeef"
     stroke-width="2"
     id="path164" /><circle
     cx="450.63638"
     cy="327.68707"
     r="2.9810801"
     stroke="#00aeef"
     stroke-width="2"
     id="circle166" /><circle
     cx="471.86938"
     cy="327.68707"
     r="2.9810801"
     stroke="#00aeef"
     stroke-width="2"
     id="circle168" /><path
     d="m 437.6934,287.87607 c 0,1.646 -1.335,2.981 -2.981,2.981 -1.646,0 -2.981,-1.335 -2.981,-2.981 0,-1.647 1.335,-2.981 2.981,-2.981 1.646,0 2.981,1.334 2.981,2.981 z"
     stroke="#00aeef"
     stroke-width="2"
     id="path170" /><path
     d="m 474.8504,293.18407 c 0,1.646 -1.335,2.981 -2.981,2.981 -1.647,0 -2.981,-1.335 -2.981,-2.981 0,-1.647 1.334,-2.981 2.981,-2.981 1.646,0 2.981,1.334 2.981,2.981 z"
     stroke="#00aeef"
     stroke-width="2"
     id="path172" /><path
     d="m 440.3474,310.43507 c 0,2.38 -1.929,4.308 -4.308,4.308 -2.379,0 -4.308,-1.928 -4.308,-4.308 0,-2.379 1.929,-4.308 4.308,-4.308 2.379,0 4.308,1.929 4.308,4.308 z"
     stroke="#00aeef"
     stroke-width="2"
     id="path174" /><path
     d="m 469.5424,315.74307 c 0,2.38 -1.929,4.308 -4.308,4.308 -2.38,0 -4.308,-1.928 -4.308,-4.308 0,-2.379 1.928,-4.308 4.308,-4.308 2.379,0 4.308,1.929 4.308,4.308 z"
     stroke="#00aeef"
     stroke-width="2"
     id="path176" /><path
     d="m 458.9264,299.81907 c 0,3.845 -3.117,6.962 -6.963,6.962 -3.845,0 -6.962,-3.117 -6.962,-6.962 0,-3.845 3.117,-6.962 6.962,-6.962 3.846,0 6.963,3.117 6.963,6.962 z"
     stroke="#00aeef"
     stroke-width="2"
     id="path178" /><path
     d="m 469.2154,293.18407 -11.943,2.654 m -1.328,9.289 6.636,6.635 m 5.308,7.962 2.654,5.309 m -17.252,1.327 7.963,-7.963 m -29.195,6.636 2.654,-10.617 m 3.981,0 9.289,10.617 m -13.27,-34.503 1.327,15.924 m 3.981,1.327 5.308,-3.981 m -7.962,-14.597 9.289,5.308"
     stroke="#00aeef"
     stroke-width="2"
     stroke-linecap="round"
     id="path180" /><path
     d="m 350.9644,330.55707 c 0.586,-0.586 0.586,-1.536 0,-2.121 l -9.546,-9.546 c -0.586,-0.586 -1.536,-0.586 -2.122,0 -0.585,0.585 -0.585,1.535 0,2.121 l 8.486,8.485 -8.486,8.486 c -0.585,0.585 -0.585,1.535 0,2.121 0.586,0.586 1.536,0.586 2.122,0 z m -155.237,0.439 h 154.176 v -3 h -154.176 z"
     fill="#71bf44"
     id="path182" /><path
     d="m 726.6674,325.77707 c 0.585,-0.586 0.585,-1.536 0,-2.122 l -9.546,-9.546 c -0.586,-0.585 -1.536,-0.585 -2.122,0 -0.585,0.586 -0.585,1.536 0,2.122 l 8.486,8.485 -8.486,8.485 c -0.585,0.586 -0.585,1.536 0,2.122 0.586,0.585 1.536,0.585 2.122,0 z m -169.061,0.439 h 168 v -3 h -168 z"
     fill="#71bf44"
     id="path184" /><path
     d="m 551.5454,323.65507 c -0.585,0.586 -0.585,1.536 0,2.122 l 9.546,9.546 c 0.586,0.585 1.536,0.585 2.122,0 0.585,-0.586 0.585,-1.536 0,-2.122 l -8.486,-8.485 8.486,-8.485 c 0.585,-0.586 0.585,-1.536 0,-2.122 -0.586,-0.585 -1.536,-0.585 -2.122,0 z m 125.061,-0.439 h -124 v 3 h 124 z"
     fill="#71bf44"
     id="path186" /><path
     d="m 450.9034,252.38307 c 0.586,0.586 1.535,0.586 2.121,0 l 9.546,-9.546 c 0.586,-0.586 0.586,-1.535 0,-2.121 -0.586,-0.586 -1.536,-0.586 -2.121,0 l -8.486,8.485 -8.485,-8.485 c -0.586,-0.586 -1.535,-0.586 -2.121,0 -0.586,0.586 -0.586,1.535 0,2.121 z m -0.44,-70.549 v 69.488 h 3 v -69.488 z"
     fill="#71bf44"
     id="path188" /><path
     d="m 305.4124,536.89907 c -0.585,0.586 -0.585,1.536 0,2.122 l 9.546,9.546 c 0.586,0.585 1.536,0.585 2.122,0 0.585,-0.586 0.585,-1.536 0,-2.122 l -8.486,-8.485 8.486,-8.485 c 0.585,-0.586 0.585,-1.536 0,-2.122 -0.586,-0.585 -1.536,-0.585 -2.122,0 z m 146.551,-0.439 h -145.49 v 3 h 145.49 z"
     fill="#71bf44"
     id="path190" /><line
     x1="450.46338"
     y1="537.96008"
     x2="450.46338"
     y2="429.38507"
     stroke="#71bf44"
     stroke-width="3"
     id="line192" /><path
     d="m 107.6671,402.26707 c -0.5858,-0.586 -1.5356,-0.586 -2.1213,0 l -9.546003,9.545 c -0.5858,0.586 -0.5858,1.536 0,2.122 0.5858,0.586 1.5355,0.586 2.1213,0 l 8.485303,-8.485 8.4853,8.485 c 0.5858,0.586 1.5357,0.586 2.1217,0 0.585,-0.586 0.585,-1.536 0,-2.122 z m 0.4393,146.551 v -145.491 h -3 v 145.491 z"
     fill="#71bf44"
     id="path194" /><line
     x1="106.6064"
     y1="547.21606"
     x2="130.6064"
     y2="547.21606"
     stroke="#71bf44"
     stroke-width="3"
     id="line196" /><path
     d="m 190.5904,511.90207 h 63.697 c 3.198,0 5.791,1.628 5.791,4.826 0,3.198 -2.593,4.825 -5.791,4.825 h -63.697 c -3.198,0 -5.791,-1.627 -5.791,-4.825 0,-3.199 2.593,-4.826 5.791,-4.826 z m 0,23.163 h 74.313 c 3.198,0 5.791,1.627 5.791,4.826 0,3.198 -3.537,4.624 -6.735,4.624 h -74.313 c -3.198,0 -4.847,-1.427 -4.847,-4.625 0,-3.198 2.593,-4.825 5.791,-4.825 z m 0,23.162 55.011,10e-4 c 3.198,0 5.79,1.627 5.79,4.825 0,3.198 -2.592,4.826 -5.79,4.826 h -55.011 c -3.198,0 -5.791,-1.628 -5.791,-4.826 0,-3.198 2.593,-4.826 5.791,-4.826 z m -33.81,0.094 6.6,5.822 11.768,-14.602 5.261,5.822 -14.694,17.341 h -4.078 l -9.34,-9.176 v -5.207 z m 0.529,-23.163 6.6,5.822 11.768,-14.601 5.262,5.822 -14.695,17.34 h -4.078 l -9.34,-9.176 v -5.207 z m 0,-23.163 6.6,5.822 11.768,-14.601 5.262,5.822 -14.695,17.341 h -4.078 l -9.34,-9.176 v -5.208 z"
     fill="#00aeef"
     id="path198" /><g
     style="fill:none"
     id="g346"
     transform="translate(0,53.533926)"><path
       d="m 16.291,176.635 h 4.0918 V 191 H 17.668 v -11.797 h -2.959 z"
       fill="#71bf44"
       id="path310" /><circle
       cx="19"
       cy="183"
       r="17.5"
       stroke="#71bf44"
       stroke-width="3"
       id="circle312" /><path
       d="m 383.621,12.2734 h 2.734 v 9.2481 h 1.28 v 2.5293 h -1.28 V 27 h -2.675 v -2.9492 h -6.27 v -2.5293 z m 0.059,9.2481 V 16.707 l -3.282,4.8145 z"
       fill="#71bf44"
       id="path314" /><circle
       cx="383"
       cy="19"
       r="17.5"
       stroke="#71bf44"
       stroke-width="3"
       id="circle316" /><path
       d="m 371.486,219.264 h -2.666 c 0.072,-1.55 0.557,-2.767 1.455,-3.653 0.905,-0.892 2.064,-1.338 3.477,-1.338 0.872,0 1.641,0.186 2.305,0.557 0.67,0.365 1.204,0.895 1.601,1.592 0.404,0.69 0.606,1.393 0.606,2.109 0,0.853 -0.244,1.771 -0.733,2.754 -0.482,0.983 -1.367,2.145 -2.656,3.486 l -1.611,1.7 h 5.117 V 229 h -9.951 v -1.309 l 4.443,-4.531 c 1.074,-1.087 1.787,-1.959 2.139,-2.617 0.358,-0.664 0.537,-1.263 0.537,-1.797 0,-0.553 -0.186,-1.009 -0.557,-1.367 -0.364,-0.365 -0.836,-0.547 -1.416,-0.547 -0.586,0 -1.074,0.218 -1.465,0.654 -0.39,0.437 -0.599,1.029 -0.625,1.778 z"
       fill="#71bf44"
       id="path318" /><circle
       cx="374"
       cy="221"
       r="17.5"
       stroke="#71bf44"
       stroke-width="3"
       id="circle320" /><path
       d="m 731.799,224.18 h -2.627 c 0.137,-1.062 0.517,-1.914 1.142,-2.559 0.873,-0.898 1.97,-1.348 3.291,-1.348 1.179,0 2.165,0.375 2.959,1.123 0.801,0.749 1.202,1.638 1.202,2.666 0,0.639 -0.176,1.221 -0.528,1.749 -0.345,0.527 -0.849,0.953 -1.513,1.279 0.872,0.26 1.552,0.716 2.041,1.367 0.494,0.645 0.742,1.406 0.742,2.285 0,1.289 -0.475,2.383 -1.426,3.281 -0.95,0.892 -2.161,1.338 -3.633,1.338 -1.393,0 -2.529,-0.42 -3.408,-1.259 -0.879,-0.847 -1.361,-1.996 -1.445,-3.448 h 2.705 c 0.117,0.742 0.374,1.296 0.771,1.66 0.404,0.359 0.912,0.538 1.524,0.538 0.638,0 1.165,-0.206 1.582,-0.616 0.423,-0.41 0.634,-0.911 0.634,-1.504 0,-0.651 -0.283,-1.201 -0.849,-1.65 -0.567,-0.449 -1.384,-0.68 -2.451,-0.693 v -2.344 c 0.657,-0.052 1.146,-0.153 1.465,-0.303 0.325,-0.156 0.576,-0.368 0.752,-0.635 0.182,-0.267 0.273,-0.55 0.273,-0.849 0,-0.391 -0.137,-0.713 -0.41,-0.967 -0.274,-0.26 -0.632,-0.391 -1.074,-0.391 -0.391,0 -0.746,0.121 -1.065,0.362 -0.319,0.234 -0.537,0.54 -0.654,0.918 z"
       fill="#71bf44"
       id="path322" /><circle
       cx="734"
       cy="227"
       r="17.5"
       stroke="#71bf44"
       stroke-width="3"
       id="circle324" /><path
       d="m 141.34,424.635 h 6.728 v 2.519 h -4.687 l -0.586,2.617 c 0.163,-0.045 0.322,-0.078 0.478,-0.097 0.157,-0.026 0.306,-0.039 0.45,-0.039 1.302,0 2.382,0.446 3.242,1.338 0.866,0.885 1.299,2.021 1.299,3.408 0,1.4 -0.479,2.581 -1.436,3.545 -0.95,0.957 -2.109,1.435 -3.476,1.435 -1.224,0 -2.276,-0.348 -3.155,-1.045 -0.879,-0.696 -1.455,-1.65 -1.728,-2.861 h 2.871 c 0.221,0.449 0.511,0.791 0.869,1.025 0.365,0.228 0.765,0.342 1.201,0.342 0.606,0 1.12,-0.218 1.543,-0.654 0.423,-0.436 0.635,-0.996 0.635,-1.68 0,-0.664 -0.199,-1.207 -0.596,-1.631 -0.39,-0.429 -0.866,-0.644 -1.426,-0.644 -0.299,0 -0.595,0.075 -0.888,0.225 -0.287,0.149 -0.57,0.374 -0.85,0.673 l -2.226,-0.498 z"
       fill="#71bf44"
       id="path326" /><circle
       cx="144"
       cy="431"
       r="17.5"
       stroke="#71bf44"
       stroke-width="3"
       id="circle328" /></g><g
     style="fill:none"
     id="g420"
     transform="translate(42.772794,-4.63477)"><path
       d="M 1.63086,198.635 H 11.9727 V 213 H 9.20898 V 201.193 H 4.4043 V 213 H 1.63086 Z m 18.32034,3.467 c 1.0026,0 1.9433,0.25 2.8222,0.752 0.8855,0.501 1.5756,1.181 2.0704,2.041 0.4947,0.859 0.7421,1.787 0.7421,2.783 0,1.002 -0.2506,1.94 -0.7519,2.812 -0.4948,0.873 -1.1719,1.556 -2.0313,2.051 -0.8593,0.488 -1.8066,0.732 -2.8418,0.732 -1.5234,0 -2.8255,-0.54 -3.9062,-1.621 -1.0742,-1.087 -1.6113,-2.405 -1.6113,-3.955 0,-1.66 0.6087,-3.043 1.8261,-4.15 1.0677,-0.964 2.295,-1.445 3.6817,-1.445 z m 0.039,2.509 c -0.8268,0 -1.5169,0.29 -2.0703,0.869 -0.5469,0.573 -0.8203,1.309 -0.8203,2.208 0,0.924 0.2702,1.673 0.8106,2.246 0.5468,0.573 1.2369,0.859 2.0703,0.859 0.8333,0 1.5267,-0.29 2.08,-0.869 0.5534,-0.58 0.8301,-1.325 0.8301,-2.236 0,-0.912 -0.2734,-1.651 -0.8203,-2.217 -0.5404,-0.573 -1.2337,-0.86 -2.0801,-0.86 z M 37.2656,213 h -2.7148 l -2.6563,-6.709 -2.705,6.709 h -2.7051 l 4.5312,-10.625 h 1.7188 z m 4.0723,-6.797 h 0.791 c 1.1133,0 1.9662,0.088 2.5586,0.264 0.599,0.169 1.1035,0.527 1.5137,1.074 0.4101,0.547 0.6152,1.234 0.6152,2.061 0,0.82 -0.1855,1.503 -0.5566,2.05 -0.3711,0.541 -0.8464,0.902 -1.4258,1.084 -0.5729,0.176 -1.3802,0.264 -2.4219,0.264 h -3.75 v -10.625 h 2.6758 z m 0,4.746 h 0.8105 c 0.4818,0 0.8301,-0.032 1.045,-0.097 0.2148,-0.072 0.4036,-0.206 0.5664,-0.401 0.1627,-0.195 0.2441,-0.433 0.2441,-0.713 0,-0.911 -0.5208,-1.367 -1.5625,-1.367 h -1.1035 z m 9.3066,-2.451 v -1.904 h 0.5274 c 0.358,0 0.6705,-0.085 0.9375,-0.254 0.2669,-0.169 0.4004,-0.443 0.4004,-0.82 0,-0.326 -0.1205,-0.593 -0.3614,-0.801 -0.2343,-0.215 -0.5241,-0.323 -0.8691,-0.323 -0.4362,0 -0.9831,0.212 -1.6406,0.635 l -1.0547,-1.836 c 0.918,-0.729 1.9401,-1.093 3.0664,-1.093 1.0351,0 1.8913,0.27 2.5684,0.81 0.6835,0.534 1.0253,1.257 1.0253,2.168 0,0.925 -0.4948,1.673 -1.4843,2.246 1.3216,0.488 1.9824,1.371 1.9824,2.647 0,0.95 -0.3711,1.738 -1.1133,2.363 -0.7422,0.625 -1.7676,0.937 -3.0762,0.937 -1.4388,0 -2.6269,-0.403 -3.5644,-1.211 l 1.4746,-1.855 c 0.6315,0.469 1.2305,0.703 1.7969,0.703 0.4557,0 0.817,-0.107 1.084,-0.322 0.2669,-0.221 0.4003,-0.505 0.4003,-0.85 0,-0.332 -0.1269,-0.621 -0.3808,-0.869 -0.2474,-0.247 -0.5892,-0.371 -1.0254,-0.371 z m 12.2168,-6.396 c 1.0026,0 1.9434,0.25 2.8223,0.752 0.8854,0.501 1.5755,1.181 2.0703,2.041 0.4948,0.859 0.7422,1.787 0.7422,2.783 0,1.002 -0.2507,1.94 -0.752,2.812 -0.4948,0.873 -1.1718,1.556 -2.0312,2.051 -0.8594,0.488 -1.8067,0.732 -2.8418,0.732 -1.5234,0 -2.8255,-0.54 -3.9063,-1.621 -1.0742,-1.087 -1.6113,-2.405 -1.6113,-3.955 0,-1.66 0.6087,-3.043 1.8262,-4.15 1.0677,-0.964 2.2949,-1.445 3.6816,-1.445 z m 0.0391,2.509 c -0.8268,0 -1.5169,0.29 -2.0703,0.869 -0.5469,0.573 -0.8203,1.309 -0.8203,2.208 0,0.924 0.2701,1.673 0.8105,2.246 0.5469,0.573 1.237,0.859 2.0703,0.859 0.8334,0 1.5267,-0.29 2.0801,-0.869 0.5534,-0.58 0.8301,-1.325 0.8301,-2.236 0,-0.912 -0.2735,-1.651 -0.8203,-2.217 -0.5404,-0.573 -1.2338,-0.86 -2.0801,-0.86 z M 70.6836,213 v -10.625 h 4.2676 c 1.3997,0 2.3502,0.277 2.8515,0.83 0.5013,0.547 0.752,1.169 0.752,1.865 0,1.035 -0.5143,1.781 -1.543,2.237 1.4063,0.481 2.1094,1.39 2.1094,2.724 0,0.723 -0.1856,1.322 -0.5566,1.797 -0.3711,0.469 -0.8431,0.781 -1.4161,0.938 C 76.582,212.922 75.7878,213 74.7656,213 Z m 2.6758,-6.445 h 1.0254 c 0.4362,0 0.7714,-0.108 1.0058,-0.323 0.2409,-0.221 0.3614,-0.465 0.3614,-0.732 0,-0.397 -0.114,-0.706 -0.3418,-0.928 -0.2279,-0.221 -0.4981,-0.332 -0.8106,-0.332 l -0.3418,0.01 h -0.8984 z m 0,4.394 h 1.3379 c 0.5208,0 0.8854,-0.12 1.0937,-0.361 0.2149,-0.248 0.3223,-0.488 0.3223,-0.723 0,-0.345 -0.1205,-0.661 -0.3613,-0.947 -0.2344,-0.286 -0.6609,-0.43 -1.2793,-0.43 h -1.1133 z m 15.8789,-8.574 h 2.6562 V 213 h -2.6562 v -1.123 c -0.5209,0.495 -1.0449,0.853 -1.5723,1.074 -0.5208,0.215 -1.0872,0.322 -1.6992,0.322 -1.3737,0 -2.5619,-0.53 -3.5645,-1.591 -1.0026,-1.068 -1.5039,-2.393 -1.5039,-3.975 0,-1.641 0.4851,-2.985 1.4551,-4.033 0.9701,-1.048 2.1485,-1.572 3.5352,-1.572 0.638,0 1.237,0.12 1.7968,0.361 0.5599,0.241 1.0775,0.602 1.5528,1.084 z m -2.8028,2.187 c -0.8268,0 -1.5136,0.293 -2.0605,0.879 -0.5469,0.58 -0.8203,1.325 -0.8203,2.237 0,0.918 0.2767,1.673 0.8301,2.265 0.5599,0.593 1.2467,0.889 2.0605,0.889 0.8399,0 1.5365,-0.29 2.0899,-0.869 0.5533,-0.586 0.83,-1.351 0.83,-2.295 0,-0.925 -0.2767,-1.673 -0.83,-2.246 -0.5534,-0.573 -1.2533,-0.86 -2.0997,-0.86 z m 7.2071,-2.187 h 9.9024 v 2.539 H 100.02 V 213 h -2.6762 v -8.086 h -3.7012 z m 22.2954,6.084 h -8.565 c 0.124,0.755 0.453,1.357 0.986,1.807 0.541,0.442 1.228,0.664 2.061,0.664 0.996,0 1.852,-0.349 2.568,-1.045 l 2.246,1.054 c -0.56,0.795 -1.23,1.384 -2.011,1.768 -0.782,0.378 -1.709,0.566 -2.784,0.566 -1.666,0 -3.024,-0.524 -4.072,-1.572 -1.048,-1.055 -1.572,-2.373 -1.572,-3.955 0,-1.621 0.521,-2.965 1.562,-4.033 1.049,-1.074 2.36,-1.611 3.936,-1.611 1.673,0 3.034,0.537 4.082,1.611 1.048,1.068 1.572,2.48 1.572,4.238 z m -2.676,-2.1 c -0.176,-0.592 -0.524,-1.074 -1.045,-1.445 -0.515,-0.371 -1.113,-0.557 -1.797,-0.557 -0.742,0 -1.393,0.209 -1.953,0.625 -0.352,0.261 -0.677,0.72 -0.977,1.377 z M 127.598,213 h -2.715 l -2.656,-6.709 -2.706,6.709 h -2.705 l 4.532,-10.625 h 1.718 z m 4.072,-6.797 h 0.791 c 1.113,0 1.966,0.088 2.559,0.264 0.598,0.169 1.103,0.527 1.513,1.074 0.41,0.547 0.615,1.234 0.615,2.061 0,0.82 -0.185,1.503 -0.556,2.05 -0.371,0.541 -0.847,0.902 -1.426,1.084 -0.573,0.176 -1.38,0.264 -2.422,0.264 h -3.75 v -10.625 h 2.676 z m 0,4.746 h 0.81 c 0.482,0 0.831,-0.032 1.045,-0.097 0.215,-0.072 0.404,-0.206 0.567,-0.401 0.163,-0.195 0.244,-0.433 0.244,-0.713 0,-0.911 -0.521,-1.367 -1.563,-1.367 h -1.103 z"
       fill="#000000"
       id="path402" /><path
       d="m 347.83,4.63477 h 2.764 v 4.9414 l 3.896,-4.9414 h 3.291 L 352.762,11.041 358.27,19 h -3.243 l -4.433,-6.377 V 19 H 347.83 Z M 369.412,19 h -2.715 L 364.041,12.291 361.336,19 h -2.705 l 4.531,-10.625 h 1.719 z m 2.813,0 h -1.416 V 8.375 h 2.597 v 6.2402 l 5.44,-6.2402 h 1.279 V 19 h -2.598 v -6.1133 z m 13.271,-6.7969 h 3.965 V 8.375 h 2.676 V 19 h -2.676 v -4.4043 h -3.965 V 19 H 382.82 V 8.375 h 2.676 z M 396.248,19 h -1.416 V 8.375 h 2.598 v 6.2402 l 5.439,-6.2402 h 1.279 V 19 h -2.597 v -6.1133 z m 16.367,-4.2188 h -2.138 c -1.446,0 -2.559,-0.2766 -3.34,-0.83 -0.775,-0.5599 -1.162,-1.4779 -1.162,-2.7539 V 8.375 h 2.675 v 2.6172 c 0,0.931 0.622,1.3965 1.866,1.3965 l 1.035,-0.0098 h 1.064 V 8.375 h 2.676 V 19 h -2.676 z m 16.016,-0.3222 h -8.565 c 0.124,0.7552 0.453,1.3574 0.987,1.8066 0.54,0.4427 1.227,0.6641 2.06,0.6641 0.996,0 1.852,-0.3483 2.569,-1.0449 l 2.246,1.0547 c -0.56,0.7942 -1.231,1.3834 -2.012,1.7675 -0.781,0.3776 -1.709,0.5664 -2.783,0.5664 -1.667,0 -3.024,-0.5241 -4.072,-1.5722 -1.049,-1.0547 -1.573,-2.3731 -1.573,-3.9551 0,-1.6211 0.521,-2.9655 1.563,-4.03321 1.048,-1.07422 2.36,-1.61133 3.935,-1.61133 1.674,0 3.034,0.53711 4.082,1.61133 1.049,1.06771 1.573,2.48051 1.573,4.23831 z m -2.676,-2.0996 c -0.176,-0.5925 -0.524,-1.0742 -1.045,-1.4453 -0.514,-0.3711 -1.113,-0.5567 -1.797,-0.5567 -0.742,0 -1.393,0.2084 -1.953,0.625 -0.351,0.2604 -0.677,0.7194 -0.976,1.377 z m 15.244,-1.836 -2.217,1.2207 c -0.416,-0.4362 -0.83,-0.7389 -1.24,-0.9082 -0.403,-0.1692 -0.879,-0.2539 -1.426,-0.2539 -0.996,0 -1.803,0.2995 -2.421,0.8985 -0.612,0.5924 -0.918,1.3541 -0.918,2.2851 0,0.905 0.296,1.6439 0.888,2.2168 0.593,0.5729 1.371,0.8594 2.334,0.8594 1.192,0 2.119,-0.4069 2.783,-1.2207 l 2.1,1.4355 c -1.139,1.4779 -2.747,2.2168 -4.824,2.2168 -1.869,0 -3.334,-0.5533 -4.395,-1.6601 -1.054,-1.1068 -1.582,-2.4024 -1.582,-3.8867 0,-1.0287 0.257,-1.9759 0.772,-2.8418 0.514,-0.8659 1.23,-1.54626 2.148,-2.04105 0.925,-0.49479 1.957,-0.74219 3.096,-0.74219 1.055,0 2.002,0.21159 2.842,0.63477 0.84,0.41666 1.526,1.01237 2.06,1.78707 z m 2.412,-2.1484 h 2.666 v 3.9746 l 3.672,-3.9746 h 3.252 L 448.465,13.5508 453.26,19 h -3.535 l -3.164,-3.75 -0.284,0.332 V 19 h -2.666 z M 455.76,19 h -1.416 V 8.375 h 2.597 v 6.2402 l 5.44,-6.2402 h 1.279 V 19 h -2.598 v -6.1133 z m 21.25,-4.541 h -8.565 c 0.124,0.7552 0.453,1.3574 0.987,1.8066 0.54,0.4427 1.227,0.6641 2.06,0.6641 0.996,0 1.852,-0.3483 2.569,-1.0449 l 2.246,1.0547 c -0.56,0.7942 -1.231,1.3834 -2.012,1.7675 -0.781,0.3776 -1.709,0.5664 -2.783,0.5664 -1.667,0 -3.024,-0.5241 -4.073,-1.5722 -1.048,-1.0547 -1.572,-2.3731 -1.572,-3.9551 0,-1.6211 0.521,-2.9655 1.563,-4.03321 1.048,-1.07422 2.36,-1.61133 3.935,-1.61133 1.673,0 3.034,0.53711 4.082,1.61133 1.048,1.06771 1.573,2.48051 1.573,4.23831 z m -2.676,-2.0996 c -0.176,-0.5925 -0.524,-1.0742 -1.045,-1.4453 -0.514,-0.3711 -1.113,-0.5567 -1.797,-0.5567 -0.742,0 -1.393,0.2084 -1.953,0.625 -0.351,0.2604 -0.677,0.7194 -0.977,1.377 z M 339.1,30.375 v 1.1719 c 0.481,-0.4818 1.002,-0.8431 1.562,-1.084 0.56,-0.2409 1.159,-0.3613 1.797,-0.3613 1.387,0 2.565,0.5241 3.535,1.5722 0.97,1.0482 1.455,2.3926 1.455,4.0332 0,1.5821 -0.501,2.9069 -1.504,3.9746 -1.002,1.0612 -2.19,1.5918 -3.564,1.5918 -0.612,0 -1.182,-0.1074 -1.709,-0.3222 -0.527,-0.2214 -1.052,-0.5795 -1.572,-1.0742 v 5.0097 h -2.647 V 30.375 Z m 2.802,2.1875 c -0.84,0 -1.536,0.2865 -2.09,0.8594 -0.553,0.5729 -0.83,1.3216 -0.83,2.2461 0,0.944 0.277,1.709 0.83,2.2949 0.554,0.5794 1.25,0.8691 2.09,0.8691 0.814,0 1.498,-0.2962 2.051,-0.8886 0.56,-0.5925 0.84,-1.3477 0.84,-2.2657 0,-0.9114 -0.273,-1.6569 -0.82,-2.2363 -0.547,-0.5859 -1.237,-0.8789 -2.071,-0.8789 z m 18.399,3.8965 h -8.565 c 0.124,0.7552 0.453,1.3574 0.987,1.8066 0.54,0.4427 1.227,0.6641 2.06,0.6641 0.996,0 1.852,-0.3483 2.569,-1.0449 l 2.246,1.0547 c -0.56,0.7942 -1.231,1.3834 -2.012,1.7675 -0.781,0.3776 -1.709,0.5664 -2.783,0.5664 -1.667,0 -3.024,-0.5241 -4.073,-1.5722 -1.048,-1.0547 -1.572,-2.3731 -1.572,-3.9551 0,-1.6211 0.521,-2.9655 1.563,-4.0332 1.048,-1.0742 2.36,-1.6113 3.935,-1.6113 1.673,0 3.034,0.5371 4.082,1.6113 1.048,1.0677 1.573,2.4805 1.573,4.2383 z m -2.676,-2.0996 c -0.176,-0.5925 -0.524,-1.0742 -1.045,-1.4453 -0.514,-0.3711 -1.113,-0.5567 -1.797,-0.5567 -0.742,0 -1.393,0.2084 -1.953,0.625 -0.351,0.2604 -0.677,0.7194 -0.976,1.377 z m 4.844,-3.9844 h 2.666 v 3.9746 l 3.672,-3.9746 h 3.252 l -4.737,5.1758 4.795,5.4492 h -3.535 l -3.164,-3.75 -0.283,0.332 V 41 h -2.666 z m 15.732,-0.2734 c 1.003,0 1.944,0.2506 2.822,0.7519 0.886,0.5013 1.576,1.1817 2.071,2.041 0.495,0.8594 0.742,1.7871 0.742,2.7832 0,1.0026 -0.251,1.9401 -0.752,2.8125 -0.495,0.8724 -1.172,1.556 -2.031,2.0508 -0.86,0.4883 -1.807,0.7324 -2.842,0.7324 -1.523,0 -2.826,-0.5403 -3.906,-1.6211 -1.075,-1.0872 -1.612,-2.4056 -1.612,-3.955 0,-1.6602 0.609,-3.0437 1.827,-4.1504 1.067,-0.9636 2.294,-1.4453 3.681,-1.4453 z m 0.039,2.5097 c -0.827,0 -1.517,0.2897 -2.07,0.8692 -0.547,0.5729 -0.82,1.3086 -0.82,2.207 0,0.9245 0.27,1.6732 0.81,2.2461 0.547,0.5729 1.237,0.8594 2.07,0.8594 0.834,0 1.527,-0.2897 2.081,-0.8692 0.553,-0.5794 0.83,-1.3248 0.83,-2.2363 0,-0.9115 -0.274,-1.6504 -0.821,-2.2168 -0.54,-0.5729 -1.233,-0.8594 -2.08,-0.8594 z m 14.287,4.4629 3.262,-6.6992 h 1.758 L 400.203,41 h -2.607 L 396.18,34.7695 393.016,41 h -1.094 L 388.826,34.7695 387.4,41 h -2.597 l 2.656,-10.625 h 1.758 z m 19.805,-0.6152 h -8.564 c 0.123,0.7552 0.452,1.3574 0.986,1.8066 0.54,0.4427 1.227,0.6641 2.06,0.6641 0.997,0 1.853,-0.3483 2.569,-1.0449 l 2.246,1.0547 c -0.56,0.7942 -1.231,1.3834 -2.012,1.7675 -0.781,0.3776 -1.709,0.5664 -2.783,0.5664 -1.667,0 -3.024,-0.5241 -4.072,-1.5722 -1.048,-1.0547 -1.573,-2.3731 -1.573,-3.9551 0,-1.6211 0.521,-2.9655 1.563,-4.0332 1.048,-1.0742 2.36,-1.6113 3.936,-1.6113 1.673,0 3.033,0.5371 4.082,1.6113 1.048,1.0677 1.572,2.4805 1.572,4.2383 z m -2.676,-2.0996 c -0.176,-0.5925 -0.524,-1.0742 -1.045,-1.4453 -0.514,-0.3711 -1.113,-0.5567 -1.797,-0.5567 -0.742,0 -1.393,0.2084 -1.953,0.625 -0.351,0.2604 -0.677,0.7194 -0.976,1.377 z m 7.51,-0.1563 h 3.965 V 30.375 h 2.676 V 41 h -2.676 v -4.4043 h -3.965 V 41 H 414.49 V 30.375 h 2.676 z M 427.889,41 v 1.8457 h -2.373 v -4.1016 h 1.601 l 3.662,-8.3691 h 1.719 l 3.711,8.3691 h 1.631 v 4.1016 h -2.539 V 41 Z m 5.488,-2.2559 -1.738,-4.4726 -1.797,4.4726 z m 14.014,-8.3691 h 2.656 V 41 h -2.656 v -1.123 c -0.521,0.4947 -1.045,0.8528 -1.573,1.0742 -0.52,0.2148 -1.087,0.3222 -1.699,0.3222 -1.374,0 -2.562,-0.5306 -3.564,-1.5918 -1.003,-1.0677 -1.504,-2.3925 -1.504,-3.9746 0,-1.6406 0.485,-2.985 1.455,-4.0332 0.97,-1.0481 2.148,-1.5722 3.535,-1.5722 0.638,0 1.237,0.1204 1.797,0.3613 0.56,0.2409 1.077,0.6022 1.553,1.084 z m -2.803,2.1875 c -0.827,0 -1.514,0.293 -2.061,0.8789 -0.547,0.5794 -0.82,1.3249 -0.82,2.2363 0,0.918 0.277,1.6732 0.83,2.2657 0.56,0.5924 1.247,0.8886 2.061,0.8886 0.84,0 1.536,-0.2897 2.09,-0.8691 0.553,-0.5859 0.83,-1.3509 0.83,-2.2949 0,-0.9245 -0.277,-1.6732 -0.83,-2.2461 -0.554,-0.5729 -1.254,-0.8594 -2.1,-0.8594 z M 452.732,41 V 30.375 h 2.676 v 8.0664 h 3.965 V 30.375 h 2.676 v 8.0664 h 2.705 v 4.4238 h -2.539 V 41 Z m 14.893,0 h -1.416 V 30.375 h 2.598 v 6.2402 l 5.439,-6.2402 h 1.279 V 41 h -2.597 v -6.1133 z m 12.012,0 h -1.416 V 30.375 h 2.597 v 6.2402 l 5.44,-6.2402 h 1.279 V 41 h -2.598 v -6.1133 z"
       fill="#000000"
       id="path404" /><path
       d="M 694.24,215.635 V 230 h -2.734 v -8.994 L 686.145,230 h -2.383 v -14.365 h 2.734 v 9.287 l 5.44,-9.287 z m 13.389,5.888 -2.217,1.221 c -0.417,-0.436 -0.83,-0.739 -1.24,-0.908 -0.404,-0.169 -0.879,-0.254 -1.426,-0.254 -0.996,0 -1.803,0.3 -2.422,0.898 -0.612,0.593 -0.918,1.355 -0.918,2.286 0,0.905 0.296,1.644 0.889,2.216 0.592,0.573 1.37,0.86 2.334,0.86 1.191,0 2.119,-0.407 2.783,-1.221 l 2.1,1.436 c -1.14,1.478 -2.748,2.216 -4.824,2.216 -1.869,0 -3.334,-0.553 -4.395,-1.66 -1.055,-1.106 -1.582,-2.402 -1.582,-3.886 0,-1.029 0.257,-1.976 0.771,-2.842 0.515,-0.866 1.231,-1.546 2.149,-2.041 0.924,-0.495 1.956,-0.742 3.096,-0.742 1.054,0 2.002,0.211 2.841,0.634 0.84,0.417 1.527,1.013 2.061,1.787 z m 1.465,-2.148 h 9.902 v 2.539 h -3.525 V 230 h -2.676 v -8.086 h -3.701 z m 16.64,-0.273 c 1.003,0 1.944,0.25 2.823,0.752 0.885,0.501 1.575,1.181 2.07,2.041 0.495,0.859 0.742,1.787 0.742,2.783 0,1.002 -0.251,1.94 -0.752,2.812 -0.495,0.873 -1.172,1.556 -2.031,2.051 -0.859,0.488 -1.807,0.732 -2.842,0.732 -1.523,0 -2.825,-0.54 -3.906,-1.621 -1.074,-1.087 -1.611,-2.405 -1.611,-3.955 0,-1.66 0.608,-3.043 1.826,-4.15 1.067,-0.964 2.295,-1.445 3.681,-1.445 z m 0.039,2.509 c -0.826,0 -1.516,0.29 -2.07,0.869 -0.547,0.573 -0.82,1.309 -0.82,2.208 0,0.924 0.27,1.673 0.81,2.246 0.547,0.573 1.237,0.859 2.071,0.859 0.833,0 1.526,-0.29 2.08,-0.869 0.553,-0.58 0.83,-1.325 0.83,-2.236 0,-0.912 -0.274,-1.651 -0.82,-2.217 -0.541,-0.573 -1.234,-0.86 -2.081,-0.86 z m 10.43,-2.236 v 1.172 c 0.482,-0.482 1.003,-0.843 1.563,-1.084 0.56,-0.241 1.158,-0.361 1.796,-0.361 1.387,0 2.566,0.524 3.536,1.572 0.97,1.048 1.455,2.392 1.455,4.033 0,1.582 -0.502,2.907 -1.504,3.975 -1.003,1.061 -2.191,1.591 -3.565,1.591 -0.612,0 -1.181,-0.107 -1.709,-0.322 -0.527,-0.221 -1.051,-0.579 -1.572,-1.074 v 5.01 h -2.646 v -14.512 z m 2.803,2.187 c -0.84,0 -1.537,0.287 -2.09,0.86 -0.553,0.573 -0.83,1.321 -0.83,2.246 0,0.944 0.277,1.709 0.83,2.295 0.553,0.579 1.25,0.869 2.09,0.869 0.814,0 1.497,-0.296 2.051,-0.889 0.56,-0.592 0.839,-1.347 0.839,-2.265 0,-0.912 -0.273,-1.657 -0.82,-2.237 -0.547,-0.586 -1.237,-0.879 -2.07,-0.879 z m 9.16,8.438 h -1.416 v -10.625 h 2.598 v 6.24 l 5.439,-6.24 h 1.279 V 230 h -2.597 v -6.113 z m 12.412,-4.355 c -0.573,-0.189 -1.045,-0.544 -1.416,-1.065 -0.364,-0.527 -0.547,-1.12 -0.547,-1.777 0,-0.788 0.225,-1.478 0.674,-2.071 0.449,-0.592 0.983,-0.966 1.602,-1.123 0.625,-0.156 1.598,-0.234 2.92,-0.234 h 2.695 V 230 h -2.676 v -3.848 h -0.518 L 760.783,230 h -3.154 z m 3.252,-1.495 v -2.548 h -0.928 c -1.009,0 -1.513,0.423 -1.513,1.269 0,0.853 0.563,1.279 1.689,1.279 z m 21.133,-9.101 v 2.519 c -0.762,0.085 -1.501,0.131 -2.217,0.137 -1.302,0.013 -2.282,0.072 -2.939,0.176 -0.658,0.098 -1.237,0.332 -1.739,0.703 -0.501,0.365 -0.856,0.788 -1.064,1.27 -0.208,0.475 -0.335,1.162 -0.381,2.06 0.768,-1.842 2.087,-2.764 3.955,-2.764 1.374,0 2.562,0.505 3.565,1.514 1.009,1.003 1.513,2.298 1.513,3.887 0,1.64 -0.54,3.004 -1.621,4.092 -1.081,1.087 -2.415,1.63 -4.004,1.63 -1.295,0 -2.438,-0.397 -3.427,-1.191 -0.984,-0.794 -1.615,-1.738 -1.895,-2.832 -0.28,-1.1 -0.42,-2.272 -0.42,-3.516 0,-1.595 0.199,-2.89 0.596,-3.886 0.397,-1.003 0.918,-1.755 1.562,-2.256 0.651,-0.502 1.403,-0.837 2.256,-1.006 0.853,-0.169 2.106,-0.29 3.76,-0.361 1.12,-0.052 1.953,-0.111 2.5,-0.176 z m -2.002,9.639 c 0,-0.886 -0.267,-1.618 -0.801,-2.198 -0.527,-0.586 -1.227,-0.879 -2.099,-0.879 -0.834,0 -1.524,0.293 -2.071,0.879 -0.547,0.586 -0.82,1.319 -0.82,2.198 0,0.924 0.27,1.673 0.81,2.246 0.547,0.566 1.237,0.849 2.071,0.849 0.82,0 1.51,-0.283 2.07,-0.849 0.56,-0.573 0.84,-1.322 0.84,-2.246 z m 9.883,-5.586 c 1.002,0 1.943,0.25 2.822,0.752 0.885,0.501 1.576,1.181 2.07,2.041 0.495,0.859 0.743,1.787 0.743,2.783 0,1.002 -0.251,1.94 -0.752,2.812 -0.495,0.873 -1.172,1.556 -2.032,2.051 -0.859,0.488 -1.806,0.732 -2.841,0.732 -1.524,0 -2.826,-0.54 -3.907,-1.621 -1.074,-1.087 -1.611,-2.405 -1.611,-3.955 0,-1.66 0.609,-3.043 1.826,-4.15 1.068,-0.964 2.295,-1.445 3.682,-1.445 z m 0.039,2.509 c -0.827,0 -1.517,0.29 -2.071,0.869 -0.546,0.573 -0.82,1.309 -0.82,2.208 0,0.924 0.27,1.673 0.811,2.246 0.547,0.573 1.237,0.859 2.07,0.859 0.833,0 1.527,-0.29 2.08,-0.869 0.554,-0.58 0.83,-1.325 0.83,-2.236 0,-0.912 -0.273,-1.651 -0.82,-2.217 -0.54,-0.573 -1.234,-0.86 -2.08,-0.86 z M 810.158,230 h -2.715 l -2.656,-6.709 -2.705,6.709 h -2.705 l 4.531,-10.625 h 1.719 z m 12.051,-4.541 h -8.564 c 0.123,0.755 0.452,1.357 0.986,1.807 0.54,0.442 1.227,0.664 2.06,0.664 0.997,0 1.853,-0.349 2.569,-1.045 l 2.246,1.054 c -0.56,0.795 -1.231,1.384 -2.012,1.768 -0.781,0.378 -1.709,0.566 -2.783,0.566 -1.667,0 -3.024,-0.524 -4.072,-1.572 -1.049,-1.055 -1.573,-2.373 -1.573,-3.955 0,-1.621 0.521,-2.965 1.563,-4.033 1.048,-1.074 2.36,-1.611 3.935,-1.611 1.674,0 3.034,0.537 4.082,1.611 1.049,1.068 1.573,2.48 1.573,4.238 z m -2.676,-2.1 c -0.176,-0.592 -0.524,-1.074 -1.045,-1.445 -0.514,-0.371 -1.113,-0.557 -1.797,-0.557 -0.742,0 -1.393,0.209 -1.953,0.625 -0.351,0.261 -0.677,0.72 -0.976,1.377 z m 6.621,2.139 v -1.904 h 0.528 c 0.358,0 0.67,-0.085 0.937,-0.254 0.267,-0.169 0.401,-0.443 0.401,-0.82 0,-0.326 -0.121,-0.593 -0.362,-0.801 -0.234,-0.215 -0.524,-0.323 -0.869,-0.323 -0.436,0 -0.983,0.212 -1.641,0.635 l -1.054,-1.836 c 0.918,-0.729 1.94,-1.093 3.066,-1.093 1.035,0 1.891,0.27 2.569,0.81 0.683,0.534 1.025,1.257 1.025,2.168 0,0.925 -0.495,1.673 -1.484,2.246 1.321,0.488 1.982,1.371 1.982,2.647 0,0.95 -0.371,1.738 -1.113,2.363 -0.743,0.625 -1.768,0.937 -3.077,0.937 -1.438,0 -2.626,-0.403 -3.564,-1.211 l 1.475,-1.855 c 0.631,0.469 1.23,0.703 1.797,0.703 0.455,0 0.817,-0.107 1.084,-0.322 0.266,-0.221 0.4,-0.505 0.4,-0.85 0,-0.332 -0.127,-0.621 -0.381,-0.869 -0.247,-0.247 -0.589,-0.371 -1.025,-0.371 z m 9.893,-2.295 h 3.965 v -3.828 h 2.676 V 230 h -2.676 v -4.404 h -3.965 V 230 h -2.676 v -10.625 h 2.676 z m 19.99,2.256 h -8.564 c 0.123,0.755 0.452,1.357 0.986,1.807 0.54,0.442 1.227,0.664 2.061,0.664 0.996,0 1.852,-0.349 2.568,-1.045 l 2.246,1.054 c -0.56,0.795 -1.23,1.384 -2.012,1.768 -0.781,0.378 -1.709,0.566 -2.783,0.566 -1.667,0 -3.024,-0.524 -4.072,-1.572 -1.048,-1.055 -1.572,-2.373 -1.572,-3.955 0,-1.621 0.52,-2.965 1.562,-4.033 1.048,-1.074 2.36,-1.611 3.936,-1.611 1.673,0 3.033,0.537 4.082,1.611 1.048,1.068 1.572,2.48 1.572,4.238 z m -2.676,-2.1 c -0.175,-0.592 -0.524,-1.074 -1.045,-1.445 -0.514,-0.371 -1.113,-0.557 -1.796,-0.557 -0.743,0 -1.394,0.209 -1.954,0.625 -0.351,0.261 -0.677,0.72 -0.976,1.377 z m 6.25,6.641 h -1.416 v -10.625 h 2.598 v 6.24 l 5.439,-6.24 h 1.28 V 230 h -2.598 v -6.113 z m -0.634,-15.312 h 2.158 c 0.169,0.266 0.403,0.468 0.703,0.605 0.306,0.13 0.677,0.195 1.113,0.195 0.443,0 0.843,-0.078 1.201,-0.234 0.235,-0.104 0.44,-0.293 0.616,-0.566 h 2.158 c -0.124,0.826 -0.521,1.49 -1.192,1.992 -0.664,0.501 -1.595,0.752 -2.793,0.752 -0.807,0 -1.484,-0.111 -2.031,-0.332 -0.54,-0.228 -0.976,-0.551 -1.308,-0.967 -0.332,-0.417 -0.541,-0.899 -0.625,-1.445 z M 711.271,252 h -2.675 v -10.625 h 9.316 V 252 h -2.676 v -8.057 h -3.965 z m 14.336,-10.898 c 1.003,0 1.944,0.25 2.823,0.752 0.885,0.501 1.575,1.181 2.07,2.041 0.495,0.859 0.742,1.787 0.742,2.783 0,1.002 -0.25,1.94 -0.752,2.812 -0.495,0.873 -1.172,1.556 -2.031,2.051 -0.859,0.488 -1.807,0.732 -2.842,0.732 -1.523,0 -2.825,-0.54 -3.906,-1.621 -1.074,-1.087 -1.611,-2.405 -1.611,-3.955 0,-1.66 0.608,-3.043 1.826,-4.15 1.067,-0.964 2.295,-1.445 3.681,-1.445 z m 0.039,2.509 c -0.826,0 -1.516,0.29 -2.07,0.869 -0.547,0.573 -0.82,1.309 -0.82,2.208 0,0.924 0.27,1.673 0.81,2.246 0.547,0.573 1.237,0.859 2.071,0.859 0.833,0 1.526,-0.29 2.08,-0.869 0.553,-0.58 0.83,-1.325 0.83,-2.236 0,-0.912 -0.274,-1.651 -0.82,-2.217 -0.541,-0.573 -1.234,-0.86 -2.081,-0.86 z M 742.922,252 h -2.715 l -2.656,-6.709 -2.705,6.709 h -2.705 l 4.531,-10.625 h 1.719 z m 4.072,-6.797 h 0.791 c 1.113,0 1.966,0.088 2.559,0.264 0.599,0.169 1.103,0.527 1.513,1.074 0.411,0.547 0.616,1.234 0.616,2.061 0,0.82 -0.186,1.503 -0.557,2.05 -0.371,0.541 -0.846,0.902 -1.426,1.084 -0.573,0.176 -1.38,0.264 -2.422,0.264 h -3.75 v -10.625 h 2.676 z m 0,4.746 h 0.811 c 0.481,0 0.83,-0.032 1.045,-0.097 0.214,-0.072 0.403,-0.206 0.566,-0.401 0.163,-0.195 0.244,-0.433 0.244,-0.713 0,-0.911 -0.521,-1.367 -1.562,-1.367 h -1.104 z m 9.307,-2.451 v -1.904 h 0.527 c 0.358,0 0.671,-0.085 0.938,-0.254 0.267,-0.169 0.4,-0.443 0.4,-0.82 0,-0.326 -0.12,-0.593 -0.361,-0.801 -0.235,-0.215 -0.524,-0.323 -0.869,-0.323 -0.437,0 -0.984,0.212 -1.641,0.635 l -1.055,-1.836 c 0.918,-0.729 1.94,-1.093 3.067,-1.093 1.035,0 1.891,0.27 2.568,0.81 0.684,0.534 1.025,1.257 1.025,2.168 0,0.925 -0.494,1.673 -1.484,2.246 1.322,0.488 1.982,1.371 1.982,2.647 0,0.95 -0.371,1.738 -1.113,2.363 -0.742,0.625 -1.767,0.937 -3.076,0.937 -1.439,0 -2.627,-0.403 -3.564,-1.211 l 1.474,-1.855 c 0.632,0.469 1.231,0.703 1.797,0.703 0.456,0 0.817,-0.107 1.084,-0.322 0.267,-0.221 0.4,-0.505 0.4,-0.85 0,-0.332 -0.127,-0.621 -0.38,-0.869 -0.248,-0.247 -0.59,-0.371 -1.026,-0.371 z m 12.217,-6.396 c 1.002,0 1.943,0.25 2.822,0.752 0.885,0.501 1.575,1.181 2.07,2.041 0.495,0.859 0.742,1.787 0.742,2.783 0,1.002 -0.25,1.94 -0.752,2.812 -0.494,0.873 -1.171,1.556 -2.031,2.051 -0.859,0.488 -1.807,0.732 -2.842,0.732 -1.523,0 -2.825,-0.54 -3.906,-1.621 -1.074,-1.087 -1.611,-2.405 -1.611,-3.955 0,-1.66 0.608,-3.043 1.826,-4.15 1.068,-0.964 2.295,-1.445 3.682,-1.445 z m 0.039,2.509 c -0.827,0 -1.517,0.29 -2.071,0.869 -0.547,0.573 -0.82,1.309 -0.82,2.208 0,0.924 0.27,1.673 0.811,2.246 0.546,0.573 1.237,0.859 2.07,0.859 0.833,0 1.527,-0.29 2.08,-0.869 0.553,-0.58 0.83,-1.325 0.83,-2.236 0,-0.912 -0.273,-1.651 -0.82,-2.217 -0.541,-0.573 -1.234,-0.86 -2.08,-0.86 z M 776.34,252 v -10.625 h 4.267 c 1.4,0 2.351,0.277 2.852,0.83 0.501,0.547 0.752,1.169 0.752,1.865 0,1.035 -0.514,1.781 -1.543,2.237 1.406,0.481 2.109,1.39 2.109,2.724 0,0.723 -0.185,1.322 -0.556,1.797 -0.371,0.469 -0.843,0.781 -1.416,0.938 -0.567,0.156 -1.361,0.234 -2.383,0.234 z m 2.676,-6.445 h 1.025 c 0.436,0 0.771,-0.108 1.006,-0.323 0.241,-0.221 0.361,-0.465 0.361,-0.732 0,-0.397 -0.114,-0.706 -0.342,-0.928 -0.227,-0.221 -0.498,-0.332 -0.81,-0.332 l -0.342,0.01 h -0.898 z m 0,4.394 h 1.338 c 0.52,0 0.885,-0.12 1.093,-0.361 0.215,-0.248 0.323,-0.488 0.323,-0.723 0,-0.345 -0.121,-0.661 -0.362,-0.947 -0.234,-0.286 -0.661,-0.43 -1.279,-0.43 h -1.113 z m 15.879,-8.574 h 2.656 V 252 h -2.656 v -1.123 c -0.521,0.495 -1.045,0.853 -1.573,1.074 -0.521,0.215 -1.087,0.322 -1.699,0.322 -1.374,0 -2.562,-0.53 -3.564,-1.591 -1.003,-1.068 -1.504,-2.393 -1.504,-3.975 0,-1.641 0.485,-2.985 1.455,-4.033 0.97,-1.048 2.148,-1.572 3.535,-1.572 0.638,0 1.237,0.12 1.797,0.361 0.56,0.241 1.077,0.602 1.553,1.084 z m -2.803,2.187 c -0.827,0 -1.514,0.293 -2.061,0.879 -0.547,0.58 -0.82,1.325 -0.82,2.237 0,0.918 0.277,1.673 0.83,2.265 0.56,0.593 1.247,0.889 2.061,0.889 0.839,0 1.536,-0.29 2.089,-0.869 0.554,-0.586 0.83,-1.351 0.83,-2.295 0,-0.925 -0.276,-1.673 -0.83,-2.246 -0.553,-0.573 -1.253,-0.86 -2.099,-0.86 z m 7.207,-2.187 h 9.902 v 2.539 h -3.525 V 252 H 803 v -8.086 h -3.701 z m 22.295,6.084 h -8.565 c 0.124,0.755 0.453,1.357 0.987,1.807 0.54,0.442 1.227,0.664 2.06,0.664 0.996,0 1.852,-0.349 2.569,-1.045 l 2.246,1.054 c -0.56,0.795 -1.231,1.384 -2.012,1.768 -0.781,0.378 -1.709,0.566 -2.783,0.566 -1.667,0 -3.024,-0.524 -4.073,-1.572 -1.048,-1.055 -1.572,-2.373 -1.572,-3.955 0,-1.621 0.521,-2.965 1.563,-4.033 1.048,-1.074 2.36,-1.611 3.935,-1.611 1.673,0 3.034,0.537 4.082,1.611 1.048,1.068 1.573,2.48 1.573,4.238 z m -2.676,-2.1 c -0.176,-0.592 -0.524,-1.074 -1.045,-1.445 -0.514,-0.371 -1.113,-0.557 -1.797,-0.557 -0.742,0 -1.393,0.209 -1.953,0.625 -0.352,0.261 -0.677,0.72 -0.977,1.377 z M 833.254,252 h -2.715 l -2.656,-6.709 -2.705,6.709 h -2.705 l 4.531,-10.625 h 1.719 z m 3.213,-4.355 c -0.573,-0.189 -1.045,-0.544 -1.416,-1.065 -0.365,-0.527 -0.547,-1.12 -0.547,-1.777 0,-0.788 0.225,-1.478 0.674,-2.071 0.449,-0.592 0.983,-0.966 1.601,-1.123 0.625,-0.156 1.599,-0.234 2.92,-0.234 h 2.696 V 252 h -2.676 v -3.848 h -0.518 L 836.672,252 h -3.154 z m 3.252,-1.495 v -2.548 h -0.928 c -1.009,0 -1.514,0.423 -1.514,1.269 0,0.853 0.563,1.279 1.69,1.279 z"
       fill="#000000"
       id="path406" /><path
       d="m 336.631,391.635 h 2.773 v 5.42 h 4.805 v -5.42 h 2.764 V 406 h -2.764 v -6.299 h -4.805 V 406 h -2.773 z m 21.181,3.74 h 2.657 V 406 h -2.657 v -1.123 c -0.52,0.495 -1.044,0.853 -1.572,1.074 -0.521,0.215 -1.087,0.322 -1.699,0.322 -1.374,0 -2.562,-0.53 -3.564,-1.591 -1.003,-1.068 -1.504,-2.393 -1.504,-3.975 0,-1.641 0.485,-2.985 1.455,-4.033 0.97,-1.048 2.148,-1.572 3.535,-1.572 0.638,0 1.237,0.12 1.797,0.361 0.56,0.241 1.077,0.602 1.552,1.084 z m -2.802,2.187 c -0.827,0 -1.514,0.293 -2.061,0.879 -0.547,0.58 -0.82,1.325 -0.82,2.237 0,0.918 0.277,1.673 0.83,2.265 0.56,0.593 1.247,0.889 2.061,0.889 0.839,0 1.536,-0.29 2.089,-0.869 0.554,-0.586 0.83,-1.351 0.83,-2.295 0,-0.925 -0.276,-1.673 -0.83,-2.246 -0.553,-0.573 -1.253,-0.86 -2.099,-0.86 z M 378.486,406 h -15.332 v -10.625 h 2.676 v 8.066 h 3.652 v -8.066 h 2.676 v 8.066 h 3.662 v -8.066 h 2.666 z m 10.557,-10.625 h 2.656 V 406 h -2.656 v -1.123 c -0.521,0.495 -1.045,0.853 -1.572,1.074 -0.521,0.215 -1.088,0.322 -1.7,0.322 -1.373,0 -2.561,-0.53 -3.564,-1.591 -1.003,-1.068 -1.504,-2.393 -1.504,-3.975 0,-1.641 0.485,-2.985 1.455,-4.033 0.97,-1.048 2.149,-1.572 3.535,-1.572 0.638,0 1.237,0.12 1.797,0.361 0.56,0.241 1.078,0.602 1.553,1.084 z m -2.803,2.187 c -0.827,0 -1.513,0.293 -2.06,0.879 -0.547,0.58 -0.821,1.325 -0.821,2.237 0,0.918 0.277,1.673 0.83,2.265 0.56,0.593 1.247,0.889 2.061,0.889 0.84,0 1.536,-0.29 2.09,-0.869 0.553,-0.586 0.83,-1.351 0.83,-2.295 0,-0.925 -0.277,-1.673 -0.83,-2.246 -0.554,-0.573 -1.253,-0.86 -2.1,-0.86 z m 24.16,-0.039 -2.216,1.221 c -0.417,-0.436 -0.83,-0.739 -1.241,-0.908 -0.403,-0.169 -0.879,-0.254 -1.425,-0.254 -0.997,0 -1.804,0.3 -2.422,0.898 -0.612,0.593 -0.918,1.355 -0.918,2.286 0,0.905 0.296,1.644 0.888,2.216 0.593,0.573 1.371,0.86 2.334,0.86 1.192,0 2.12,-0.407 2.784,-1.221 l 2.099,1.436 c -1.139,1.478 -2.747,2.216 -4.824,2.216 -1.869,0 -3.333,-0.553 -4.395,-1.66 -1.054,-1.106 -1.582,-2.402 -1.582,-3.886 0,-1.029 0.258,-1.976 0.772,-2.842 0.514,-0.866 1.23,-1.546 2.148,-2.041 0.925,-0.495 1.957,-0.742 3.096,-0.742 1.055,0 2.002,0.211 2.842,0.634 0.84,0.417 1.527,1.013 2.06,1.787 z m 3.819,8.477 h -1.416 v -10.625 h 2.597 v 6.24 l 5.44,-6.24 h 1.279 V 406 h -2.598 v -6.113 z m 21.006,-8.477 -2.217,1.221 c -0.417,-0.436 -0.83,-0.739 -1.24,-0.908 -0.404,-0.169 -0.879,-0.254 -1.426,-0.254 -0.996,0 -1.804,0.3 -2.422,0.898 -0.612,0.593 -0.918,1.355 -0.918,2.286 0,0.905 0.296,1.644 0.889,2.216 0.592,0.573 1.37,0.86 2.334,0.86 1.191,0 2.119,-0.407 2.783,-1.221 l 2.099,1.436 c -1.139,1.478 -2.747,2.216 -4.824,2.216 -1.868,0 -3.333,-0.553 -4.394,-1.66 -1.055,-1.106 -1.582,-2.402 -1.582,-3.886 0,-1.029 0.257,-1.976 0.771,-2.842 0.514,-0.866 1.231,-1.546 2.149,-2.041 0.924,-0.495 1.956,-0.742 3.095,-0.742 1.055,0 2.002,0.211 2.842,0.634 0.84,0.417 1.527,1.013 2.061,1.787 z m 1.464,-2.148 h 9.903 v 2.539 h -3.526 V 406 h -2.675 v -8.086 h -3.702 z m 22.295,6.084 h -8.564 c 0.124,0.755 0.452,1.357 0.986,1.807 0.541,0.442 1.227,0.664 2.061,0.664 0.996,0 1.852,-0.349 2.568,-1.045 l 2.246,1.054 c -0.56,0.795 -1.23,1.384 -2.011,1.768 -0.782,0.378 -1.709,0.566 -2.784,0.566 -1.666,0 -3.024,-0.524 -4.072,-1.572 -1.048,-1.055 -1.572,-2.373 -1.572,-3.955 0,-1.621 0.521,-2.965 1.562,-4.033 1.048,-1.074 2.36,-1.611 3.936,-1.611 1.673,0 3.034,0.537 4.082,1.611 1.048,1.068 1.572,2.48 1.572,4.238 z m -2.675,-2.1 c -0.176,-0.592 -0.524,-1.074 -1.045,-1.445 -0.515,-0.371 -1.114,-0.557 -1.797,-0.557 -0.742,0 -1.393,0.209 -1.953,0.625 -0.352,0.261 -0.677,0.72 -0.977,1.377 z m 11.347,2.715 3.262,-6.699 h 1.758 L 475.332,406 h -2.607 l -1.416,-6.23 -3.164,6.23 h -1.094 l -3.096,-6.23 -1.426,6.23 h -2.597 l 2.656,-10.625 h 1.758 z m 17.012,-6.699 h 2.656 V 406 h -2.656 v -1.123 c -0.521,0.495 -1.045,0.853 -1.572,1.074 -0.521,0.215 -1.088,0.322 -1.7,0.322 -1.373,0 -2.561,-0.53 -3.564,-1.591 -1.003,-1.068 -1.504,-2.393 -1.504,-3.975 0,-1.641 0.485,-2.985 1.455,-4.033 0.97,-1.048 2.149,-1.572 3.535,-1.572 0.638,0 1.237,0.12 1.797,0.361 0.56,0.241 1.078,0.602 1.553,1.084 z m -2.803,2.187 c -0.827,0 -1.513,0.293 -2.06,0.879 -0.547,0.58 -0.821,1.325 -0.821,2.237 0,0.918 0.277,1.673 0.83,2.265 0.56,0.593 1.247,0.889 2.061,0.889 0.84,0 1.536,-0.29 2.09,-0.869 0.553,-0.586 0.83,-1.351 0.83,-2.295 0,-0.925 -0.277,-1.673 -0.83,-2.246 -0.554,-0.573 -1.253,-0.86 -2.1,-0.86 z"
       fill="#000000"
       id="path408" /></g><g
     style="fill:none"
     id="g431"
     transform="translate(122.45239,585.28562)"><path
       d="M 0.896484,0.634766 H 3.79688 c 1.56901,0 2.69856,0.146484 3.38867,0.439454 0.69661,0.28646 1.24349,0.75521 1.64062,1.40625 0.40365,0.64453 0.60547,1.41927 0.60547,2.32422 0,1.0026 -0.26367,1.83593 -0.79102,2.5 C 8.11979,7.96875 7.41016,8.43099 6.51172,8.69141 5.98438,8.84115 5.02409,8.91602 3.63086,8.91602 V 15 H 0.896484 Z M 3.63086,6.25 H 4.5 C 5.18359,6.25 5.65885,6.20117 5.92578,6.10352 6.19271,6.00586 6.40104,5.84635 6.55078,5.625 6.70703,5.39714 6.78516,5.1237 6.78516,4.80469 6.78516,4.2513 6.57031,3.84766 6.14062,3.59375 5.82812,3.40495 5.2487,3.31055 4.40234,3.31055 H 3.63086 Z m 18.83794,4.209 h -8.5645 c 0.1237,0.7552 0.4525,1.3574 0.9863,1.8066 0.5404,0.4427 1.2272,0.6641 2.0606,0.6641 0.9961,0 1.8522,-0.3483 2.5683,-1.0449 l 2.2461,1.0547 c -0.5599,0.7942 -1.2304,1.3834 -2.0117,1.7675 -0.7812,0.3776 -1.709,0.5664 -2.7832,0.5664 -1.6667,0 -3.0241,-0.5241 -4.0723,-1.5722 -1.0481,-1.0547 -1.5722,-2.3731 -1.5722,-3.95511 0,-1.62109 0.5208,-2.96549 1.5625,-4.0332 1.0481,-1.07422 2.36,-1.61133 3.9355,-1.61133 1.6732,0 3.0339,0.53711 4.082,1.61133 1.0482,1.06771 1.5723,2.48047 1.5723,4.23828 z M 19.793,8.35938 C 19.6172,7.76693 19.2689,7.28516 18.748,6.91406 18.2337,6.54297 17.6348,6.35742 16.9512,6.35742 c -0.7422,0 -1.3933,0.20834 -1.9532,0.625 -0.3515,0.26042 -0.677,0.7194 -0.9765,1.37696 z M 24.6367,4.375 h 2.666 V 8.34961 L 30.9746,4.375 h 3.252 L 29.4902,9.55078 34.2852,15 H 30.75 l -3.1641,-3.75 -0.2832,0.332 V 15 h -2.666 z M 40.3691,4.10156 c 1.0026,0 1.9434,0.25065 2.8223,0.75196 0.8854,0.5013 1.5755,1.18164 2.0703,2.04101 0.4948,0.85938 0.7422,1.78711 0.7422,2.7832 0,1.00257 -0.2506,1.94007 -0.7519,2.81247 -0.4948,0.8724 -1.1719,1.556 -2.0313,2.0508 -0.8594,0.4883 -1.8066,0.7324 -2.8418,0.7324 -1.5234,0 -2.8255,-0.5403 -3.9062,-1.6211 -1.0743,-1.0872 -1.6114,-2.4056 -1.6114,-3.95503 0,-1.66016 0.6088,-3.04362 1.8262,-4.15039 1.0677,-0.96355 2.2949,-1.44532 3.6816,-1.44532 z m 0.0391,2.50977 c -0.8268,0 -1.5169,0.28971 -2.0703,0.86914 -0.5469,0.57292 -0.8203,1.30859 -0.8203,2.20703 0,0.9245 0.2702,1.6732 0.8105,2.2461 0.5469,0.5729 1.237,0.8594 2.0703,0.8594 0.8334,0 1.5267,-0.2897 2.0801,-0.8692 0.5534,-0.5794 0.8301,-1.3248 0.8301,-2.2363 0,-0.91146 -0.2734,-1.65039 -0.8203,-2.2168 C 41.9479,6.89779 41.2546,6.61133 40.4082,6.61133 Z M 54.6953,11.0742 57.957,4.375 h 1.7578 L 62.3711,15 H 59.7637 L 58.3477,8.76953 55.1836,15 H 54.0898 L 50.9941,8.76953 49.5684,15 H 46.9707 L 49.627,4.375 h 1.7578 z M 74.5,10.459 h -8.5645 c 0.1237,0.7552 0.4525,1.3574 0.9864,1.8066 0.5403,0.4427 1.2272,0.6641 2.0605,0.6641 0.9961,0 1.8522,-0.3483 2.5684,-1.0449 l 2.2461,1.0547 c -0.5599,0.7942 -1.2305,1.3834 -2.0117,1.7675 -0.7813,0.3776 -1.709,0.5664 -2.7832,0.5664 -1.6667,0 -3.0241,-0.5241 -4.0723,-1.5722 -1.0482,-1.0547 -1.5723,-2.3731 -1.5723,-3.95511 0,-1.62109 0.5209,-2.96549 1.5625,-4.0332 1.0482,-1.07422 2.36,-1.61133 3.9356,-1.61133 1.6731,0 3.0338,0.53711 4.082,1.61133 1.0482,1.06771 1.5723,2.48047 1.5723,4.23828 z M 71.8242,8.35938 C 71.6484,7.76693 71.3001,7.28516 70.7793,6.91406 70.265,6.54297 69.666,6.35742 68.9824,6.35742 c -0.7422,0 -1.3932,0.20834 -1.9531,0.625 -0.3516,0.26042 -0.6771,0.7194 -0.9766,1.37696 z M 79.334,8.20312 h 3.9648 V 4.375 h 2.6758 V 15 H 83.2988 V 10.5957 H 79.334 V 15 H 76.6582 V 4.375 H 79.334 Z M 90.0566,15 v 1.8457 h -2.373 v -4.1016 h 1.6016 L 92.9473,4.375 h 1.7187 l 3.711,8.3691 h 1.631 v 4.1016 H 97.4688 V 15 Z M 95.5449,12.7441 93.8066,8.27148 92.0098,12.7441 Z M 106.697,4.10156 c 1.003,0 1.944,0.25065 2.823,0.75196 0.885,0.5013 1.575,1.18164 2.07,2.04101 0.495,0.85938 0.742,1.78711 0.742,2.7832 0,1.00257 -0.251,1.94007 -0.752,2.81247 -0.495,0.8724 -1.172,1.556 -2.031,2.0508 -0.86,0.4883 -1.807,0.7324 -2.842,0.7324 -1.523,0 -2.825,-0.5403 -3.906,-1.6211 -1.074,-1.0872 -1.612,-2.4056 -1.612,-3.95503 0,-1.66016 0.609,-3.04362 1.827,-4.15039 1.067,-0.96355 2.295,-1.44532 3.681,-1.44532 z m 0.039,2.50977 c -0.826,0 -1.517,0.28971 -2.07,0.86914 -0.547,0.57292 -0.82,1.30859 -0.82,2.20703 0,0.9245 0.27,1.6732 0.81,2.2461 0.547,0.5729 1.237,0.8594 2.071,0.8594 0.833,0 1.526,-0.2897 2.08,-0.8692 0.553,-0.5794 0.83,-1.3248 0.83,-2.2363 0,-0.91146 -0.274,-1.65039 -0.821,-2.2168 -0.54,-0.57291 -1.233,-0.85937 -2.08,-0.85937 z M 114.52,15 V 4.375 h 4.267 c 1.4,0 2.35,0.27669 2.852,0.83008 0.501,0.54687 0.752,1.16862 0.752,1.86523 0,1.03516 -0.515,1.7806 -1.543,2.23633 1.406,0.48177 2.109,1.38996 2.109,2.72456 0,0.7227 -0.186,1.3217 -0.557,1.7969 -0.371,0.4688 -0.843,0.7813 -1.416,0.9375 C 120.418,14.9219 119.624,15 118.602,15 Z m 2.675,-6.44531 h 1.026 c 0.436,0 0.771,-0.10742 1.006,-0.32227 0.24,-0.22135 0.361,-0.46549 0.361,-0.73242 0,-0.39714 -0.114,-0.70638 -0.342,-0.92773 -0.228,-0.22136 -0.498,-0.33204 -0.81,-0.33204 L 118.094,6.25 h -0.899 z m 0,4.39451 h 1.338 c 0.521,0 0.886,-0.1204 1.094,-0.3613 0.215,-0.2474 0.322,-0.4883 0.322,-0.7227 0,-0.345 -0.12,-0.6608 -0.361,-0.9472 -0.234,-0.2865 -0.661,-0.4297 -1.279,-0.4297 h -1.114 z M 133.074,4.375 h 2.656 V 15 h -2.656 v -1.123 c -0.521,0.4947 -1.045,0.8528 -1.572,1.0742 -0.521,0.2148 -1.087,0.3222 -1.699,0.3222 -1.374,0 -2.562,-0.5306 -3.565,-1.5918 -1.002,-1.0677 -1.504,-2.3925 -1.504,-3.97457 0,-1.64062 0.485,-2.98502 1.455,-4.0332 0.971,-1.04818 2.149,-1.57227 3.536,-1.57227 0.638,0 1.237,0.12045 1.796,0.36133 0.56,0.24089 1.078,0.60221 1.553,1.08399 z m -2.803,2.1875 c -0.826,0 -1.513,0.29297 -2.06,0.87891 -0.547,0.57942 -0.82,1.32487 -0.82,2.23632 0,0.91797 0.276,1.67317 0.83,2.26567 0.56,0.5924 1.246,0.8886 2.06,0.8886 0.84,0 1.537,-0.2897 2.09,-0.8691 0.553,-0.5859 0.83,-1.3509 0.83,-2.29493 0,-0.92448 -0.277,-1.67318 -0.83,-2.24609 -0.553,-0.57292 -1.253,-0.85938 -2.1,-0.85938 z m 10.821,1.64062 h 3.965 V 4.375 h 2.675 V 15 h -2.675 v -4.4043 h -3.965 V 15 h -2.676 V 4.375 h 2.676 z m 12.012,0 h 3.964 V 4.375 h 2.676 V 15 h -2.676 v -4.4043 h -3.964 V 15 h -2.676 V 4.375 h 2.676 z M 170.301,4.375 h 2.656 V 15 h -2.656 v -1.123 c -0.521,0.4947 -1.045,0.8528 -1.572,1.0742 -0.521,0.2148 -1.088,0.3222 -1.7,0.3222 -1.373,0 -2.562,-0.5306 -3.564,-1.5918 -1.003,-1.0677 -1.504,-2.3925 -1.504,-3.97457 0,-1.64062 0.485,-2.98502 1.455,-4.0332 0.97,-1.04818 2.148,-1.57227 3.535,-1.57227 0.638,0 1.237,0.12045 1.797,0.36133 0.56,0.24089 1.078,0.60221 1.553,1.08399 z m -2.803,2.1875 c -0.827,0 -1.514,0.29297 -2.06,0.87891 -0.547,0.57942 -0.821,1.32487 -0.821,2.23632 0,0.91797 0.277,1.67317 0.83,2.26567 0.56,0.5924 1.247,0.8886 2.061,0.8886 0.84,0 1.536,-0.2897 2.09,-0.8691 0.553,-0.5859 0.83,-1.3509 0.83,-2.29493 0,-0.92448 -0.277,-1.67318 -0.83,-2.24609 -0.554,-0.57292 -1.254,-0.85938 -2.1,-0.85938 z m 9.961,4.082 c -0.573,-0.1888 -1.045,-0.5436 -1.416,-1.06442 -0.365,-0.52735 -0.547,-1.11979 -0.547,-1.77735 0,-0.78776 0.225,-1.47786 0.674,-2.07031 0.449,-0.59245 0.983,-0.9668 1.601,-1.12304 0.625,-0.15626 1.599,-0.23438 2.92,-0.23438 h 2.696 V 15 h -2.676 v -3.8477 h -0.518 L 177.664,15 h -3.154 z m 3.252,-1.49411 V 6.60156 h -0.928 c -1.009,0 -1.513,0.42318 -1.513,1.26953 0,0.85287 0.563,1.2793 1.689,1.2793 z M 50.2129,26.375 h 9.9023 v 2.5391 H 56.5898 V 37 h -2.6757 v -8.0859 h -3.7012 z m 22.2949,6.084 h -8.5644 c 0.1237,0.7552 0.4524,1.3574 0.9863,1.8066 0.5404,0.4427 1.2272,0.6641 2.0605,0.6641 0.9961,0 1.8522,-0.3483 2.5684,-1.0449 l 2.2461,1.0547 c -0.5599,0.7942 -1.2305,1.3834 -2.0117,1.7675 -0.7813,0.3776 -1.709,0.5664 -2.7832,0.5664 -1.6667,0 -3.0241,-0.5241 -4.0723,-1.5722 -1.0482,-1.0547 -1.5723,-2.3731 -1.5723,-3.9551 0,-1.6211 0.5209,-2.9655 1.5625,-4.0332 1.0482,-1.0742 2.3601,-1.6113 3.9356,-1.6113 1.6732,0 3.0338,0.5371 4.082,1.6113 1.0482,1.0677 1.5723,2.4805 1.5723,4.2383 z M 69.832,30.3594 c -0.1758,-0.5925 -0.5241,-1.0742 -1.0449,-1.4453 -0.5143,-0.3711 -1.1133,-0.5567 -1.7969,-0.5567 -0.7422,0 -1.3932,0.2084 -1.9531,0.625 -0.3516,0.2604 -0.6771,0.7194 -0.9766,1.377 z m 7.4903,-3.9844 v 1.1719 c 0.4817,-0.4818 1.0026,-0.8431 1.5625,-1.084 0.5599,-0.2409 1.1588,-0.3613 1.7968,-0.3613 1.3868,0 2.5651,0.5241 3.5352,1.5722 0.97,1.0482 1.4551,2.3926 1.4551,4.0332 0,1.5821 -0.5013,2.9069 -1.5039,3.9746 -1.0026,1.0612 -2.1908,1.5918 -3.5645,1.5918 -0.612,0 -1.1816,-0.1074 -1.709,-0.3222 -0.5273,-0.2214 -1.0514,-0.5795 -1.5722,-1.0742 v 5.0097 H 74.6758 V 26.375 Z m 2.8027,2.1875 c -0.8398,0 -1.5365,0.2865 -2.0898,0.8594 -0.5534,0.5729 -0.8301,1.3216 -0.8301,2.2461 0,0.944 0.2767,1.709 0.8301,2.2949 0.5533,0.5794 1.25,0.8691 2.0898,0.8691 0.8138,0 1.4974,-0.2962 2.0508,-0.8886 0.5599,-0.5925 0.8398,-1.3477 0.8398,-2.2657 0,-0.9114 -0.2734,-1.6569 -0.8203,-2.2363 -0.5469,-0.5859 -1.237,-0.8789 -2.0703,-0.8789 z M 95.7305,26.375 h 2.6562 V 37 h -2.6562 v -1.123 c -0.5209,0.4947 -1.045,0.8528 -1.5723,1.0742 -0.5208,0.2148 -1.0872,0.3222 -1.6992,0.3222 -1.3737,0 -2.5619,-0.5306 -3.5645,-1.5918 -1.0026,-1.0677 -1.5039,-2.3925 -1.5039,-3.9746 0,-1.6406 0.4851,-2.985 1.4551,-4.0332 0.9701,-1.0481 2.1484,-1.5722 3.5352,-1.5722 0.638,0 1.2369,0.1204 1.7968,0.3613 0.5599,0.2409 1.0775,0.6022 1.5528,1.084 z m -2.8028,2.1875 c -0.8268,0 -1.5136,0.293 -2.0605,0.8789 -0.5469,0.5794 -0.8203,1.3249 -0.8203,2.2363 0,0.918 0.2767,1.6732 0.8301,2.2657 0.5598,0.5924 1.2467,0.8886 2.0605,0.8886 0.8398,0 1.5365,-0.2897 2.0898,-0.8691 0.5534,-0.5859 0.8301,-1.3509 0.8301,-2.2949 0,-0.9245 -0.2767,-1.6732 -0.8301,-2.2461 C 94.474,28.849 93.7741,28.5625 92.9277,28.5625 Z M 103.748,37 h -2.676 V 26.375 h 9.317 V 37 h -2.676 v -8.0566 h -3.965 z m 10.752,0 h -1.416 V 26.375 h 2.598 v 6.2402 l 5.439,-6.2402 H 122.4 V 37 h -2.597 v -6.1133 z m 12.412,-4.3555 c -0.573,-0.1888 -1.045,-0.5436 -1.416,-1.0644 -0.364,-0.5274 -0.547,-1.1198 -0.547,-1.7774 0,-0.7877 0.225,-1.4778 0.674,-2.0703 0.449,-0.5924 0.983,-0.9668 1.602,-1.123 0.625,-0.1563 1.598,-0.2344 2.92,-0.2344 h 2.695 V 37 h -2.676 v -3.8477 h -0.518 L 127.117,37 h -3.154 z m 3.252,-1.4941 v -2.5488 h -0.928 c -1.009,0 -1.513,0.4231 -1.513,1.2695 0,0.8529 0.563,1.2793 1.689,1.2793 z"
       fill="#000000"
       id="path422" /></g></svg>
